<?xml version="1.0" encoding="utf-8" standalone="no"?>
<!DOCTYPE svg PUBLIC "-//W3C//DTD SVG 1.1//EN"
  "http://www.w3.org/Graphics/SVG/1.1/DTD/svg11.dtd">
<svg xmlns:xlink="http://www.w3.org/1999/xlink" width="855.126188pt" height="317.931562pt" viewBox="0 0 855.126188 317.931562" xmlns="http://www.w3.org/2000/svg" version="1.1">
 <metadata>
  <rdf:RDF xmlns:dc="http://purl.org/dc/elements/1.1/" xmlns:cc="http://creativecommons.org/ns#" xmlns:rdf="http://www.w3.org/1999/02/22-rdf-syntax-ns#">
   <cc:Work>
    <dc:type rdf:resource="http://purl.org/dc/dcmitype/StillImage"/>
    <dc:date>2024-03-15T19:19:57.196412</dc:date>
    <dc:format>image/svg+xml</dc:format>
    <dc:creator>
     <cc:Agent>
      <dc:title>Matplotlib v3.8.2, https://matplotlib.org/</dc:title>
     </cc:Agent>
    </dc:creator>
   </cc:Work>
  </rdf:RDF>
 </metadata>
 <defs>
  <style type="text/css">*{stroke-linejoin: round; stroke-linecap: butt}</style>
 </defs>
 <g id="figure_1">
  <g id="patch_1">
   <path d="M 0 317.931562 
L 855.126188 317.931562 
L 855.126188 0 
L 0 0 
z
" style="fill: #ffffff"/>
  </g>
  <g id="axes_1">
   <g id="patch_2">
    <path d="M 51.032188 251.317812 
L 421.326188 251.317812 
L 421.326188 23.837812 
L 51.032188 23.837812 
z
" style="fill: #ffffff"/>
   </g>
   <g id="patch_3">
    <path d="M 67.863733 251.317812 
L 88.903165 251.317812 
L 88.903165 34.670193 
L 67.863733 34.670193 
z
" clip-path="url(#pefb9bbaa9f)" style="fill: #1f77b4"/>
   </g>
   <g id="patch_4">
    <path d="M 136.241886 251.317812 
L 157.281318 251.317812 
L 157.281318 48.514124 
L 136.241886 48.514124 
z
" clip-path="url(#pefb9bbaa9f)" style="fill: #1f77b4"/>
   </g>
   <g id="patch_5">
    <path d="M 204.62004 251.317812 
L 225.659472 251.317812 
L 225.659472 70.655276 
L 204.62004 70.655276 
z
" clip-path="url(#pefb9bbaa9f)" style="fill: #1f77b4"/>
   </g>
   <g id="patch_6">
    <path d="M 272.998193 251.317812 
L 294.037625 251.317812 
L 294.037625 102.187151 
L 272.998193 102.187151 
z
" clip-path="url(#pefb9bbaa9f)" style="fill: #1f77b4"/>
   </g>
   <g id="patch_7">
    <path d="M 341.376347 251.317812 
L 362.415778 251.317812 
L 362.415778 107.44754 
L 341.376347 107.44754 
z
" clip-path="url(#pefb9bbaa9f)" style="fill: #1f77b4"/>
   </g>
   <g id="patch_8">
    <path d="M 88.903165 251.317812 
L 109.942597 251.317812 
L 109.942597 41.968336 
L 88.903165 41.968336 
z
" clip-path="url(#pefb9bbaa9f)" style="fill: #ff7f0e"/>
   </g>
   <g id="patch_9">
    <path d="M 157.281318 251.317812 
L 178.32075 251.317812 
L 178.32075 57.822607 
L 157.281318 57.822607 
z
" clip-path="url(#pefb9bbaa9f)" style="fill: #ff7f0e"/>
   </g>
   <g id="patch_10">
    <path d="M 225.659472 251.317812 
L 246.698903 251.317812 
L 246.698903 61.371161 
L 225.659472 61.371161 
z
" clip-path="url(#pefb9bbaa9f)" style="fill: #ff7f0e"/>
   </g>
   <g id="patch_11">
    <path d="M 294.037625 251.317812 
L 315.077057 251.317812 
L 315.077057 78.751463 
L 294.037625 78.751463 
z
" clip-path="url(#pefb9bbaa9f)" style="fill: #ff7f0e"/>
   </g>
   <g id="patch_12">
    <path d="M 362.415778 251.317812 
L 383.45521 251.317812 
L 383.45521 105.04427 
L 362.415778 105.04427 
z
" clip-path="url(#pefb9bbaa9f)" style="fill: #ff7f0e"/>
   </g>
   <g id="patch_13">
    <path d="M 109.942597 251.317812 
L 130.982028 251.317812 
L 130.982028 59.866452 
L 109.942597 59.866452 
z
" clip-path="url(#pefb9bbaa9f)" style="fill: #2ca02c"/>
   </g>
   <g id="patch_14">
    <path d="M 178.32075 251.317812 
L 199.360182 251.317812 
L 199.360182 47.103841 
L 178.32075 47.103841 
z
" clip-path="url(#pefb9bbaa9f)" style="fill: #2ca02c"/>
   </g>
   <g id="patch_15">
    <path d="M 246.698903 251.317812 
L 267.738335 251.317812 
L 267.738335 101.517038 
L 246.698903 101.517038 
z
" clip-path="url(#pefb9bbaa9f)" style="fill: #2ca02c"/>
   </g>
   <g id="patch_16">
    <path d="M 315.077057 251.317812 
L 336.116489 251.317812 
L 336.116489 100.453994 
L 315.077057 100.453994 
z
" clip-path="url(#pefb9bbaa9f)" style="fill: #2ca02c"/>
   </g>
   <g id="patch_17">
    <path d="M 383.45521 251.317812 
L 404.494642 251.317812 
L 404.494642 103.853296 
L 383.45521 103.853296 
z
" clip-path="url(#pefb9bbaa9f)" style="fill: #2ca02c"/>
   </g>
   <g id="matplotlib.axis_1">
    <g id="xtick_1">
     <g id="line2d_1">
      <defs>
       <path id="m487ad904c0" d="M 0 0 
L 0 3.5 
" style="stroke: #000000; stroke-width: 0.8"/>
      </defs>
      <g>
       <use xlink:href="#m487ad904c0" x="99.422881" y="251.317812" style="stroke: #000000; stroke-width: 0.8"/>
      </g>
     </g>
     <g id="text_1">
      <!-- $ð›¼_R$ = 0.0 -->
      <g transform="translate(74.702881 267.435937) scale(0.12 -0.12)">
       <defs>
        <path id="STIXGeneral-Regular-1d6fc" d="M 3386 2739 
L 2496 1197 
L 2496 960 
Q 2496 704 2550 515 
Q 2605 326 2714 326 
Q 2842 326 3008 800 
L 3104 755 
Q 3014 384 2857 160 
Q 2701 -64 2496 -64 
Q 2330 -64 2208 102 
Q 2086 269 2074 493 
L 2061 493 
Q 1683 -64 1082 -64 
Q 691 -64 473 237 
Q 256 538 256 966 
Q 256 1203 301 1389 
Q 442 1978 842 2400 
Q 1242 2822 1741 2822 
Q 2093 2822 2281 2569 
Q 2470 2317 2470 1952 
L 2880 2739 
L 3386 2739 
z
M 2061 1747 
Q 2061 1946 2051 2074 
Q 2042 2202 2003 2346 
Q 1965 2490 1881 2560 
Q 1798 2630 1664 2630 
Q 1370 2630 1082 2076 
Q 794 1523 794 800 
Q 794 467 858 297 
Q 922 128 1139 128 
Q 1325 128 1523 358 
Q 1722 589 1837 825 
Q 1952 1062 2029 1293 
Q 2061 1453 2061 1747 
z
" transform="scale(0.015625)"/>
        <path id="DejaVuSans-Oblique-52" d="M 1613 4147 
L 1294 2491 
L 2106 2491 
Q 2584 2491 2879 2755 
Q 3175 3019 3175 3444 
Q 3175 3784 2976 3965 
Q 2778 4147 2406 4147 
L 1613 4147 
z
M 2772 2241 
Q 2972 2194 3105 2009 
Q 3238 1825 3413 1275 
L 3809 0 
L 3144 0 
L 2778 1197 
Q 2638 1659 2453 1815 
Q 2269 1972 1888 1972 
L 1191 1972 
L 806 0 
L 172 0 
L 1081 4666 
L 2503 4666 
Q 3150 4666 3495 4373 
Q 3841 4081 3841 3531 
Q 3841 3044 3547 2687 
Q 3253 2331 2772 2241 
z
" transform="scale(0.015625)"/>
        <path id="DejaVuSans-20" transform="scale(0.015625)"/>
        <path id="DejaVuSans-3d" d="M 678 2906 
L 4684 2906 
L 4684 2381 
L 678 2381 
L 678 2906 
z
M 678 1631 
L 4684 1631 
L 4684 1100 
L 678 1100 
L 678 1631 
z
" transform="scale(0.015625)"/>
        <path id="DejaVuSans-30" d="M 2034 4250 
Q 1547 4250 1301 3770 
Q 1056 3291 1056 2328 
Q 1056 1369 1301 889 
Q 1547 409 2034 409 
Q 2525 409 2770 889 
Q 3016 1369 3016 2328 
Q 3016 3291 2770 3770 
Q 2525 4250 2034 4250 
z
M 2034 4750 
Q 2819 4750 3233 4129 
Q 3647 3509 3647 2328 
Q 3647 1150 3233 529 
Q 2819 -91 2034 -91 
Q 1250 -91 836 529 
Q 422 1150 422 2328 
Q 422 3509 836 4129 
Q 1250 4750 2034 4750 
z
" transform="scale(0.015625)"/>
        <path id="DejaVuSans-2e" d="M 684 794 
L 1344 794 
L 1344 0 
L 684 0 
L 684 794 
z
" transform="scale(0.015625)"/>
       </defs>
       <use xlink:href="#STIXGeneral-Regular-1d6fc" transform="translate(0 0.78125)"/>
       <use xlink:href="#DejaVuSans-Oblique-52" transform="translate(53.357025 -15.625) scale(0.7)"/>
       <use xlink:href="#DejaVuSans-20" transform="translate(104.729095 0.78125)"/>
       <use xlink:href="#DejaVuSans-3d" transform="translate(136.516205 0.78125)"/>
       <use xlink:href="#DejaVuSans-20" transform="translate(220.305267 0.78125)"/>
       <use xlink:href="#DejaVuSans-30" transform="translate(252.092377 0.78125)"/>
       <use xlink:href="#DejaVuSans-2e" transform="translate(315.715424 0.78125)"/>
       <use xlink:href="#DejaVuSans-30" transform="translate(347.502533 0.78125)"/>
      </g>
     </g>
    </g>
    <g id="xtick_2">
     <g id="line2d_2">
      <g>
       <use xlink:href="#m487ad904c0" x="167.801034" y="251.317812" style="stroke: #000000; stroke-width: 0.8"/>
      </g>
     </g>
     <g id="text_2">
      <!-- $ð›¼_R$ = 0.25 -->
      <g transform="translate(139.601034 267.435937) scale(0.12 -0.12)">
       <defs>
        <path id="DejaVuSans-32" d="M 1228 531 
L 3431 531 
L 3431 0 
L 469 0 
L 469 531 
Q 828 903 1448 1529 
Q 2069 2156 2228 2338 
Q 2531 2678 2651 2914 
Q 2772 3150 2772 3378 
Q 2772 3750 2511 3984 
Q 2250 4219 1831 4219 
Q 1534 4219 1204 4116 
Q 875 4013 500 3803 
L 500 4441 
Q 881 4594 1212 4672 
Q 1544 4750 1819 4750 
Q 2544 4750 2975 4387 
Q 3406 4025 3406 3419 
Q 3406 3131 3298 2873 
Q 3191 2616 2906 2266 
Q 2828 2175 2409 1742 
Q 1991 1309 1228 531 
z
" transform="scale(0.015625)"/>
        <path id="DejaVuSans-35" d="M 691 4666 
L 3169 4666 
L 3169 4134 
L 1269 4134 
L 1269 2991 
Q 1406 3038 1543 3061 
Q 1681 3084 1819 3084 
Q 2600 3084 3056 2656 
Q 3513 2228 3513 1497 
Q 3513 744 3044 326 
Q 2575 -91 1722 -91 
Q 1428 -91 1123 -41 
Q 819 9 494 109 
L 494 744 
Q 775 591 1075 516 
Q 1375 441 1709 441 
Q 2250 441 2565 725 
Q 2881 1009 2881 1497 
Q 2881 1984 2565 2268 
Q 2250 2553 1709 2553 
Q 1456 2553 1204 2497 
Q 953 2441 691 2322 
L 691 4666 
z
" transform="scale(0.015625)"/>
       </defs>
       <use xlink:href="#STIXGeneral-Regular-1d6fc" transform="translate(0 0.78125)"/>
       <use xlink:href="#DejaVuSans-Oblique-52" transform="translate(53.357025 -15.625) scale(0.7)"/>
       <use xlink:href="#DejaVuSans-20" transform="translate(104.729095 0.78125)"/>
       <use xlink:href="#DejaVuSans-3d" transform="translate(136.516205 0.78125)"/>
       <use xlink:href="#DejaVuSans-20" transform="translate(220.305267 0.78125)"/>
       <use xlink:href="#DejaVuSans-30" transform="translate(252.092377 0.78125)"/>
       <use xlink:href="#DejaVuSans-2e" transform="translate(315.715424 0.78125)"/>
       <use xlink:href="#DejaVuSans-32" transform="translate(342.002533 0.78125)"/>
       <use xlink:href="#DejaVuSans-35" transform="translate(405.62558 0.78125)"/>
      </g>
     </g>
    </g>
    <g id="xtick_3">
     <g id="line2d_3">
      <g>
       <use xlink:href="#m487ad904c0" x="236.179188" y="251.317812" style="stroke: #000000; stroke-width: 0.8"/>
      </g>
     </g>
     <g id="text_3">
      <!-- $ð›¼_R$ = 0.5 -->
      <g transform="translate(211.459188 267.435937) scale(0.12 -0.12)">
       <use xlink:href="#STIXGeneral-Regular-1d6fc" transform="translate(0 0.78125)"/>
       <use xlink:href="#DejaVuSans-Oblique-52" transform="translate(53.357025 -15.625) scale(0.7)"/>
       <use xlink:href="#DejaVuSans-20" transform="translate(104.729095 0.78125)"/>
       <use xlink:href="#DejaVuSans-3d" transform="translate(136.516205 0.78125)"/>
       <use xlink:href="#DejaVuSans-20" transform="translate(220.305267 0.78125)"/>
       <use xlink:href="#DejaVuSans-30" transform="translate(252.092377 0.78125)"/>
       <use xlink:href="#DejaVuSans-2e" transform="translate(315.715424 0.78125)"/>
       <use xlink:href="#DejaVuSans-35" transform="translate(347.502533 0.78125)"/>
      </g>
     </g>
    </g>
    <g id="xtick_4">
     <g id="line2d_4">
      <g>
       <use xlink:href="#m487ad904c0" x="304.557341" y="251.317812" style="stroke: #000000; stroke-width: 0.8"/>
      </g>
     </g>
     <g id="text_4">
      <!-- $ð›¼_R$ = 0.75 -->
      <g transform="translate(276.537341 267.435937) scale(0.12 -0.12)">
       <defs>
        <path id="DejaVuSans-37" d="M 525 4666 
L 3525 4666 
L 3525 4397 
L 1831 0 
L 1172 0 
L 2766 4134 
L 525 4134 
L 525 4666 
z
" transform="scale(0.015625)"/>
       </defs>
       <use xlink:href="#STIXGeneral-Regular-1d6fc" transform="translate(0 0.78125)"/>
       <use xlink:href="#DejaVuSans-Oblique-52" transform="translate(53.357025 -15.625) scale(0.7)"/>
       <use xlink:href="#DejaVuSans-20" transform="translate(104.729095 0.78125)"/>
       <use xlink:href="#DejaVuSans-3d" transform="translate(136.516205 0.78125)"/>
       <use xlink:href="#DejaVuSans-20" transform="translate(220.305267 0.78125)"/>
       <use xlink:href="#DejaVuSans-30" transform="translate(252.092377 0.78125)"/>
       <use xlink:href="#DejaVuSans-2e" transform="translate(315.715424 0.78125)"/>
       <use xlink:href="#DejaVuSans-37" transform="translate(339.752533 0.78125)"/>
       <use xlink:href="#DejaVuSans-35" transform="translate(403.37558 0.78125)"/>
      </g>
     </g>
    </g>
    <g id="xtick_5">
     <g id="line2d_5">
      <g>
       <use xlink:href="#m487ad904c0" x="372.935494" y="251.317812" style="stroke: #000000; stroke-width: 0.8"/>
      </g>
     </g>
     <g id="text_5">
      <!-- $ð›¼_R$ = 1.0 -->
      <g transform="translate(348.215494 267.435937) scale(0.12 -0.12)">
       <defs>
        <path id="DejaVuSans-31" d="M 794 531 
L 1825 531 
L 1825 4091 
L 703 3866 
L 703 4441 
L 1819 4666 
L 2450 4666 
L 2450 531 
L 3481 531 
L 3481 0 
L 794 0 
L 794 531 
z
" transform="scale(0.015625)"/>
       </defs>
       <use xlink:href="#STIXGeneral-Regular-1d6fc" transform="translate(0 0.78125)"/>
       <use xlink:href="#DejaVuSans-Oblique-52" transform="translate(53.357025 -15.625) scale(0.7)"/>
       <use xlink:href="#DejaVuSans-20" transform="translate(104.729095 0.78125)"/>
       <use xlink:href="#DejaVuSans-3d" transform="translate(136.516205 0.78125)"/>
       <use xlink:href="#DejaVuSans-20" transform="translate(220.305267 0.78125)"/>
       <use xlink:href="#DejaVuSans-31" transform="translate(252.092377 0.78125)"/>
       <use xlink:href="#DejaVuSans-2e" transform="translate(315.715424 0.78125)"/>
       <use xlink:href="#DejaVuSans-30" transform="translate(347.502533 0.78125)"/>
      </g>
     </g>
    </g>
   </g>
   <g id="matplotlib.axis_2">
    <g id="ytick_1">
     <g id="line2d_6">
      <defs>
       <path id="m85a356d0d1" d="M 0 0 
L -3.5 0 
" style="stroke: #000000; stroke-width: 0.8"/>
      </defs>
      <g>
       <use xlink:href="#m85a356d0d1" x="51.032188" y="251.317812" style="stroke: #000000; stroke-width: 0.8"/>
      </g>
     </g>
     <g id="text_6">
      <!-- 0K -->
      <g transform="translate(31.111875 255.117031) scale(0.1 -0.1)">
       <defs>
        <path id="DejaVuSans-4b" d="M 628 4666 
L 1259 4666 
L 1259 2694 
L 3353 4666 
L 4166 4666 
L 1850 2491 
L 4331 0 
L 3500 0 
L 1259 2247 
L 1259 0 
L 628 0 
L 628 4666 
z
" transform="scale(0.015625)"/>
       </defs>
       <use xlink:href="#DejaVuSans-30"/>
       <use xlink:href="#DejaVuSans-4b" x="63.623047"/>
      </g>
     </g>
    </g>
    <g id="ytick_2">
     <g id="line2d_7">
      <g>
       <use xlink:href="#m85a356d0d1" x="51.032188" y="220.858119" style="stroke: #000000; stroke-width: 0.8"/>
      </g>
     </g>
     <g id="text_7">
      <!-- 5K -->
      <g transform="translate(31.111875 224.657337) scale(0.1 -0.1)">
       <use xlink:href="#DejaVuSans-35"/>
       <use xlink:href="#DejaVuSans-4b" x="63.623047"/>
      </g>
     </g>
    </g>
    <g id="ytick_3">
     <g id="line2d_8">
      <g>
       <use xlink:href="#m85a356d0d1" x="51.032188" y="190.398425" style="stroke: #000000; stroke-width: 0.8"/>
      </g>
     </g>
     <g id="text_8">
      <!-- 10K -->
      <g transform="translate(24.749375 194.197643) scale(0.1 -0.1)">
       <use xlink:href="#DejaVuSans-31"/>
       <use xlink:href="#DejaVuSans-30" x="63.623047"/>
       <use xlink:href="#DejaVuSans-4b" x="127.246094"/>
      </g>
     </g>
    </g>
    <g id="ytick_4">
     <g id="line2d_9">
      <g>
       <use xlink:href="#m85a356d0d1" x="51.032188" y="159.938731" style="stroke: #000000; stroke-width: 0.8"/>
      </g>
     </g>
     <g id="text_9">
      <!-- 15K -->
      <g transform="translate(24.749375 163.737949) scale(0.1 -0.1)">
       <use xlink:href="#DejaVuSans-31"/>
       <use xlink:href="#DejaVuSans-35" x="63.623047"/>
       <use xlink:href="#DejaVuSans-4b" x="127.246094"/>
      </g>
     </g>
    </g>
    <g id="ytick_5">
     <g id="line2d_10">
      <g>
       <use xlink:href="#m85a356d0d1" x="51.032188" y="129.479037" style="stroke: #000000; stroke-width: 0.8"/>
      </g>
     </g>
     <g id="text_10">
      <!-- 20K -->
      <g transform="translate(24.749375 133.278256) scale(0.1 -0.1)">
       <use xlink:href="#DejaVuSans-32"/>
       <use xlink:href="#DejaVuSans-30" x="63.623047"/>
       <use xlink:href="#DejaVuSans-4b" x="127.246094"/>
      </g>
     </g>
    </g>
    <g id="ytick_6">
     <g id="line2d_11">
      <g>
       <use xlink:href="#m85a356d0d1" x="51.032188" y="99.019343" style="stroke: #000000; stroke-width: 0.8"/>
      </g>
     </g>
     <g id="text_11">
      <!-- 25K -->
      <g transform="translate(24.749375 102.818562) scale(0.1 -0.1)">
       <use xlink:href="#DejaVuSans-32"/>
       <use xlink:href="#DejaVuSans-35" x="63.623047"/>
       <use xlink:href="#DejaVuSans-4b" x="127.246094"/>
      </g>
     </g>
    </g>
    <g id="ytick_7">
     <g id="line2d_12">
      <g>
       <use xlink:href="#m85a356d0d1" x="51.032188" y="68.559649" style="stroke: #000000; stroke-width: 0.8"/>
      </g>
     </g>
     <g id="text_12">
      <!-- 30K -->
      <g transform="translate(24.749375 72.358868) scale(0.1 -0.1)">
       <defs>
        <path id="DejaVuSans-33" d="M 2597 2516 
Q 3050 2419 3304 2112 
Q 3559 1806 3559 1356 
Q 3559 666 3084 287 
Q 2609 -91 1734 -91 
Q 1441 -91 1130 -33 
Q 819 25 488 141 
L 488 750 
Q 750 597 1062 519 
Q 1375 441 1716 441 
Q 2309 441 2620 675 
Q 2931 909 2931 1356 
Q 2931 1769 2642 2001 
Q 2353 2234 1838 2234 
L 1294 2234 
L 1294 2753 
L 1863 2753 
Q 2328 2753 2575 2939 
Q 2822 3125 2822 3475 
Q 2822 3834 2567 4026 
Q 2313 4219 1838 4219 
Q 1578 4219 1281 4162 
Q 984 4106 628 3988 
L 628 4550 
Q 988 4650 1302 4700 
Q 1616 4750 1894 4750 
Q 2613 4750 3031 4423 
Q 3450 4097 3450 3541 
Q 3450 3153 3228 2886 
Q 3006 2619 2597 2516 
z
" transform="scale(0.015625)"/>
       </defs>
       <use xlink:href="#DejaVuSans-33"/>
       <use xlink:href="#DejaVuSans-30" x="63.623047"/>
       <use xlink:href="#DejaVuSans-4b" x="127.246094"/>
      </g>
     </g>
    </g>
    <g id="ytick_8">
     <g id="line2d_13">
      <g>
       <use xlink:href="#m85a356d0d1" x="51.032188" y="38.099955" style="stroke: #000000; stroke-width: 0.8"/>
      </g>
     </g>
     <g id="text_13">
      <!-- 35K -->
      <g transform="translate(24.749375 41.899174) scale(0.1 -0.1)">
       <use xlink:href="#DejaVuSans-33"/>
       <use xlink:href="#DejaVuSans-35" x="63.623047"/>
       <use xlink:href="#DejaVuSans-4b" x="127.246094"/>
      </g>
     </g>
    </g>
    <g id="text_14">
     <!-- $R_t$ -->
     <g transform="translate(17.837813 144.577812) rotate(-90) scale(0.14 -0.14)">
      <defs>
       <path id="DejaVuSans-Oblique-74" d="M 2706 3500 
L 2619 3053 
L 1472 3053 
L 1100 1153 
Q 1081 1047 1072 975 
Q 1063 903 1063 863 
Q 1063 663 1183 572 
Q 1303 481 1569 481 
L 2150 481 
L 2053 0 
L 1503 0 
Q 991 0 739 200 
Q 488 400 488 806 
Q 488 878 497 964 
Q 506 1050 525 1153 
L 897 3053 
L 409 3053 
L 500 3500 
L 978 3500 
L 1172 4494 
L 1747 4494 
L 1556 3500 
L 2706 3500 
z
" transform="scale(0.015625)"/>
      </defs>
      <use xlink:href="#DejaVuSans-Oblique-52" transform="translate(0 0.09375)"/>
      <use xlink:href="#DejaVuSans-Oblique-74" transform="translate(69.482422 -16.3125) scale(0.7)"/>
     </g>
    </g>
   </g>
   <g id="patch_18">
    <path d="M 51.032188 251.317812 
L 51.032188 23.837812 
" style="fill: none; stroke: #000000; stroke-width: 0.8; stroke-linejoin: miter; stroke-linecap: square"/>
   </g>
   <g id="patch_19">
    <path d="M 421.326188 251.317812 
L 421.326188 23.837812 
" style="fill: none; stroke: #000000; stroke-width: 0.8; stroke-linejoin: miter; stroke-linecap: square"/>
   </g>
   <g id="patch_20">
    <path d="M 51.032188 251.317812 
L 421.326188 251.317812 
" style="fill: none; stroke: #000000; stroke-width: 0.8; stroke-linejoin: miter; stroke-linecap: square"/>
   </g>
   <g id="patch_21">
    <path d="M 51.032188 23.837812 
L 421.326188 23.837812 
" style="fill: none; stroke: #000000; stroke-width: 0.8; stroke-linejoin: miter; stroke-linecap: square"/>
   </g>
   <g id="text_15">
    <!-- 35.6K  -->
    <g style="fill: #ffffff" transform="translate(81.694699 77.752068) rotate(-90) scale(0.12 -0.12)">
     <defs>
      <path id="DejaVuSans-Bold-33" d="M 2981 2516 
Q 3453 2394 3698 2092 
Q 3944 1791 3944 1325 
Q 3944 631 3412 270 
Q 2881 -91 1863 -91 
Q 1503 -91 1142 -33 
Q 781 25 428 141 
L 428 1069 
Q 766 900 1098 814 
Q 1431 728 1753 728 
Q 2231 728 2486 893 
Q 2741 1059 2741 1369 
Q 2741 1688 2480 1852 
Q 2219 2016 1709 2016 
L 1228 2016 
L 1228 2791 
L 1734 2791 
Q 2188 2791 2409 2933 
Q 2631 3075 2631 3366 
Q 2631 3634 2415 3781 
Q 2200 3928 1806 3928 
Q 1516 3928 1219 3862 
Q 922 3797 628 3669 
L 628 4550 
Q 984 4650 1334 4700 
Q 1684 4750 2022 4750 
Q 2931 4750 3382 4451 
Q 3834 4153 3834 3553 
Q 3834 3144 3618 2883 
Q 3403 2622 2981 2516 
z
" transform="scale(0.015625)"/>
      <path id="DejaVuSans-Bold-35" d="M 678 4666 
L 3669 4666 
L 3669 3781 
L 1638 3781 
L 1638 3059 
Q 1775 3097 1914 3117 
Q 2053 3138 2203 3138 
Q 3056 3138 3531 2711 
Q 4006 2284 4006 1522 
Q 4006 766 3489 337 
Q 2972 -91 2053 -91 
Q 1656 -91 1267 -14 
Q 878 63 494 219 
L 494 1166 
Q 875 947 1217 837 
Q 1559 728 1863 728 
Q 2300 728 2551 942 
Q 2803 1156 2803 1522 
Q 2803 1891 2551 2103 
Q 2300 2316 1863 2316 
Q 1603 2316 1309 2248 
Q 1016 2181 678 2041 
L 678 4666 
z
" transform="scale(0.015625)"/>
      <path id="DejaVuSans-Bold-2e" d="M 653 1209 
L 1778 1209 
L 1778 0 
L 653 0 
L 653 1209 
z
" transform="scale(0.015625)"/>
      <path id="DejaVuSans-Bold-36" d="M 2316 2303 
Q 2000 2303 1842 2098 
Q 1684 1894 1684 1484 
Q 1684 1075 1842 870 
Q 2000 666 2316 666 
Q 2634 666 2792 870 
Q 2950 1075 2950 1484 
Q 2950 1894 2792 2098 
Q 2634 2303 2316 2303 
z
M 3803 4544 
L 3803 3681 
Q 3506 3822 3243 3889 
Q 2981 3956 2731 3956 
Q 2194 3956 1894 3657 
Q 1594 3359 1544 2772 
Q 1750 2925 1990 3001 
Q 2231 3078 2516 3078 
Q 3231 3078 3670 2659 
Q 4109 2241 4109 1563 
Q 4109 813 3618 361 
Q 3128 -91 2303 -91 
Q 1394 -91 895 523 
Q 397 1138 397 2266 
Q 397 3422 980 4083 
Q 1563 4744 2578 4744 
Q 2900 4744 3203 4694 
Q 3506 4644 3803 4544 
z
" transform="scale(0.015625)"/>
      <path id="DejaVuSans-Bold-4b" d="M 588 4666 
L 1791 4666 
L 1791 2963 
L 3525 4666 
L 4922 4666 
L 2675 2456 
L 5153 0 
L 3647 0 
L 1791 1838 
L 1791 0 
L 588 0 
L 588 4666 
z
" transform="scale(0.015625)"/>
      <path id="DejaVuSans-Bold-20" transform="scale(0.015625)"/>
     </defs>
     <use xlink:href="#DejaVuSans-Bold-33"/>
     <use xlink:href="#DejaVuSans-Bold-35" x="69.580078"/>
     <use xlink:href="#DejaVuSans-Bold-2e" x="139.160156"/>
     <use xlink:href="#DejaVuSans-Bold-36" x="177.148438"/>
     <use xlink:href="#DejaVuSans-Bold-4b" x="246.728516"/>
     <use xlink:href="#DejaVuSans-Bold-20" x="324.21875"/>
    </g>
   </g>
   <g id="text_16">
    <!-- 33.3K  -->
    <g style="fill: #ffffff" transform="translate(150.072852 91.595999) rotate(-90) scale(0.12 -0.12)">
     <use xlink:href="#DejaVuSans-Bold-33"/>
     <use xlink:href="#DejaVuSans-Bold-33" x="69.580078"/>
     <use xlink:href="#DejaVuSans-Bold-2e" x="139.160156"/>
     <use xlink:href="#DejaVuSans-Bold-33" x="177.148438"/>
     <use xlink:href="#DejaVuSans-Bold-4b" x="246.728516"/>
     <use xlink:href="#DejaVuSans-Bold-20" x="324.21875"/>
    </g>
   </g>
   <g id="text_17">
    <!-- 29.7K  -->
    <g style="fill: #ffffff" transform="translate(218.451006 113.737151) rotate(-90) scale(0.12 -0.12)">
     <defs>
      <path id="DejaVuSans-Bold-32" d="M 1844 884 
L 3897 884 
L 3897 0 
L 506 0 
L 506 884 
L 2209 2388 
Q 2438 2594 2547 2791 
Q 2656 2988 2656 3200 
Q 2656 3528 2436 3728 
Q 2216 3928 1850 3928 
Q 1569 3928 1234 3808 
Q 900 3688 519 3450 
L 519 4475 
Q 925 4609 1322 4679 
Q 1719 4750 2100 4750 
Q 2938 4750 3402 4381 
Q 3866 4013 3866 3353 
Q 3866 2972 3669 2642 
Q 3472 2313 2841 1759 
L 1844 884 
z
" transform="scale(0.015625)"/>
      <path id="DejaVuSans-Bold-39" d="M 641 103 
L 641 966 
Q 928 831 1190 764 
Q 1453 697 1709 697 
Q 2247 697 2547 995 
Q 2847 1294 2900 1881 
Q 2688 1725 2447 1647 
Q 2206 1569 1925 1569 
Q 1209 1569 770 1986 
Q 331 2403 331 3084 
Q 331 3838 820 4291 
Q 1309 4744 2131 4744 
Q 3044 4744 3544 4128 
Q 4044 3513 4044 2388 
Q 4044 1231 3459 570 
Q 2875 -91 1856 -91 
Q 1528 -91 1228 -42 
Q 928 6 641 103 
z
M 2125 2350 
Q 2441 2350 2600 2554 
Q 2759 2759 2759 3169 
Q 2759 3575 2600 3781 
Q 2441 3988 2125 3988 
Q 1809 3988 1650 3781 
Q 1491 3575 1491 3169 
Q 1491 2759 1650 2554 
Q 1809 2350 2125 2350 
z
" transform="scale(0.015625)"/>
      <path id="DejaVuSans-Bold-37" d="M 428 4666 
L 3944 4666 
L 3944 3988 
L 2125 0 
L 953 0 
L 2675 3781 
L 428 3781 
L 428 4666 
z
" transform="scale(0.015625)"/>
     </defs>
     <use xlink:href="#DejaVuSans-Bold-32"/>
     <use xlink:href="#DejaVuSans-Bold-39" x="69.580078"/>
     <use xlink:href="#DejaVuSans-Bold-2e" x="139.160156"/>
     <use xlink:href="#DejaVuSans-Bold-37" x="177.148438"/>
     <use xlink:href="#DejaVuSans-Bold-4b" x="246.728516"/>
     <use xlink:href="#DejaVuSans-Bold-20" x="324.21875"/>
    </g>
   </g>
   <g id="text_18">
    <!-- 24.5K  -->
    <g style="fill: #ffffff" transform="translate(286.829159 145.269026) rotate(-90) scale(0.12 -0.12)">
     <defs>
      <path id="DejaVuSans-Bold-34" d="M 2356 3675 
L 1038 1722 
L 2356 1722 
L 2356 3675 
z
M 2156 4666 
L 3494 4666 
L 3494 1722 
L 4159 1722 
L 4159 850 
L 3494 850 
L 3494 0 
L 2356 0 
L 2356 850 
L 288 850 
L 288 1881 
L 2156 4666 
z
" transform="scale(0.015625)"/>
     </defs>
     <use xlink:href="#DejaVuSans-Bold-32"/>
     <use xlink:href="#DejaVuSans-Bold-34" x="69.580078"/>
     <use xlink:href="#DejaVuSans-Bold-2e" x="139.160156"/>
     <use xlink:href="#DejaVuSans-Bold-35" x="177.148438"/>
     <use xlink:href="#DejaVuSans-Bold-4b" x="246.728516"/>
     <use xlink:href="#DejaVuSans-Bold-20" x="324.21875"/>
    </g>
   </g>
   <g id="text_19">
    <!-- 23.6K  -->
    <g style="fill: #ffffff" transform="translate(355.207313 150.529415) rotate(-90) scale(0.12 -0.12)">
     <use xlink:href="#DejaVuSans-Bold-32"/>
     <use xlink:href="#DejaVuSans-Bold-33" x="69.580078"/>
     <use xlink:href="#DejaVuSans-Bold-2e" x="139.160156"/>
     <use xlink:href="#DejaVuSans-Bold-36" x="177.148438"/>
     <use xlink:href="#DejaVuSans-Bold-4b" x="246.728516"/>
     <use xlink:href="#DejaVuSans-Bold-20" x="324.21875"/>
    </g>
   </g>
   <g id="text_20">
    <!-- 34.4K  -->
    <g style="fill: #ffffff" transform="translate(102.734131 85.050211) rotate(-90) scale(0.12 -0.12)">
     <use xlink:href="#DejaVuSans-Bold-33"/>
     <use xlink:href="#DejaVuSans-Bold-34" x="69.580078"/>
     <use xlink:href="#DejaVuSans-Bold-2e" x="139.160156"/>
     <use xlink:href="#DejaVuSans-Bold-34" x="177.148438"/>
     <use xlink:href="#DejaVuSans-Bold-4b" x="246.728516"/>
     <use xlink:href="#DejaVuSans-Bold-20" x="324.21875"/>
    </g>
   </g>
   <g id="text_21">
    <!-- 31.8K  -->
    <g style="fill: #ffffff" transform="translate(171.112284 100.904482) rotate(-90) scale(0.12 -0.12)">
     <defs>
      <path id="DejaVuSans-Bold-31" d="M 750 831 
L 1813 831 
L 1813 3847 
L 722 3622 
L 722 4441 
L 1806 4666 
L 2950 4666 
L 2950 831 
L 4013 831 
L 4013 0 
L 750 0 
L 750 831 
z
" transform="scale(0.015625)"/>
      <path id="DejaVuSans-Bold-38" d="M 2228 2088 
Q 1891 2088 1709 1903 
Q 1528 1719 1528 1375 
Q 1528 1031 1709 848 
Q 1891 666 2228 666 
Q 2563 666 2741 848 
Q 2919 1031 2919 1375 
Q 2919 1722 2741 1905 
Q 2563 2088 2228 2088 
z
M 1350 2484 
Q 925 2613 709 2878 
Q 494 3144 494 3541 
Q 494 4131 934 4440 
Q 1375 4750 2228 4750 
Q 3075 4750 3515 4442 
Q 3956 4134 3956 3541 
Q 3956 3144 3739 2878 
Q 3522 2613 3097 2484 
Q 3572 2353 3814 2058 
Q 4056 1763 4056 1313 
Q 4056 619 3595 264 
Q 3134 -91 2228 -91 
Q 1319 -91 855 264 
Q 391 619 391 1313 
Q 391 1763 633 2058 
Q 875 2353 1350 2484 
z
M 1631 3419 
Q 1631 3141 1786 2991 
Q 1941 2841 2228 2841 
Q 2509 2841 2662 2991 
Q 2816 3141 2816 3419 
Q 2816 3697 2662 3845 
Q 2509 3994 2228 3994 
Q 1941 3994 1786 3844 
Q 1631 3694 1631 3419 
z
" transform="scale(0.015625)"/>
     </defs>
     <use xlink:href="#DejaVuSans-Bold-33"/>
     <use xlink:href="#DejaVuSans-Bold-31" x="69.580078"/>
     <use xlink:href="#DejaVuSans-Bold-2e" x="139.160156"/>
     <use xlink:href="#DejaVuSans-Bold-38" x="177.148438"/>
     <use xlink:href="#DejaVuSans-Bold-4b" x="246.728516"/>
     <use xlink:href="#DejaVuSans-Bold-20" x="324.21875"/>
    </g>
   </g>
   <g id="text_22">
    <!-- 31.2K  -->
    <g style="fill: #ffffff" transform="translate(239.490438 104.453036) rotate(-90) scale(0.12 -0.12)">
     <use xlink:href="#DejaVuSans-Bold-33"/>
     <use xlink:href="#DejaVuSans-Bold-31" x="69.580078"/>
     <use xlink:href="#DejaVuSans-Bold-2e" x="139.160156"/>
     <use xlink:href="#DejaVuSans-Bold-32" x="177.148438"/>
     <use xlink:href="#DejaVuSans-Bold-4b" x="246.728516"/>
     <use xlink:href="#DejaVuSans-Bold-20" x="324.21875"/>
    </g>
   </g>
   <g id="text_23">
    <!-- 28.3K  -->
    <g style="fill: #ffffff" transform="translate(307.868591 121.833338) rotate(-90) scale(0.12 -0.12)">
     <use xlink:href="#DejaVuSans-Bold-32"/>
     <use xlink:href="#DejaVuSans-Bold-38" x="69.580078"/>
     <use xlink:href="#DejaVuSans-Bold-2e" x="139.160156"/>
     <use xlink:href="#DejaVuSans-Bold-33" x="177.148438"/>
     <use xlink:href="#DejaVuSans-Bold-4b" x="246.728516"/>
     <use xlink:href="#DejaVuSans-Bold-20" x="324.21875"/>
    </g>
   </g>
   <g id="text_24">
    <!-- 24.0K  -->
    <g style="fill: #ffffff" transform="translate(376.246744 148.126145) rotate(-90) scale(0.12 -0.12)">
     <defs>
      <path id="DejaVuSans-Bold-30" d="M 2944 2338 
Q 2944 3213 2780 3570 
Q 2616 3928 2228 3928 
Q 1841 3928 1675 3570 
Q 1509 3213 1509 2338 
Q 1509 1453 1675 1090 
Q 1841 728 2228 728 
Q 2613 728 2778 1090 
Q 2944 1453 2944 2338 
z
M 4147 2328 
Q 4147 1169 3647 539 
Q 3147 -91 2228 -91 
Q 1306 -91 806 539 
Q 306 1169 306 2328 
Q 306 3491 806 4120 
Q 1306 4750 2228 4750 
Q 3147 4750 3647 4120 
Q 4147 3491 4147 2328 
z
" transform="scale(0.015625)"/>
     </defs>
     <use xlink:href="#DejaVuSans-Bold-32"/>
     <use xlink:href="#DejaVuSans-Bold-34" x="69.580078"/>
     <use xlink:href="#DejaVuSans-Bold-2e" x="139.160156"/>
     <use xlink:href="#DejaVuSans-Bold-30" x="177.148438"/>
     <use xlink:href="#DejaVuSans-Bold-4b" x="246.728516"/>
     <use xlink:href="#DejaVuSans-Bold-20" x="324.21875"/>
    </g>
   </g>
   <g id="text_25">
    <!-- 31.4K  -->
    <g style="fill: #ffffff" transform="translate(123.773563 102.948327) rotate(-90) scale(0.12 -0.12)">
     <use xlink:href="#DejaVuSans-Bold-33"/>
     <use xlink:href="#DejaVuSans-Bold-31" x="69.580078"/>
     <use xlink:href="#DejaVuSans-Bold-2e" x="139.160156"/>
     <use xlink:href="#DejaVuSans-Bold-34" x="177.148438"/>
     <use xlink:href="#DejaVuSans-Bold-4b" x="246.728516"/>
     <use xlink:href="#DejaVuSans-Bold-20" x="324.21875"/>
    </g>
   </g>
   <g id="text_26">
    <!-- 33.5K  -->
    <g style="fill: #ffffff" transform="translate(192.151716 90.185716) rotate(-90) scale(0.12 -0.12)">
     <use xlink:href="#DejaVuSans-Bold-33"/>
     <use xlink:href="#DejaVuSans-Bold-33" x="69.580078"/>
     <use xlink:href="#DejaVuSans-Bold-2e" x="139.160156"/>
     <use xlink:href="#DejaVuSans-Bold-35" x="177.148438"/>
     <use xlink:href="#DejaVuSans-Bold-4b" x="246.728516"/>
     <use xlink:href="#DejaVuSans-Bold-20" x="324.21875"/>
    </g>
   </g>
   <g id="text_27">
    <!-- 24.6K  -->
    <g style="fill: #ffffff" transform="translate(260.529869 144.598913) rotate(-90) scale(0.12 -0.12)">
     <use xlink:href="#DejaVuSans-Bold-32"/>
     <use xlink:href="#DejaVuSans-Bold-34" x="69.580078"/>
     <use xlink:href="#DejaVuSans-Bold-2e" x="139.160156"/>
     <use xlink:href="#DejaVuSans-Bold-36" x="177.148438"/>
     <use xlink:href="#DejaVuSans-Bold-4b" x="246.728516"/>
     <use xlink:href="#DejaVuSans-Bold-20" x="324.21875"/>
    </g>
   </g>
   <g id="text_28">
    <!-- 24.8K  -->
    <g style="fill: #ffffff" transform="translate(328.908023 143.535869) rotate(-90) scale(0.12 -0.12)">
     <use xlink:href="#DejaVuSans-Bold-32"/>
     <use xlink:href="#DejaVuSans-Bold-34" x="69.580078"/>
     <use xlink:href="#DejaVuSans-Bold-2e" x="139.160156"/>
     <use xlink:href="#DejaVuSans-Bold-38" x="177.148438"/>
     <use xlink:href="#DejaVuSans-Bold-4b" x="246.728516"/>
     <use xlink:href="#DejaVuSans-Bold-20" x="324.21875"/>
    </g>
   </g>
   <g id="text_29">
    <!-- 24.2K  -->
    <g style="fill: #ffffff" transform="translate(397.286176 146.935171) rotate(-90) scale(0.12 -0.12)">
     <use xlink:href="#DejaVuSans-Bold-32"/>
     <use xlink:href="#DejaVuSans-Bold-34" x="69.580078"/>
     <use xlink:href="#DejaVuSans-Bold-2e" x="139.160156"/>
     <use xlink:href="#DejaVuSans-Bold-32" x="177.148438"/>
     <use xlink:href="#DejaVuSans-Bold-4b" x="246.728516"/>
     <use xlink:href="#DejaVuSans-Bold-20" x="324.21875"/>
    </g>
   </g>
   <g id="text_30">
    <!-- User Count, $N$ = 50 -->
    <g transform="translate(168.279188 17.837812) scale(0.14 -0.14)">
     <defs>
      <path id="DejaVuSans-55" d="M 556 4666 
L 1191 4666 
L 1191 1831 
Q 1191 1081 1462 751 
Q 1734 422 2344 422 
Q 2950 422 3222 751 
Q 3494 1081 3494 1831 
L 3494 4666 
L 4128 4666 
L 4128 1753 
Q 4128 841 3676 375 
Q 3225 -91 2344 -91 
Q 1459 -91 1007 375 
Q 556 841 556 1753 
L 556 4666 
z
" transform="scale(0.015625)"/>
      <path id="DejaVuSans-73" d="M 2834 3397 
L 2834 2853 
Q 2591 2978 2328 3040 
Q 2066 3103 1784 3103 
Q 1356 3103 1142 2972 
Q 928 2841 928 2578 
Q 928 2378 1081 2264 
Q 1234 2150 1697 2047 
L 1894 2003 
Q 2506 1872 2764 1633 
Q 3022 1394 3022 966 
Q 3022 478 2636 193 
Q 2250 -91 1575 -91 
Q 1294 -91 989 -36 
Q 684 19 347 128 
L 347 722 
Q 666 556 975 473 
Q 1284 391 1588 391 
Q 1994 391 2212 530 
Q 2431 669 2431 922 
Q 2431 1156 2273 1281 
Q 2116 1406 1581 1522 
L 1381 1569 
Q 847 1681 609 1914 
Q 372 2147 372 2553 
Q 372 3047 722 3315 
Q 1072 3584 1716 3584 
Q 2034 3584 2315 3537 
Q 2597 3491 2834 3397 
z
" transform="scale(0.015625)"/>
      <path id="DejaVuSans-65" d="M 3597 1894 
L 3597 1613 
L 953 1613 
Q 991 1019 1311 708 
Q 1631 397 2203 397 
Q 2534 397 2845 478 
Q 3156 559 3463 722 
L 3463 178 
Q 3153 47 2828 -22 
Q 2503 -91 2169 -91 
Q 1331 -91 842 396 
Q 353 884 353 1716 
Q 353 2575 817 3079 
Q 1281 3584 2069 3584 
Q 2775 3584 3186 3129 
Q 3597 2675 3597 1894 
z
M 3022 2063 
Q 3016 2534 2758 2815 
Q 2500 3097 2075 3097 
Q 1594 3097 1305 2825 
Q 1016 2553 972 2059 
L 3022 2063 
z
" transform="scale(0.015625)"/>
      <path id="DejaVuSans-72" d="M 2631 2963 
Q 2534 3019 2420 3045 
Q 2306 3072 2169 3072 
Q 1681 3072 1420 2755 
Q 1159 2438 1159 1844 
L 1159 0 
L 581 0 
L 581 3500 
L 1159 3500 
L 1159 2956 
Q 1341 3275 1631 3429 
Q 1922 3584 2338 3584 
Q 2397 3584 2469 3576 
Q 2541 3569 2628 3553 
L 2631 2963 
z
" transform="scale(0.015625)"/>
      <path id="DejaVuSans-43" d="M 4122 4306 
L 4122 3641 
Q 3803 3938 3442 4084 
Q 3081 4231 2675 4231 
Q 1875 4231 1450 3742 
Q 1025 3253 1025 2328 
Q 1025 1406 1450 917 
Q 1875 428 2675 428 
Q 3081 428 3442 575 
Q 3803 722 4122 1019 
L 4122 359 
Q 3791 134 3420 21 
Q 3050 -91 2638 -91 
Q 1578 -91 968 557 
Q 359 1206 359 2328 
Q 359 3453 968 4101 
Q 1578 4750 2638 4750 
Q 3056 4750 3426 4639 
Q 3797 4528 4122 4306 
z
" transform="scale(0.015625)"/>
      <path id="DejaVuSans-6f" d="M 1959 3097 
Q 1497 3097 1228 2736 
Q 959 2375 959 1747 
Q 959 1119 1226 758 
Q 1494 397 1959 397 
Q 2419 397 2687 759 
Q 2956 1122 2956 1747 
Q 2956 2369 2687 2733 
Q 2419 3097 1959 3097 
z
M 1959 3584 
Q 2709 3584 3137 3096 
Q 3566 2609 3566 1747 
Q 3566 888 3137 398 
Q 2709 -91 1959 -91 
Q 1206 -91 779 398 
Q 353 888 353 1747 
Q 353 2609 779 3096 
Q 1206 3584 1959 3584 
z
" transform="scale(0.015625)"/>
      <path id="DejaVuSans-75" d="M 544 1381 
L 544 3500 
L 1119 3500 
L 1119 1403 
Q 1119 906 1312 657 
Q 1506 409 1894 409 
Q 2359 409 2629 706 
Q 2900 1003 2900 1516 
L 2900 3500 
L 3475 3500 
L 3475 0 
L 2900 0 
L 2900 538 
Q 2691 219 2414 64 
Q 2138 -91 1772 -91 
Q 1169 -91 856 284 
Q 544 659 544 1381 
z
M 1991 3584 
L 1991 3584 
z
" transform="scale(0.015625)"/>
      <path id="DejaVuSans-6e" d="M 3513 2113 
L 3513 0 
L 2938 0 
L 2938 2094 
Q 2938 2591 2744 2837 
Q 2550 3084 2163 3084 
Q 1697 3084 1428 2787 
Q 1159 2491 1159 1978 
L 1159 0 
L 581 0 
L 581 3500 
L 1159 3500 
L 1159 2956 
Q 1366 3272 1645 3428 
Q 1925 3584 2291 3584 
Q 2894 3584 3203 3211 
Q 3513 2838 3513 2113 
z
" transform="scale(0.015625)"/>
      <path id="DejaVuSans-74" d="M 1172 4494 
L 1172 3500 
L 2356 3500 
L 2356 3053 
L 1172 3053 
L 1172 1153 
Q 1172 725 1289 603 
Q 1406 481 1766 481 
L 2356 481 
L 2356 0 
L 1766 0 
Q 1100 0 847 248 
Q 594 497 594 1153 
L 594 3053 
L 172 3053 
L 172 3500 
L 594 3500 
L 594 4494 
L 1172 4494 
z
" transform="scale(0.015625)"/>
      <path id="DejaVuSans-2c" d="M 750 794 
L 1409 794 
L 1409 256 
L 897 -744 
L 494 -744 
L 750 256 
L 750 794 
z
" transform="scale(0.015625)"/>
      <path id="DejaVuSans-Oblique-4e" d="M 1081 4666 
L 1931 4666 
L 3219 666 
L 4000 4666 
L 4616 4666 
L 3706 0 
L 2853 0 
L 1569 4025 
L 788 0 
L 172 0 
L 1081 4666 
z
" transform="scale(0.015625)"/>
     </defs>
     <use xlink:href="#DejaVuSans-55" transform="translate(0 0.78125)"/>
     <use xlink:href="#DejaVuSans-73" transform="translate(73.193359 0.78125)"/>
     <use xlink:href="#DejaVuSans-65" transform="translate(125.292969 0.78125)"/>
     <use xlink:href="#DejaVuSans-72" transform="translate(186.816406 0.78125)"/>
     <use xlink:href="#DejaVuSans-20" transform="translate(227.929688 0.78125)"/>
     <use xlink:href="#DejaVuSans-43" transform="translate(259.716797 0.78125)"/>
     <use xlink:href="#DejaVuSans-6f" transform="translate(329.541016 0.78125)"/>
     <use xlink:href="#DejaVuSans-75" transform="translate(390.722656 0.78125)"/>
     <use xlink:href="#DejaVuSans-6e" transform="translate(454.101562 0.78125)"/>
     <use xlink:href="#DejaVuSans-74" transform="translate(517.480469 0.78125)"/>
     <use xlink:href="#DejaVuSans-2c" transform="translate(556.689453 0.78125)"/>
     <use xlink:href="#DejaVuSans-20" transform="translate(588.476562 0.78125)"/>
     <use xlink:href="#DejaVuSans-Oblique-4e" transform="translate(620.263672 0.78125)"/>
     <use xlink:href="#DejaVuSans-20" transform="translate(695.068359 0.78125)"/>
     <use xlink:href="#DejaVuSans-3d" transform="translate(726.855469 0.78125)"/>
     <use xlink:href="#DejaVuSans-20" transform="translate(810.644531 0.78125)"/>
     <use xlink:href="#DejaVuSans-35" transform="translate(842.431641 0.78125)"/>
     <use xlink:href="#DejaVuSans-30" transform="translate(906.054688 0.78125)"/>
    </g>
   </g>
  </g>
  <g id="axes_2">
   <g id="patch_22">
    <path d="M 477.632187 251.317812 
L 847.926188 251.317812 
L 847.926188 23.837812 
L 477.632187 23.837812 
z
" style="fill: #ffffff"/>
   </g>
   <g id="patch_23">
    <path d="M 494.463733 251.317812 
L 515.503165 251.317812 
L 515.503165 39.051931 
L 494.463733 39.051931 
z
" clip-path="url(#p8c3ba2b2ea)" style="fill: #1f77b4"/>
   </g>
   <g id="patch_24">
    <path d="M 562.841886 251.317812 
L 583.881318 251.317812 
L 583.881318 49.429951 
L 562.841886 49.429951 
z
" clip-path="url(#p8c3ba2b2ea)" style="fill: #1f77b4"/>
   </g>
   <g id="patch_25">
    <path d="M 631.22004 251.317812 
L 652.259472 251.317812 
L 652.259472 92.606812 
L 631.22004 92.606812 
z
" clip-path="url(#p8c3ba2b2ea)" style="fill: #1f77b4"/>
   </g>
   <g id="patch_26">
    <path d="M 699.598193 251.317812 
L 720.637625 251.317812 
L 720.637625 145.297904 
L 699.598193 145.297904 
z
" clip-path="url(#p8c3ba2b2ea)" style="fill: #1f77b4"/>
   </g>
   <g id="patch_27">
    <path d="M 767.976347 251.317812 
L 789.015778 251.317812 
L 789.015778 144.729953 
L 767.976347 144.729953 
z
" clip-path="url(#p8c3ba2b2ea)" style="fill: #1f77b4"/>
   </g>
   <g id="patch_28">
    <path d="M 515.503165 251.317812 
L 536.542597 251.317812 
L 536.542597 107.432156 
L 515.503165 107.432156 
z
" clip-path="url(#p8c3ba2b2ea)" style="fill: #ff7f0e"/>
   </g>
   <g id="patch_29">
    <path d="M 583.881318 251.317812 
L 604.92075 251.317812 
L 604.92075 58.166912 
L 583.881318 58.166912 
z
" clip-path="url(#p8c3ba2b2ea)" style="fill: #ff7f0e"/>
   </g>
   <g id="patch_30">
    <path d="M 652.259472 251.317812 
L 673.298903 251.317812 
L 673.298903 90.873653 
L 652.259472 90.873653 
z
" clip-path="url(#p8c3ba2b2ea)" style="fill: #ff7f0e"/>
   </g>
   <g id="patch_31">
    <path d="M 720.637625 251.317812 
L 741.677057 251.317812 
L 741.677057 120.260599 
L 720.637625 120.260599 
z
" clip-path="url(#p8c3ba2b2ea)" style="fill: #ff7f0e"/>
   </g>
   <g id="patch_32">
    <path d="M 789.015778 251.317812 
L 810.05521 251.317812 
L 810.05521 138.186651 
L 789.015778 138.186651 
z
" clip-path="url(#p8c3ba2b2ea)" style="fill: #ff7f0e"/>
   </g>
   <g id="patch_33">
    <path d="M 536.542597 251.317812 
L 557.582028 251.317812 
L 557.582028 70.97582 
L 536.542597 70.97582 
z
" clip-path="url(#p8c3ba2b2ea)" style="fill: #2ca02c"/>
   </g>
   <g id="patch_34">
    <path d="M 604.92075 251.317812 
L 625.960182 251.317812 
L 625.960182 34.670193 
L 604.92075 34.670193 
z
" clip-path="url(#p8c3ba2b2ea)" style="fill: #2ca02c"/>
   </g>
   <g id="patch_35">
    <path d="M 673.298903 251.317812 
L 694.338335 251.317812 
L 694.338335 137.642422 
L 673.298903 137.642422 
z
" clip-path="url(#p8c3ba2b2ea)" style="fill: #2ca02c"/>
   </g>
   <g id="patch_36">
    <path d="M 741.677057 251.317812 
L 762.716489 251.317812 
L 762.716489 136.048809 
L 741.677057 136.048809 
z
" clip-path="url(#p8c3ba2b2ea)" style="fill: #2ca02c"/>
   </g>
   <g id="patch_37">
    <path d="M 810.05521 251.317812 
L 831.094642 251.317812 
L 831.094642 137.800109 
L 810.05521 137.800109 
z
" clip-path="url(#p8c3ba2b2ea)" style="fill: #2ca02c"/>
   </g>
   <g id="matplotlib.axis_3">
    <g id="xtick_6">
     <g id="line2d_14">
      <g>
       <use xlink:href="#m487ad904c0" x="526.022881" y="251.317812" style="stroke: #000000; stroke-width: 0.8"/>
      </g>
     </g>
     <g id="text_31">
      <!-- $ð›¼_R$ = 0.0 -->
      <g transform="translate(501.302881 267.435937) scale(0.12 -0.12)">
       <use xlink:href="#STIXGeneral-Regular-1d6fc" transform="translate(0 0.78125)"/>
       <use xlink:href="#DejaVuSans-Oblique-52" transform="translate(53.357025 -15.625) scale(0.7)"/>
       <use xlink:href="#DejaVuSans-20" transform="translate(104.729095 0.78125)"/>
       <use xlink:href="#DejaVuSans-3d" transform="translate(136.516205 0.78125)"/>
       <use xlink:href="#DejaVuSans-20" transform="translate(220.305267 0.78125)"/>
       <use xlink:href="#DejaVuSans-30" transform="translate(252.092377 0.78125)"/>
       <use xlink:href="#DejaVuSans-2e" transform="translate(315.715424 0.78125)"/>
       <use xlink:href="#DejaVuSans-30" transform="translate(347.502533 0.78125)"/>
      </g>
     </g>
    </g>
    <g id="xtick_7">
     <g id="line2d_15">
      <g>
       <use xlink:href="#m487ad904c0" x="594.401034" y="251.317812" style="stroke: #000000; stroke-width: 0.8"/>
      </g>
     </g>
     <g id="text_32">
      <!-- $ð›¼_R$ = 0.25 -->
      <g transform="translate(566.201034 267.435937) scale(0.12 -0.12)">
       <use xlink:href="#STIXGeneral-Regular-1d6fc" transform="translate(0 0.78125)"/>
       <use xlink:href="#DejaVuSans-Oblique-52" transform="translate(53.357025 -15.625) scale(0.7)"/>
       <use xlink:href="#DejaVuSans-20" transform="translate(104.729095 0.78125)"/>
       <use xlink:href="#DejaVuSans-3d" transform="translate(136.516205 0.78125)"/>
       <use xlink:href="#DejaVuSans-20" transform="translate(220.305267 0.78125)"/>
       <use xlink:href="#DejaVuSans-30" transform="translate(252.092377 0.78125)"/>
       <use xlink:href="#DejaVuSans-2e" transform="translate(315.715424 0.78125)"/>
       <use xlink:href="#DejaVuSans-32" transform="translate(342.002533 0.78125)"/>
       <use xlink:href="#DejaVuSans-35" transform="translate(405.62558 0.78125)"/>
      </g>
     </g>
    </g>
    <g id="xtick_8">
     <g id="line2d_16">
      <g>
       <use xlink:href="#m487ad904c0" x="662.779188" y="251.317812" style="stroke: #000000; stroke-width: 0.8"/>
      </g>
     </g>
     <g id="text_33">
      <!-- $ð›¼_R$ = 0.5 -->
      <g transform="translate(638.059188 267.435937) scale(0.12 -0.12)">
       <use xlink:href="#STIXGeneral-Regular-1d6fc" transform="translate(0 0.78125)"/>
       <use xlink:href="#DejaVuSans-Oblique-52" transform="translate(53.357025 -15.625) scale(0.7)"/>
       <use xlink:href="#DejaVuSans-20" transform="translate(104.729095 0.78125)"/>
       <use xlink:href="#DejaVuSans-3d" transform="translate(136.516205 0.78125)"/>
       <use xlink:href="#DejaVuSans-20" transform="translate(220.305267 0.78125)"/>
       <use xlink:href="#DejaVuSans-30" transform="translate(252.092377 0.78125)"/>
       <use xlink:href="#DejaVuSans-2e" transform="translate(315.715424 0.78125)"/>
       <use xlink:href="#DejaVuSans-35" transform="translate(347.502533 0.78125)"/>
      </g>
     </g>
    </g>
    <g id="xtick_9">
     <g id="line2d_17">
      <g>
       <use xlink:href="#m487ad904c0" x="731.157341" y="251.317812" style="stroke: #000000; stroke-width: 0.8"/>
      </g>
     </g>
     <g id="text_34">
      <!-- $ð›¼_R$ = 0.75 -->
      <g transform="translate(703.137341 267.435937) scale(0.12 -0.12)">
       <use xlink:href="#STIXGeneral-Regular-1d6fc" transform="translate(0 0.78125)"/>
       <use xlink:href="#DejaVuSans-Oblique-52" transform="translate(53.357025 -15.625) scale(0.7)"/>
       <use xlink:href="#DejaVuSans-20" transform="translate(104.729095 0.78125)"/>
       <use xlink:href="#DejaVuSans-3d" transform="translate(136.516205 0.78125)"/>
       <use xlink:href="#DejaVuSans-20" transform="translate(220.305267 0.78125)"/>
       <use xlink:href="#DejaVuSans-30" transform="translate(252.092377 0.78125)"/>
       <use xlink:href="#DejaVuSans-2e" transform="translate(315.715424 0.78125)"/>
       <use xlink:href="#DejaVuSans-37" transform="translate(339.752533 0.78125)"/>
       <use xlink:href="#DejaVuSans-35" transform="translate(403.37558 0.78125)"/>
      </g>
     </g>
    </g>
    <g id="xtick_10">
     <g id="line2d_18">
      <g>
       <use xlink:href="#m487ad904c0" x="799.535494" y="251.317812" style="stroke: #000000; stroke-width: 0.8"/>
      </g>
     </g>
     <g id="text_35">
      <!-- $ð›¼_R$ = 1.0 -->
      <g transform="translate(774.815494 267.435937) scale(0.12 -0.12)">
       <use xlink:href="#STIXGeneral-Regular-1d6fc" transform="translate(0 0.78125)"/>
       <use xlink:href="#DejaVuSans-Oblique-52" transform="translate(53.357025 -15.625) scale(0.7)"/>
       <use xlink:href="#DejaVuSans-20" transform="translate(104.729095 0.78125)"/>
       <use xlink:href="#DejaVuSans-3d" transform="translate(136.516205 0.78125)"/>
       <use xlink:href="#DejaVuSans-20" transform="translate(220.305267 0.78125)"/>
       <use xlink:href="#DejaVuSans-31" transform="translate(252.092377 0.78125)"/>
       <use xlink:href="#DejaVuSans-2e" transform="translate(315.715424 0.78125)"/>
       <use xlink:href="#DejaVuSans-30" transform="translate(347.502533 0.78125)"/>
      </g>
     </g>
    </g>
   </g>
   <g id="matplotlib.axis_4">
    <g id="ytick_9">
     <g id="line2d_19">
      <g>
       <use xlink:href="#m85a356d0d1" x="477.632187" y="251.317812" style="stroke: #000000; stroke-width: 0.8"/>
      </g>
     </g>
     <g id="text_36">
      <!-- 0K -->
      <g transform="translate(457.711875 255.117031) scale(0.1 -0.1)">
       <use xlink:href="#DejaVuSans-30"/>
       <use xlink:href="#DejaVuSans-4b" x="63.623047"/>
      </g>
     </g>
    </g>
    <g id="ytick_10">
     <g id="line2d_20">
      <g>
       <use xlink:href="#m85a356d0d1" x="477.632187" y="223.408656" style="stroke: #000000; stroke-width: 0.8"/>
      </g>
     </g>
     <g id="text_37">
      <!-- 10K -->
      <g transform="translate(451.349375 227.207875) scale(0.1 -0.1)">
       <use xlink:href="#DejaVuSans-31"/>
       <use xlink:href="#DejaVuSans-30" x="63.623047"/>
       <use xlink:href="#DejaVuSans-4b" x="127.246094"/>
      </g>
     </g>
    </g>
    <g id="ytick_11">
     <g id="line2d_21">
      <g>
       <use xlink:href="#m85a356d0d1" x="477.632187" y="195.499499" style="stroke: #000000; stroke-width: 0.8"/>
      </g>
     </g>
     <g id="text_38">
      <!-- 20K -->
      <g transform="translate(451.349375 199.298718) scale(0.1 -0.1)">
       <use xlink:href="#DejaVuSans-32"/>
       <use xlink:href="#DejaVuSans-30" x="63.623047"/>
       <use xlink:href="#DejaVuSans-4b" x="127.246094"/>
      </g>
     </g>
    </g>
    <g id="ytick_12">
     <g id="line2d_22">
      <g>
       <use xlink:href="#m85a356d0d1" x="477.632187" y="167.590343" style="stroke: #000000; stroke-width: 0.8"/>
      </g>
     </g>
     <g id="text_39">
      <!-- 30K -->
      <g transform="translate(451.349375 171.389561) scale(0.1 -0.1)">
       <use xlink:href="#DejaVuSans-33"/>
       <use xlink:href="#DejaVuSans-30" x="63.623047"/>
       <use xlink:href="#DejaVuSans-4b" x="127.246094"/>
      </g>
     </g>
    </g>
    <g id="ytick_13">
     <g id="line2d_23">
      <g>
       <use xlink:href="#m85a356d0d1" x="477.632187" y="139.681186" style="stroke: #000000; stroke-width: 0.8"/>
      </g>
     </g>
     <g id="text_40">
      <!-- 40K -->
      <g transform="translate(451.349375 143.480405) scale(0.1 -0.1)">
       <defs>
        <path id="DejaVuSans-34" d="M 2419 4116 
L 825 1625 
L 2419 1625 
L 2419 4116 
z
M 2253 4666 
L 3047 4666 
L 3047 1625 
L 3713 1625 
L 3713 1100 
L 3047 1100 
L 3047 0 
L 2419 0 
L 2419 1100 
L 313 1100 
L 313 1709 
L 2253 4666 
z
" transform="scale(0.015625)"/>
       </defs>
       <use xlink:href="#DejaVuSans-34"/>
       <use xlink:href="#DejaVuSans-30" x="63.623047"/>
       <use xlink:href="#DejaVuSans-4b" x="127.246094"/>
      </g>
     </g>
    </g>
    <g id="ytick_14">
     <g id="line2d_24">
      <g>
       <use xlink:href="#m85a356d0d1" x="477.632187" y="111.772029" style="stroke: #000000; stroke-width: 0.8"/>
      </g>
     </g>
     <g id="text_41">
      <!-- 50K -->
      <g transform="translate(451.349375 115.571248) scale(0.1 -0.1)">
       <use xlink:href="#DejaVuSans-35"/>
       <use xlink:href="#DejaVuSans-30" x="63.623047"/>
       <use xlink:href="#DejaVuSans-4b" x="127.246094"/>
      </g>
     </g>
    </g>
    <g id="ytick_15">
     <g id="line2d_25">
      <g>
       <use xlink:href="#m85a356d0d1" x="477.632187" y="83.862873" style="stroke: #000000; stroke-width: 0.8"/>
      </g>
     </g>
     <g id="text_42">
      <!-- 60K -->
      <g transform="translate(451.349375 87.662092) scale(0.1 -0.1)">
       <defs>
        <path id="DejaVuSans-36" d="M 2113 2584 
Q 1688 2584 1439 2293 
Q 1191 2003 1191 1497 
Q 1191 994 1439 701 
Q 1688 409 2113 409 
Q 2538 409 2786 701 
Q 3034 994 3034 1497 
Q 3034 2003 2786 2293 
Q 2538 2584 2113 2584 
z
M 3366 4563 
L 3366 3988 
Q 3128 4100 2886 4159 
Q 2644 4219 2406 4219 
Q 1781 4219 1451 3797 
Q 1122 3375 1075 2522 
Q 1259 2794 1537 2939 
Q 1816 3084 2150 3084 
Q 2853 3084 3261 2657 
Q 3669 2231 3669 1497 
Q 3669 778 3244 343 
Q 2819 -91 2113 -91 
Q 1303 -91 875 529 
Q 447 1150 447 2328 
Q 447 3434 972 4092 
Q 1497 4750 2381 4750 
Q 2619 4750 2861 4703 
Q 3103 4656 3366 4563 
z
" transform="scale(0.015625)"/>
       </defs>
       <use xlink:href="#DejaVuSans-36"/>
       <use xlink:href="#DejaVuSans-30" x="63.623047"/>
       <use xlink:href="#DejaVuSans-4b" x="127.246094"/>
      </g>
     </g>
    </g>
    <g id="ytick_16">
     <g id="line2d_26">
      <g>
       <use xlink:href="#m85a356d0d1" x="477.632187" y="55.953716" style="stroke: #000000; stroke-width: 0.8"/>
      </g>
     </g>
     <g id="text_43">
      <!-- 70K -->
      <g transform="translate(451.349375 59.752935) scale(0.1 -0.1)">
       <use xlink:href="#DejaVuSans-37"/>
       <use xlink:href="#DejaVuSans-30" x="63.623047"/>
       <use xlink:href="#DejaVuSans-4b" x="127.246094"/>
      </g>
     </g>
    </g>
    <g id="ytick_17">
     <g id="line2d_27">
      <g>
       <use xlink:href="#m85a356d0d1" x="477.632187" y="28.04456" style="stroke: #000000; stroke-width: 0.8"/>
      </g>
     </g>
     <g id="text_44">
      <!-- 80K -->
      <g transform="translate(451.349375 31.843778) scale(0.1 -0.1)">
       <defs>
        <path id="DejaVuSans-38" d="M 2034 2216 
Q 1584 2216 1326 1975 
Q 1069 1734 1069 1313 
Q 1069 891 1326 650 
Q 1584 409 2034 409 
Q 2484 409 2743 651 
Q 3003 894 3003 1313 
Q 3003 1734 2745 1975 
Q 2488 2216 2034 2216 
z
M 1403 2484 
Q 997 2584 770 2862 
Q 544 3141 544 3541 
Q 544 4100 942 4425 
Q 1341 4750 2034 4750 
Q 2731 4750 3128 4425 
Q 3525 4100 3525 3541 
Q 3525 3141 3298 2862 
Q 3072 2584 2669 2484 
Q 3125 2378 3379 2068 
Q 3634 1759 3634 1313 
Q 3634 634 3220 271 
Q 2806 -91 2034 -91 
Q 1263 -91 848 271 
Q 434 634 434 1313 
Q 434 1759 690 2068 
Q 947 2378 1403 2484 
z
M 1172 3481 
Q 1172 3119 1398 2916 
Q 1625 2713 2034 2713 
Q 2441 2713 2670 2916 
Q 2900 3119 2900 3481 
Q 2900 3844 2670 4047 
Q 2441 4250 2034 4250 
Q 1625 4250 1398 4047 
Q 1172 3844 1172 3481 
z
" transform="scale(0.015625)"/>
       </defs>
       <use xlink:href="#DejaVuSans-38"/>
       <use xlink:href="#DejaVuSans-30" x="63.623047"/>
       <use xlink:href="#DejaVuSans-4b" x="127.246094"/>
      </g>
     </g>
    </g>
    <g id="text_45">
     <!-- $R_t$ -->
     <g transform="translate(444.437812 144.577812) rotate(-90) scale(0.14 -0.14)">
      <use xlink:href="#DejaVuSans-Oblique-52" transform="translate(0 0.09375)"/>
      <use xlink:href="#DejaVuSans-Oblique-74" transform="translate(69.482422 -16.3125) scale(0.7)"/>
     </g>
    </g>
   </g>
   <g id="patch_38">
    <path d="M 477.632187 251.317812 
L 477.632187 23.837812 
" style="fill: none; stroke: #000000; stroke-width: 0.8; stroke-linejoin: miter; stroke-linecap: square"/>
   </g>
   <g id="patch_39">
    <path d="M 847.926188 251.317812 
L 847.926188 23.837812 
" style="fill: none; stroke: #000000; stroke-width: 0.8; stroke-linejoin: miter; stroke-linecap: square"/>
   </g>
   <g id="patch_40">
    <path d="M 477.632187 251.317812 
L 847.926188 251.317812 
" style="fill: none; stroke: #000000; stroke-width: 0.8; stroke-linejoin: miter; stroke-linecap: square"/>
   </g>
   <g id="patch_41">
    <path d="M 477.632187 23.837812 
L 847.926188 23.837812 
" style="fill: none; stroke: #000000; stroke-width: 0.8; stroke-linejoin: miter; stroke-linecap: square"/>
   </g>
   <g id="text_46">
    <!-- 76.1K  -->
    <g style="fill: #ffffff" transform="translate(508.294699 82.133806) rotate(-90) scale(0.12 -0.12)">
     <use xlink:href="#DejaVuSans-Bold-37"/>
     <use xlink:href="#DejaVuSans-Bold-36" x="69.580078"/>
     <use xlink:href="#DejaVuSans-Bold-2e" x="139.160156"/>
     <use xlink:href="#DejaVuSans-Bold-31" x="177.148438"/>
     <use xlink:href="#DejaVuSans-Bold-4b" x="246.728516"/>
     <use xlink:href="#DejaVuSans-Bold-20" x="324.21875"/>
    </g>
   </g>
   <g id="text_47">
    <!-- 72.3K  -->
    <g style="fill: #ffffff" transform="translate(576.672852 92.511826) rotate(-90) scale(0.12 -0.12)">
     <use xlink:href="#DejaVuSans-Bold-37"/>
     <use xlink:href="#DejaVuSans-Bold-32" x="69.580078"/>
     <use xlink:href="#DejaVuSans-Bold-2e" x="139.160156"/>
     <use xlink:href="#DejaVuSans-Bold-33" x="177.148438"/>
     <use xlink:href="#DejaVuSans-Bold-4b" x="246.728516"/>
     <use xlink:href="#DejaVuSans-Bold-20" x="324.21875"/>
    </g>
   </g>
   <g id="text_48">
    <!-- 56.9K  -->
    <g style="fill: #ffffff" transform="translate(645.051006 135.688687) rotate(-90) scale(0.12 -0.12)">
     <use xlink:href="#DejaVuSans-Bold-35"/>
     <use xlink:href="#DejaVuSans-Bold-36" x="69.580078"/>
     <use xlink:href="#DejaVuSans-Bold-2e" x="139.160156"/>
     <use xlink:href="#DejaVuSans-Bold-39" x="177.148438"/>
     <use xlink:href="#DejaVuSans-Bold-4b" x="246.728516"/>
     <use xlink:href="#DejaVuSans-Bold-20" x="324.21875"/>
    </g>
   </g>
   <g id="text_49">
    <!-- 38.0K  -->
    <g style="fill: #ffffff" transform="translate(713.429159 188.379779) rotate(-90) scale(0.12 -0.12)">
     <use xlink:href="#DejaVuSans-Bold-33"/>
     <use xlink:href="#DejaVuSans-Bold-38" x="69.580078"/>
     <use xlink:href="#DejaVuSans-Bold-2e" x="139.160156"/>
     <use xlink:href="#DejaVuSans-Bold-30" x="177.148438"/>
     <use xlink:href="#DejaVuSans-Bold-4b" x="246.728516"/>
     <use xlink:href="#DejaVuSans-Bold-20" x="324.21875"/>
    </g>
   </g>
   <g id="text_50">
    <!-- 38.2K  -->
    <g style="fill: #ffffff" transform="translate(781.807313 187.811828) rotate(-90) scale(0.12 -0.12)">
     <use xlink:href="#DejaVuSans-Bold-33"/>
     <use xlink:href="#DejaVuSans-Bold-38" x="69.580078"/>
     <use xlink:href="#DejaVuSans-Bold-2e" x="139.160156"/>
     <use xlink:href="#DejaVuSans-Bold-32" x="177.148438"/>
     <use xlink:href="#DejaVuSans-Bold-4b" x="246.728516"/>
     <use xlink:href="#DejaVuSans-Bold-20" x="324.21875"/>
    </g>
   </g>
   <g id="text_51">
    <!-- 51.6K  -->
    <g style="fill: #ffffff" transform="translate(529.334131 150.514031) rotate(-90) scale(0.12 -0.12)">
     <use xlink:href="#DejaVuSans-Bold-35"/>
     <use xlink:href="#DejaVuSans-Bold-31" x="69.580078"/>
     <use xlink:href="#DejaVuSans-Bold-2e" x="139.160156"/>
     <use xlink:href="#DejaVuSans-Bold-36" x="177.148438"/>
     <use xlink:href="#DejaVuSans-Bold-4b" x="246.728516"/>
     <use xlink:href="#DejaVuSans-Bold-20" x="324.21875"/>
    </g>
   </g>
   <g id="text_52">
    <!-- 69.2K  -->
    <g style="fill: #ffffff" transform="translate(597.712284 101.248787) rotate(-90) scale(0.12 -0.12)">
     <use xlink:href="#DejaVuSans-Bold-36"/>
     <use xlink:href="#DejaVuSans-Bold-39" x="69.580078"/>
     <use xlink:href="#DejaVuSans-Bold-2e" x="139.160156"/>
     <use xlink:href="#DejaVuSans-Bold-32" x="177.148438"/>
     <use xlink:href="#DejaVuSans-Bold-4b" x="246.728516"/>
     <use xlink:href="#DejaVuSans-Bold-20" x="324.21875"/>
    </g>
   </g>
   <g id="text_53">
    <!-- 57.5K  -->
    <g style="fill: #ffffff" transform="translate(666.090438 133.955528) rotate(-90) scale(0.12 -0.12)">
     <use xlink:href="#DejaVuSans-Bold-35"/>
     <use xlink:href="#DejaVuSans-Bold-37" x="69.580078"/>
     <use xlink:href="#DejaVuSans-Bold-2e" x="139.160156"/>
     <use xlink:href="#DejaVuSans-Bold-35" x="177.148438"/>
     <use xlink:href="#DejaVuSans-Bold-4b" x="246.728516"/>
     <use xlink:href="#DejaVuSans-Bold-20" x="324.21875"/>
    </g>
   </g>
   <g id="text_54">
    <!-- 47.0K  -->
    <g style="fill: #ffffff" transform="translate(734.468591 163.342474) rotate(-90) scale(0.12 -0.12)">
     <use xlink:href="#DejaVuSans-Bold-34"/>
     <use xlink:href="#DejaVuSans-Bold-37" x="69.580078"/>
     <use xlink:href="#DejaVuSans-Bold-2e" x="139.160156"/>
     <use xlink:href="#DejaVuSans-Bold-30" x="177.148438"/>
     <use xlink:href="#DejaVuSans-Bold-4b" x="246.728516"/>
     <use xlink:href="#DejaVuSans-Bold-20" x="324.21875"/>
    </g>
   </g>
   <g id="text_55">
    <!-- 40.5K  -->
    <g style="fill: #ffffff" transform="translate(802.846744 181.268526) rotate(-90) scale(0.12 -0.12)">
     <use xlink:href="#DejaVuSans-Bold-34"/>
     <use xlink:href="#DejaVuSans-Bold-30" x="69.580078"/>
     <use xlink:href="#DejaVuSans-Bold-2e" x="139.160156"/>
     <use xlink:href="#DejaVuSans-Bold-35" x="177.148438"/>
     <use xlink:href="#DejaVuSans-Bold-4b" x="246.728516"/>
     <use xlink:href="#DejaVuSans-Bold-20" x="324.21875"/>
    </g>
   </g>
   <g id="text_56">
    <!-- 64.6K  -->
    <g style="fill: #ffffff" transform="translate(550.373562 114.057695) rotate(-90) scale(0.12 -0.12)">
     <use xlink:href="#DejaVuSans-Bold-36"/>
     <use xlink:href="#DejaVuSans-Bold-34" x="69.580078"/>
     <use xlink:href="#DejaVuSans-Bold-2e" x="139.160156"/>
     <use xlink:href="#DejaVuSans-Bold-36" x="177.148438"/>
     <use xlink:href="#DejaVuSans-Bold-4b" x="246.728516"/>
     <use xlink:href="#DejaVuSans-Bold-20" x="324.21875"/>
    </g>
   </g>
   <g id="text_57">
    <!-- 77.6K  -->
    <g style="fill: #ffffff" transform="translate(618.751716 77.752068) rotate(-90) scale(0.12 -0.12)">
     <use xlink:href="#DejaVuSans-Bold-37"/>
     <use xlink:href="#DejaVuSans-Bold-37" x="69.580078"/>
     <use xlink:href="#DejaVuSans-Bold-2e" x="139.160156"/>
     <use xlink:href="#DejaVuSans-Bold-36" x="177.148438"/>
     <use xlink:href="#DejaVuSans-Bold-4b" x="246.728516"/>
     <use xlink:href="#DejaVuSans-Bold-20" x="324.21875"/>
    </g>
   </g>
   <g id="text_58">
    <!-- 40.7K  -->
    <g style="fill: #ffffff" transform="translate(687.129869 180.724297) rotate(-90) scale(0.12 -0.12)">
     <use xlink:href="#DejaVuSans-Bold-34"/>
     <use xlink:href="#DejaVuSans-Bold-30" x="69.580078"/>
     <use xlink:href="#DejaVuSans-Bold-2e" x="139.160156"/>
     <use xlink:href="#DejaVuSans-Bold-37" x="177.148438"/>
     <use xlink:href="#DejaVuSans-Bold-4b" x="246.728516"/>
     <use xlink:href="#DejaVuSans-Bold-20" x="324.21875"/>
    </g>
   </g>
   <g id="text_59">
    <!-- 41.3K  -->
    <g style="fill: #ffffff" transform="translate(755.508023 179.130684) rotate(-90) scale(0.12 -0.12)">
     <use xlink:href="#DejaVuSans-Bold-34"/>
     <use xlink:href="#DejaVuSans-Bold-31" x="69.580078"/>
     <use xlink:href="#DejaVuSans-Bold-2e" x="139.160156"/>
     <use xlink:href="#DejaVuSans-Bold-33" x="177.148438"/>
     <use xlink:href="#DejaVuSans-Bold-4b" x="246.728516"/>
     <use xlink:href="#DejaVuSans-Bold-20" x="324.21875"/>
    </g>
   </g>
   <g id="text_60">
    <!-- 40.7K  -->
    <g style="fill: #ffffff" transform="translate(823.886176 180.881984) rotate(-90) scale(0.12 -0.12)">
     <use xlink:href="#DejaVuSans-Bold-34"/>
     <use xlink:href="#DejaVuSans-Bold-30" x="69.580078"/>
     <use xlink:href="#DejaVuSans-Bold-2e" x="139.160156"/>
     <use xlink:href="#DejaVuSans-Bold-37" x="177.148438"/>
     <use xlink:href="#DejaVuSans-Bold-4b" x="246.728516"/>
     <use xlink:href="#DejaVuSans-Bold-20" x="324.21875"/>
    </g>
   </g>
   <g id="text_61">
    <!-- User Count, $N$ = 2000 -->
    <g transform="translate(585.989188 17.837812) scale(0.14 -0.14)">
     <use xlink:href="#DejaVuSans-55" transform="translate(0 0.78125)"/>
     <use xlink:href="#DejaVuSans-73" transform="translate(73.193359 0.78125)"/>
     <use xlink:href="#DejaVuSans-65" transform="translate(125.292969 0.78125)"/>
     <use xlink:href="#DejaVuSans-72" transform="translate(186.816406 0.78125)"/>
     <use xlink:href="#DejaVuSans-20" transform="translate(227.929688 0.78125)"/>
     <use xlink:href="#DejaVuSans-43" transform="translate(259.716797 0.78125)"/>
     <use xlink:href="#DejaVuSans-6f" transform="translate(329.541016 0.78125)"/>
     <use xlink:href="#DejaVuSans-75" transform="translate(390.722656 0.78125)"/>
     <use xlink:href="#DejaVuSans-6e" transform="translate(454.101562 0.78125)"/>
     <use xlink:href="#DejaVuSans-74" transform="translate(517.480469 0.78125)"/>
     <use xlink:href="#DejaVuSans-2c" transform="translate(556.689453 0.78125)"/>
     <use xlink:href="#DejaVuSans-20" transform="translate(588.476562 0.78125)"/>
     <use xlink:href="#DejaVuSans-Oblique-4e" transform="translate(620.263672 0.78125)"/>
     <use xlink:href="#DejaVuSans-20" transform="translate(695.068359 0.78125)"/>
     <use xlink:href="#DejaVuSans-3d" transform="translate(726.855469 0.78125)"/>
     <use xlink:href="#DejaVuSans-20" transform="translate(810.644531 0.78125)"/>
     <use xlink:href="#DejaVuSans-32" transform="translate(842.431641 0.78125)"/>
     <use xlink:href="#DejaVuSans-30" transform="translate(906.054688 0.78125)"/>
     <use xlink:href="#DejaVuSans-30" transform="translate(969.677734 0.78125)"/>
     <use xlink:href="#DejaVuSans-30" transform="translate(1033.300781 0.78125)"/>
    </g>
   </g>
  </g>
  <g id="legend_1">
   <g id="patch_42">
    <path d="M 286.029 310.731562 
L 567.423375 310.731562 
Q 569.823375 310.731562 569.823375 308.331562 
L 569.823375 291.917812 
Q 569.823375 289.517812 567.423375 289.517812 
L 286.029 289.517812 
Q 283.629 289.517812 283.629 291.917812 
L 283.629 308.331562 
Q 283.629 310.731562 286.029 310.731562 
z
" style="fill: #ffffff; opacity: 0.8; stroke: #cccccc; stroke-linejoin: miter"/>
   </g>
   <g id="patch_43">
    <path d="M 288.429 303.435937 
L 312.429 303.435937 
L 312.429 295.035937 
L 288.429 295.035937 
z
" style="fill: #1f77b4"/>
   </g>
   <g id="text_62">
    <!-- Î³ = 0 -->
    <g transform="translate(322.029 303.435937) scale(0.12 -0.12)">
     <defs>
      <path id="DejaVuSans-3b3" d="M 1128 2950 
L 1894 788 
L 2988 3500 
L 3597 3500 
L 2181 0 
L 2181 -1331 
L 1606 -1331 
L 1606 0 
L 688 2613 
Q 550 3006 253 3006 
L 100 3006 
L 100 3500 
L 319 3500 
Q 934 3500 1128 2950 
z
" transform="scale(0.015625)"/>
     </defs>
     <use xlink:href="#DejaVuSans-3b3"/>
     <use xlink:href="#DejaVuSans-20" x="59.179688"/>
     <use xlink:href="#DejaVuSans-3d" x="90.966797"/>
     <use xlink:href="#DejaVuSans-20" x="174.755859"/>
     <use xlink:href="#DejaVuSans-30" x="206.542969"/>
    </g>
   </g>
   <g id="patch_44">
    <path d="M 378.449625 303.435937 
L 402.449625 303.435937 
L 402.449625 295.035937 
L 378.449625 295.035937 
z
" style="fill: #ff7f0e"/>
   </g>
   <g id="text_63">
    <!-- Î³ = 0.25 -->
    <g transform="translate(412.049625 303.435937) scale(0.12 -0.12)">
     <use xlink:href="#DejaVuSans-3b3"/>
     <use xlink:href="#DejaVuSans-20" x="59.179688"/>
     <use xlink:href="#DejaVuSans-3d" x="90.966797"/>
     <use xlink:href="#DejaVuSans-20" x="174.755859"/>
     <use xlink:href="#DejaVuSans-30" x="206.542969"/>
     <use xlink:href="#DejaVuSans-2e" x="270.166016"/>
     <use xlink:href="#DejaVuSans-32" x="301.953125"/>
     <use xlink:href="#DejaVuSans-35" x="365.576172"/>
    </g>
   </g>
   <g id="patch_45">
    <path d="M 487.554 303.435937 
L 511.554 303.435937 
L 511.554 295.035937 
L 487.554 295.035937 
z
" style="fill: #2ca02c"/>
   </g>
   <g id="text_64">
    <!-- Î³ = 0.5 -->
    <g transform="translate(521.154 303.435937) scale(0.12 -0.12)">
     <use xlink:href="#DejaVuSans-3b3"/>
     <use xlink:href="#DejaVuSans-20" x="59.179688"/>
     <use xlink:href="#DejaVuSans-3d" x="90.966797"/>
     <use xlink:href="#DejaVuSans-20" x="174.755859"/>
     <use xlink:href="#DejaVuSans-30" x="206.542969"/>
     <use xlink:href="#DejaVuSans-2e" x="270.166016"/>
     <use xlink:href="#DejaVuSans-35" x="301.953125"/>
    </g>
   </g>
  </g>
 </g>
 <defs>
  <clipPath id="pefb9bbaa9f">
   <rect x="51.032188" y="23.837812" width="370.294" height="227.48"/>
  </clipPath>
  <clipPath id="p8c3ba2b2ea">
   <rect x="477.632187" y="23.837812" width="370.294" height="227.48"/>
  </clipPath>
 </defs>
</svg>
