<?xml version="1.0" encoding="utf-8" standalone="no"?>
<!DOCTYPE svg PUBLIC "-//W3C//DTD SVG 1.1//EN"
  "http://www.w3.org/Graphics/SVG/1.1/DTD/svg11.dtd">
<svg xmlns:xlink="http://www.w3.org/1999/xlink" width="855.126187pt" height="335.098116pt" viewBox="0 0 855.126187 335.098116" xmlns="http://www.w3.org/2000/svg" version="1.1">
 <metadata>
  <rdf:RDF xmlns:dc="http://purl.org/dc/elements/1.1/" xmlns:cc="http://creativecommons.org/ns#" xmlns:rdf="http://www.w3.org/1999/02/22-rdf-syntax-ns#">
   <cc:Work>
    <dc:type rdf:resource="http://purl.org/dc/dcmitype/StillImage"/>
    <dc:date>2024-03-15T10:16:32.626948</dc:date>
    <dc:format>image/svg+xml</dc:format>
    <dc:creator>
     <cc:Agent>
      <dc:title>Matplotlib v3.8.2, https://matplotlib.org/</dc:title>
     </cc:Agent>
    </dc:creator>
   </cc:Work>
  </rdf:RDF>
 </metadata>
 <defs>
  <style type="text/css">*{stroke-linejoin: round; stroke-linecap: butt}</style>
 </defs>
 <g id="figure_1">
  <g id="patch_1">
   <path d="M 0 335.098116 
L 855.126187 335.098116 
L 855.126187 0 
L 0 0 
z
" style="fill: #ffffff"/>
  </g>
  <g id="axes_1">
   <g id="patch_2">
    <path d="M 51.032188 256.055303 
L 583.585045 256.055303 
L 583.585045 9.521224 
L 51.032188 9.521224 
z
" style="fill: #ffffff"/>
   </g>
   <g id="patch_3">
    <path d="M 75.239136 256.055303 
L 97.757227 256.055303 
L 97.757227 147.118684 
L 75.239136 147.118684 
z
" clip-path="url(#pbdeadb9a10)" style="fill: #1f77b4"/>
   </g>
   <g id="patch_4">
    <path d="M 199.088637 256.055303 
L 221.606728 256.055303 
L 221.606728 38.640524 
L 199.088637 38.640524 
z
" clip-path="url(#pbdeadb9a10)" style="fill: #1f77b4"/>
   </g>
   <g id="patch_5">
    <path d="M 322.938139 256.055303 
L 345.45623 256.055303 
L 345.45623 21.260942 
L 322.938139 21.260942 
z
" clip-path="url(#pbdeadb9a10)" style="fill: #1f77b4"/>
   </g>
   <g id="patch_6">
    <path d="M 446.787641 256.055303 
L 469.305732 256.055303 
L 469.305732 23.080484 
L 446.787641 23.080484 
z
" clip-path="url(#pbdeadb9a10)" style="fill: #1f77b4"/>
   </g>
   <g id="patch_7">
    <path d="M 97.757227 256.055303 
L 120.275318 256.055303 
L 120.275318 154.079808 
L 97.757227 154.079808 
z
" clip-path="url(#pbdeadb9a10)" style="fill: #ff7f0e"/>
   </g>
   <g id="patch_8">
    <path d="M 221.606728 256.055303 
L 244.12482 256.055303 
L 244.12482 53.217277 
L 221.606728 53.217277 
z
" clip-path="url(#pbdeadb9a10)" style="fill: #ff7f0e"/>
   </g>
   <g id="patch_9">
    <path d="M 345.45623 256.055303 
L 367.974321 256.055303 
L 367.974321 46.622715 
L 345.45623 46.622715 
z
" clip-path="url(#pbdeadb9a10)" style="fill: #ff7f0e"/>
   </g>
   <g id="patch_10">
    <path d="M 469.305732 256.055303 
L 491.823823 256.055303 
L 491.823823 34.470997 
L 469.305732 34.470997 
z
" clip-path="url(#pbdeadb9a10)" style="fill: #ff7f0e"/>
   </g>
   <g id="patch_11">
    <path d="M 120.275318 256.055303 
L 142.793409 256.055303 
L 142.793409 165.213013 
L 120.275318 165.213013 
z
" clip-path="url(#pbdeadb9a10)" style="fill: #2ca02c"/>
   </g>
   <g id="patch_12">
    <path d="M 244.12482 256.055303 
L 266.642911 256.055303 
L 266.642911 101.866015 
L 244.12482 101.866015 
z
" clip-path="url(#pbdeadb9a10)" style="fill: #2ca02c"/>
   </g>
   <g id="patch_13">
    <path d="M 367.974321 256.055303 
L 390.492413 256.055303 
L 390.492413 88.392525 
L 367.974321 88.392525 
z
" clip-path="url(#pbdeadb9a10)" style="fill: #2ca02c"/>
   </g>
   <g id="patch_14">
    <path d="M 491.823823 256.055303 
L 514.341914 256.055303 
L 514.341914 81.860249 
L 491.823823 81.860249 
z
" clip-path="url(#pbdeadb9a10)" style="fill: #2ca02c"/>
   </g>
   <g id="patch_15">
    <path d="M 142.793409 256.055303 
L 165.3115 256.055303 
L 165.3115 181.068141 
L 142.793409 181.068141 
z
" clip-path="url(#pbdeadb9a10)" style="fill: #d62728"/>
   </g>
   <g id="patch_16">
    <path d="M 266.642911 256.055303 
L 289.161002 256.055303 
L 289.161002 157.84193 
L 266.642911 157.84193 
z
" clip-path="url(#pbdeadb9a10)" style="fill: #d62728"/>
   </g>
   <g id="patch_17">
    <path d="M 390.492413 256.055303 
L 413.010504 256.055303 
L 413.010504 136.109539 
L 390.492413 136.109539 
z
" clip-path="url(#pbdeadb9a10)" style="fill: #d62728"/>
   </g>
   <g id="patch_18">
    <path d="M 514.341914 256.055303 
L 536.860005 256.055303 
L 536.860005 139.691953 
L 514.341914 139.691953 
z
" clip-path="url(#pbdeadb9a10)" style="fill: #d62728"/>
   </g>
   <g id="patch_19">
    <path d="M 165.3115 256.055303 
L 187.829592 256.055303 
L 187.829592 183.713215 
L 165.3115 183.713215 
z
" clip-path="url(#pbdeadb9a10)" style="fill: #9467bd"/>
   </g>
   <g id="patch_20">
    <path d="M 289.161002 256.055303 
L 311.679093 256.055303 
L 311.679093 155.75589 
L 289.161002 155.75589 
z
" clip-path="url(#pbdeadb9a10)" style="fill: #9467bd"/>
   </g>
   <g id="patch_21">
    <path d="M 413.010504 256.055303 
L 435.528595 256.055303 
L 435.528595 149.560055 
L 413.010504 149.560055 
z
" clip-path="url(#pbdeadb9a10)" style="fill: #9467bd"/>
   </g>
   <g id="patch_22">
    <path d="M 536.860005 256.055303 
L 559.378097 256.055303 
L 559.378097 139.068592 
L 536.860005 139.068592 
z
" clip-path="url(#pbdeadb9a10)" style="fill: #9467bd"/>
   </g>
   <g id="matplotlib.axis_1">
    <g id="xtick_1">
     <g id="line2d_1">
      <defs>
       <path id="mbf5d7abfd9" d="M 0 0 
L 0 3.5 
" style="stroke: #000000; stroke-width: 0.8"/>
      </defs>
      <g>
       <use xlink:href="#mbf5d7abfd9" x="131.534364" y="256.055303" style="stroke: #000000; stroke-width: 0.8"/>
      </g>
     </g>
     <g id="text_1">
      <!-- N=50 -->
      <g transform="translate(117.241395 270.653741) scale(0.1 -0.1)">
       <defs>
        <path id="DejaVuSans-4e" d="M 628 4666 
L 1478 4666 
L 3547 763 
L 3547 4666 
L 4159 4666 
L 4159 0 
L 3309 0 
L 1241 3903 
L 1241 0 
L 628 0 
L 628 4666 
z
" transform="scale(0.015625)"/>
        <path id="DejaVuSans-3d" d="M 678 2906 
L 4684 2906 
L 4684 2381 
L 678 2381 
L 678 2906 
z
M 678 1631 
L 4684 1631 
L 4684 1100 
L 678 1100 
L 678 1631 
z
" transform="scale(0.015625)"/>
        <path id="DejaVuSans-35" d="M 691 4666 
L 3169 4666 
L 3169 4134 
L 1269 4134 
L 1269 2991 
Q 1406 3038 1543 3061 
Q 1681 3084 1819 3084 
Q 2600 3084 3056 2656 
Q 3513 2228 3513 1497 
Q 3513 744 3044 326 
Q 2575 -91 1722 -91 
Q 1428 -91 1123 -41 
Q 819 9 494 109 
L 494 744 
Q 775 591 1075 516 
Q 1375 441 1709 441 
Q 2250 441 2565 725 
Q 2881 1009 2881 1497 
Q 2881 1984 2565 2268 
Q 2250 2553 1709 2553 
Q 1456 2553 1204 2497 
Q 953 2441 691 2322 
L 691 4666 
z
" transform="scale(0.015625)"/>
        <path id="DejaVuSans-30" d="M 2034 4250 
Q 1547 4250 1301 3770 
Q 1056 3291 1056 2328 
Q 1056 1369 1301 889 
Q 1547 409 2034 409 
Q 2525 409 2770 889 
Q 3016 1369 3016 2328 
Q 3016 3291 2770 3770 
Q 2525 4250 2034 4250 
z
M 2034 4750 
Q 2819 4750 3233 4129 
Q 3647 3509 3647 2328 
Q 3647 1150 3233 529 
Q 2819 -91 2034 -91 
Q 1250 -91 836 529 
Q 422 1150 422 2328 
Q 422 3509 836 4129 
Q 1250 4750 2034 4750 
z
" transform="scale(0.015625)"/>
       </defs>
       <use xlink:href="#DejaVuSans-4e"/>
       <use xlink:href="#DejaVuSans-3d" x="74.804688"/>
       <use xlink:href="#DejaVuSans-35" x="158.59375"/>
       <use xlink:href="#DejaVuSans-30" x="222.216797"/>
      </g>
     </g>
    </g>
    <g id="xtick_2">
     <g id="line2d_2">
      <g>
       <use xlink:href="#mbf5d7abfd9" x="255.383865" y="256.055303" style="stroke: #000000; stroke-width: 0.8"/>
      </g>
     </g>
     <g id="text_2">
      <!-- N=500 -->
      <g transform="translate(237.909646 270.653741) scale(0.1 -0.1)">
       <use xlink:href="#DejaVuSans-4e"/>
       <use xlink:href="#DejaVuSans-3d" x="74.804688"/>
       <use xlink:href="#DejaVuSans-35" x="158.59375"/>
       <use xlink:href="#DejaVuSans-30" x="222.216797"/>
       <use xlink:href="#DejaVuSans-30" x="285.839844"/>
      </g>
     </g>
    </g>
    <g id="xtick_3">
     <g id="line2d_3">
      <g>
       <use xlink:href="#mbf5d7abfd9" x="379.233367" y="256.055303" style="stroke: #000000; stroke-width: 0.8"/>
      </g>
     </g>
     <g id="text_3">
      <!-- N=1000 -->
      <g transform="translate(358.577898 270.653741) scale(0.1 -0.1)">
       <defs>
        <path id="DejaVuSans-31" d="M 794 531 
L 1825 531 
L 1825 4091 
L 703 3866 
L 703 4441 
L 1819 4666 
L 2450 4666 
L 2450 531 
L 3481 531 
L 3481 0 
L 794 0 
L 794 531 
z
" transform="scale(0.015625)"/>
       </defs>
       <use xlink:href="#DejaVuSans-4e"/>
       <use xlink:href="#DejaVuSans-3d" x="74.804688"/>
       <use xlink:href="#DejaVuSans-31" x="158.59375"/>
       <use xlink:href="#DejaVuSans-30" x="222.216797"/>
       <use xlink:href="#DejaVuSans-30" x="285.839844"/>
       <use xlink:href="#DejaVuSans-30" x="349.462891"/>
      </g>
     </g>
    </g>
    <g id="xtick_4">
     <g id="line2d_4">
      <g>
       <use xlink:href="#mbf5d7abfd9" x="503.082869" y="256.055303" style="stroke: #000000; stroke-width: 0.8"/>
      </g>
     </g>
     <g id="text_4">
      <!-- N=2000 -->
      <g transform="translate(482.4274 270.653741) scale(0.1 -0.1)">
       <defs>
        <path id="DejaVuSans-32" d="M 1228 531 
L 3431 531 
L 3431 0 
L 469 0 
L 469 531 
Q 828 903 1448 1529 
Q 2069 2156 2228 2338 
Q 2531 2678 2651 2914 
Q 2772 3150 2772 3378 
Q 2772 3750 2511 3984 
Q 2250 4219 1831 4219 
Q 1534 4219 1204 4116 
Q 875 4013 500 3803 
L 500 4441 
Q 881 4594 1212 4672 
Q 1544 4750 1819 4750 
Q 2544 4750 2975 4387 
Q 3406 4025 3406 3419 
Q 3406 3131 3298 2873 
Q 3191 2616 2906 2266 
Q 2828 2175 2409 1742 
Q 1991 1309 1228 531 
z
" transform="scale(0.015625)"/>
       </defs>
       <use xlink:href="#DejaVuSans-4e"/>
       <use xlink:href="#DejaVuSans-3d" x="74.804688"/>
       <use xlink:href="#DejaVuSans-32" x="158.59375"/>
       <use xlink:href="#DejaVuSans-30" x="222.216797"/>
       <use xlink:href="#DejaVuSans-30" x="285.839844"/>
       <use xlink:href="#DejaVuSans-30" x="349.462891"/>
      </g>
     </g>
    </g>
   </g>
   <g id="matplotlib.axis_2">
    <g id="ytick_1">
     <g id="line2d_5">
      <defs>
       <path id="m855d1b927b" d="M 0 0 
L -3.5 0 
" style="stroke: #000000; stroke-width: 0.8"/>
      </defs>
      <g>
       <use xlink:href="#m855d1b927b" x="51.032188" y="256.055303" style="stroke: #000000; stroke-width: 0.8"/>
      </g>
     </g>
     <g id="text_5">
      <!-- 0K -->
      <g transform="translate(31.111875 259.854522) scale(0.1 -0.1)">
       <defs>
        <path id="DejaVuSans-4b" d="M 628 4666 
L 1259 4666 
L 1259 2694 
L 3353 4666 
L 4166 4666 
L 1850 2491 
L 4331 0 
L 3500 0 
L 1259 2247 
L 1259 0 
L 628 0 
L 628 4666 
z
" transform="scale(0.015625)"/>
       </defs>
       <use xlink:href="#DejaVuSans-30"/>
       <use xlink:href="#DejaVuSans-4b" x="63.623047"/>
      </g>
     </g>
    </g>
    <g id="ytick_2">
     <g id="line2d_6">
      <g>
       <use xlink:href="#m855d1b927b" x="51.032188" y="225.423293" style="stroke: #000000; stroke-width: 0.8"/>
      </g>
     </g>
     <g id="text_6">
      <!-- 10K -->
      <g transform="translate(24.749375 229.222511) scale(0.1 -0.1)">
       <use xlink:href="#DejaVuSans-31"/>
       <use xlink:href="#DejaVuSans-30" x="63.623047"/>
       <use xlink:href="#DejaVuSans-4b" x="127.246094"/>
      </g>
     </g>
    </g>
    <g id="ytick_3">
     <g id="line2d_7">
      <g>
       <use xlink:href="#m855d1b927b" x="51.032188" y="194.791282" style="stroke: #000000; stroke-width: 0.8"/>
      </g>
     </g>
     <g id="text_7">
      <!-- 20K -->
      <g transform="translate(24.749375 198.590501) scale(0.1 -0.1)">
       <use xlink:href="#DejaVuSans-32"/>
       <use xlink:href="#DejaVuSans-30" x="63.623047"/>
       <use xlink:href="#DejaVuSans-4b" x="127.246094"/>
      </g>
     </g>
    </g>
    <g id="ytick_4">
     <g id="line2d_8">
      <g>
       <use xlink:href="#m855d1b927b" x="51.032188" y="164.159271" style="stroke: #000000; stroke-width: 0.8"/>
      </g>
     </g>
     <g id="text_8">
      <!-- 30K -->
      <g transform="translate(24.749375 167.95849) scale(0.1 -0.1)">
       <defs>
        <path id="DejaVuSans-33" d="M 2597 2516 
Q 3050 2419 3304 2112 
Q 3559 1806 3559 1356 
Q 3559 666 3084 287 
Q 2609 -91 1734 -91 
Q 1441 -91 1130 -33 
Q 819 25 488 141 
L 488 750 
Q 750 597 1062 519 
Q 1375 441 1716 441 
Q 2309 441 2620 675 
Q 2931 909 2931 1356 
Q 2931 1769 2642 2001 
Q 2353 2234 1838 2234 
L 1294 2234 
L 1294 2753 
L 1863 2753 
Q 2328 2753 2575 2939 
Q 2822 3125 2822 3475 
Q 2822 3834 2567 4026 
Q 2313 4219 1838 4219 
Q 1578 4219 1281 4162 
Q 984 4106 628 3988 
L 628 4550 
Q 988 4650 1302 4700 
Q 1616 4750 1894 4750 
Q 2613 4750 3031 4423 
Q 3450 4097 3450 3541 
Q 3450 3153 3228 2886 
Q 3006 2619 2597 2516 
z
" transform="scale(0.015625)"/>
       </defs>
       <use xlink:href="#DejaVuSans-33"/>
       <use xlink:href="#DejaVuSans-30" x="63.623047"/>
       <use xlink:href="#DejaVuSans-4b" x="127.246094"/>
      </g>
     </g>
    </g>
    <g id="ytick_5">
     <g id="line2d_9">
      <g>
       <use xlink:href="#m855d1b927b" x="51.032188" y="133.527261" style="stroke: #000000; stroke-width: 0.8"/>
      </g>
     </g>
     <g id="text_9">
      <!-- 40K -->
      <g transform="translate(24.749375 137.32648) scale(0.1 -0.1)">
       <defs>
        <path id="DejaVuSans-34" d="M 2419 4116 
L 825 1625 
L 2419 1625 
L 2419 4116 
z
M 2253 4666 
L 3047 4666 
L 3047 1625 
L 3713 1625 
L 3713 1100 
L 3047 1100 
L 3047 0 
L 2419 0 
L 2419 1100 
L 313 1100 
L 313 1709 
L 2253 4666 
z
" transform="scale(0.015625)"/>
       </defs>
       <use xlink:href="#DejaVuSans-34"/>
       <use xlink:href="#DejaVuSans-30" x="63.623047"/>
       <use xlink:href="#DejaVuSans-4b" x="127.246094"/>
      </g>
     </g>
    </g>
    <g id="ytick_6">
     <g id="line2d_10">
      <g>
       <use xlink:href="#m855d1b927b" x="51.032188" y="102.89525" style="stroke: #000000; stroke-width: 0.8"/>
      </g>
     </g>
     <g id="text_10">
      <!-- 50K -->
      <g transform="translate(24.749375 106.694469) scale(0.1 -0.1)">
       <use xlink:href="#DejaVuSans-35"/>
       <use xlink:href="#DejaVuSans-30" x="63.623047"/>
       <use xlink:href="#DejaVuSans-4b" x="127.246094"/>
      </g>
     </g>
    </g>
    <g id="ytick_7">
     <g id="line2d_11">
      <g>
       <use xlink:href="#m855d1b927b" x="51.032188" y="72.26324" style="stroke: #000000; stroke-width: 0.8"/>
      </g>
     </g>
     <g id="text_11">
      <!-- 60K -->
      <g transform="translate(24.749375 76.062459) scale(0.1 -0.1)">
       <defs>
        <path id="DejaVuSans-36" d="M 2113 2584 
Q 1688 2584 1439 2293 
Q 1191 2003 1191 1497 
Q 1191 994 1439 701 
Q 1688 409 2113 409 
Q 2538 409 2786 701 
Q 3034 994 3034 1497 
Q 3034 2003 2786 2293 
Q 2538 2584 2113 2584 
z
M 3366 4563 
L 3366 3988 
Q 3128 4100 2886 4159 
Q 2644 4219 2406 4219 
Q 1781 4219 1451 3797 
Q 1122 3375 1075 2522 
Q 1259 2794 1537 2939 
Q 1816 3084 2150 3084 
Q 2853 3084 3261 2657 
Q 3669 2231 3669 1497 
Q 3669 778 3244 343 
Q 2819 -91 2113 -91 
Q 1303 -91 875 529 
Q 447 1150 447 2328 
Q 447 3434 972 4092 
Q 1497 4750 2381 4750 
Q 2619 4750 2861 4703 
Q 3103 4656 3366 4563 
z
" transform="scale(0.015625)"/>
       </defs>
       <use xlink:href="#DejaVuSans-36"/>
       <use xlink:href="#DejaVuSans-30" x="63.623047"/>
       <use xlink:href="#DejaVuSans-4b" x="127.246094"/>
      </g>
     </g>
    </g>
    <g id="ytick_8">
     <g id="line2d_12">
      <g>
       <use xlink:href="#m855d1b927b" x="51.032188" y="41.631229" style="stroke: #000000; stroke-width: 0.8"/>
      </g>
     </g>
     <g id="text_12">
      <!-- 70K -->
      <g transform="translate(24.749375 45.430448) scale(0.1 -0.1)">
       <defs>
        <path id="DejaVuSans-37" d="M 525 4666 
L 3525 4666 
L 3525 4397 
L 1831 0 
L 1172 0 
L 2766 4134 
L 525 4134 
L 525 4666 
z
" transform="scale(0.015625)"/>
       </defs>
       <use xlink:href="#DejaVuSans-37"/>
       <use xlink:href="#DejaVuSans-30" x="63.623047"/>
       <use xlink:href="#DejaVuSans-4b" x="127.246094"/>
      </g>
     </g>
    </g>
    <g id="ytick_9">
     <g id="line2d_13">
      <g>
       <use xlink:href="#m855d1b927b" x="51.032188" y="10.999219" style="stroke: #000000; stroke-width: 0.8"/>
      </g>
     </g>
     <g id="text_13">
      <!-- 80K -->
      <g transform="translate(24.749375 14.798438) scale(0.1 -0.1)">
       <defs>
        <path id="DejaVuSans-38" d="M 2034 2216 
Q 1584 2216 1326 1975 
Q 1069 1734 1069 1313 
Q 1069 891 1326 650 
Q 1584 409 2034 409 
Q 2484 409 2743 651 
Q 3003 894 3003 1313 
Q 3003 1734 2745 1975 
Q 2488 2216 2034 2216 
z
M 1403 2484 
Q 997 2584 770 2862 
Q 544 3141 544 3541 
Q 544 4100 942 4425 
Q 1341 4750 2034 4750 
Q 2731 4750 3128 4425 
Q 3525 4100 3525 3541 
Q 3525 3141 3298 2862 
Q 3072 2584 2669 2484 
Q 3125 2378 3379 2068 
Q 3634 1759 3634 1313 
Q 3634 634 3220 271 
Q 2806 -91 2034 -91 
Q 1263 -91 848 271 
Q 434 634 434 1313 
Q 434 1759 690 2068 
Q 947 2378 1403 2484 
z
M 1172 3481 
Q 1172 3119 1398 2916 
Q 1625 2713 2034 2713 
Q 2441 2713 2670 2916 
Q 2900 3119 2900 3481 
Q 2900 3844 2670 4047 
Q 2441 4250 2034 4250 
Q 1625 4250 1398 4047 
Q 1172 3844 1172 3481 
z
" transform="scale(0.015625)"/>
       </defs>
       <use xlink:href="#DejaVuSans-38"/>
       <use xlink:href="#DejaVuSans-30" x="63.623047"/>
       <use xlink:href="#DejaVuSans-4b" x="127.246094"/>
      </g>
     </g>
    </g>
    <g id="text_14">
     <!-- $R_t$ -->
     <g transform="translate(17.837813 139.788264) rotate(-90) scale(0.14 -0.14)">
      <defs>
       <path id="DejaVuSans-Oblique-52" d="M 1613 4147 
L 1294 2491 
L 2106 2491 
Q 2584 2491 2879 2755 
Q 3175 3019 3175 3444 
Q 3175 3784 2976 3965 
Q 2778 4147 2406 4147 
L 1613 4147 
z
M 2772 2241 
Q 2972 2194 3105 2009 
Q 3238 1825 3413 1275 
L 3809 0 
L 3144 0 
L 2778 1197 
Q 2638 1659 2453 1815 
Q 2269 1972 1888 1972 
L 1191 1972 
L 806 0 
L 172 0 
L 1081 4666 
L 2503 4666 
Q 3150 4666 3495 4373 
Q 3841 4081 3841 3531 
Q 3841 3044 3547 2687 
Q 3253 2331 2772 2241 
z
" transform="scale(0.015625)"/>
       <path id="DejaVuSans-Oblique-74" d="M 2706 3500 
L 2619 3053 
L 1472 3053 
L 1100 1153 
Q 1081 1047 1072 975 
Q 1063 903 1063 863 
Q 1063 663 1183 572 
Q 1303 481 1569 481 
L 2150 481 
L 2053 0 
L 1503 0 
Q 991 0 739 200 
Q 488 400 488 806 
Q 488 878 497 964 
Q 506 1050 525 1153 
L 897 3053 
L 409 3053 
L 500 3500 
L 978 3500 
L 1172 4494 
L 1747 4494 
L 1556 3500 
L 2706 3500 
z
" transform="scale(0.015625)"/>
      </defs>
      <use xlink:href="#DejaVuSans-Oblique-52" transform="translate(0 0.09375)"/>
      <use xlink:href="#DejaVuSans-Oblique-74" transform="translate(69.482422 -16.3125) scale(0.7)"/>
     </g>
    </g>
   </g>
   <g id="patch_23">
    <path d="M 51.032188 256.055303 
L 51.032188 9.521224 
" style="fill: none; stroke: #000000; stroke-width: 0.8; stroke-linejoin: miter; stroke-linecap: square"/>
   </g>
   <g id="patch_24">
    <path d="M 583.585045 256.055303 
L 583.585045 9.521224 
" style="fill: none; stroke: #000000; stroke-width: 0.8; stroke-linejoin: miter; stroke-linecap: square"/>
   </g>
   <g id="patch_25">
    <path d="M 51.032187 256.055303 
L 583.585045 256.055303 
" style="fill: none; stroke: #000000; stroke-width: 0.8; stroke-linejoin: miter; stroke-linecap: square"/>
   </g>
   <g id="patch_26">
    <path d="M 51.032187 9.521224 
L 583.585045 9.521224 
" style="fill: none; stroke: #000000; stroke-width: 0.8; stroke-linejoin: miter; stroke-linecap: square"/>
   </g>
   <g id="text_15">
    <!-- 35.6K  -->
    <g style="fill: #ffffff" transform="translate(89.809431 190.200559) rotate(-90) scale(0.12 -0.12)">
     <defs>
      <path id="DejaVuSans-Bold-33" d="M 2981 2516 
Q 3453 2394 3698 2092 
Q 3944 1791 3944 1325 
Q 3944 631 3412 270 
Q 2881 -91 1863 -91 
Q 1503 -91 1142 -33 
Q 781 25 428 141 
L 428 1069 
Q 766 900 1098 814 
Q 1431 728 1753 728 
Q 2231 728 2486 893 
Q 2741 1059 2741 1369 
Q 2741 1688 2480 1852 
Q 2219 2016 1709 2016 
L 1228 2016 
L 1228 2791 
L 1734 2791 
Q 2188 2791 2409 2933 
Q 2631 3075 2631 3366 
Q 2631 3634 2415 3781 
Q 2200 3928 1806 3928 
Q 1516 3928 1219 3862 
Q 922 3797 628 3669 
L 628 4550 
Q 984 4650 1334 4700 
Q 1684 4750 2022 4750 
Q 2931 4750 3382 4451 
Q 3834 4153 3834 3553 
Q 3834 3144 3618 2883 
Q 3403 2622 2981 2516 
z
" transform="scale(0.015625)"/>
      <path id="DejaVuSans-Bold-35" d="M 678 4666 
L 3669 4666 
L 3669 3781 
L 1638 3781 
L 1638 3059 
Q 1775 3097 1914 3117 
Q 2053 3138 2203 3138 
Q 3056 3138 3531 2711 
Q 4006 2284 4006 1522 
Q 4006 766 3489 337 
Q 2972 -91 2053 -91 
Q 1656 -91 1267 -14 
Q 878 63 494 219 
L 494 1166 
Q 875 947 1217 837 
Q 1559 728 1863 728 
Q 2300 728 2551 942 
Q 2803 1156 2803 1522 
Q 2803 1891 2551 2103 
Q 2300 2316 1863 2316 
Q 1603 2316 1309 2248 
Q 1016 2181 678 2041 
L 678 4666 
z
" transform="scale(0.015625)"/>
      <path id="DejaVuSans-Bold-2e" d="M 653 1209 
L 1778 1209 
L 1778 0 
L 653 0 
L 653 1209 
z
" transform="scale(0.015625)"/>
      <path id="DejaVuSans-Bold-36" d="M 2316 2303 
Q 2000 2303 1842 2098 
Q 1684 1894 1684 1484 
Q 1684 1075 1842 870 
Q 2000 666 2316 666 
Q 2634 666 2792 870 
Q 2950 1075 2950 1484 
Q 2950 1894 2792 2098 
Q 2634 2303 2316 2303 
z
M 3803 4544 
L 3803 3681 
Q 3506 3822 3243 3889 
Q 2981 3956 2731 3956 
Q 2194 3956 1894 3657 
Q 1594 3359 1544 2772 
Q 1750 2925 1990 3001 
Q 2231 3078 2516 3078 
Q 3231 3078 3670 2659 
Q 4109 2241 4109 1563 
Q 4109 813 3618 361 
Q 3128 -91 2303 -91 
Q 1394 -91 895 523 
Q 397 1138 397 2266 
Q 397 3422 980 4083 
Q 1563 4744 2578 4744 
Q 2900 4744 3203 4694 
Q 3506 4644 3803 4544 
z
" transform="scale(0.015625)"/>
      <path id="DejaVuSans-Bold-4b" d="M 588 4666 
L 1791 4666 
L 1791 2963 
L 3525 4666 
L 4922 4666 
L 2675 2456 
L 5153 0 
L 3647 0 
L 1791 1838 
L 1791 0 
L 588 0 
L 588 4666 
z
" transform="scale(0.015625)"/>
      <path id="DejaVuSans-Bold-20" transform="scale(0.015625)"/>
     </defs>
     <use xlink:href="#DejaVuSans-Bold-33"/>
     <use xlink:href="#DejaVuSans-Bold-35" x="69.580078"/>
     <use xlink:href="#DejaVuSans-Bold-2e" x="139.160156"/>
     <use xlink:href="#DejaVuSans-Bold-36" x="177.148438"/>
     <use xlink:href="#DejaVuSans-Bold-4b" x="246.728516"/>
     <use xlink:href="#DejaVuSans-Bold-20" x="324.21875"/>
    </g>
   </g>
   <g id="text_16">
    <!-- 71.0K  -->
    <g style="fill: #ffffff" transform="translate(213.658933 81.722399) rotate(-90) scale(0.12 -0.12)">
     <defs>
      <path id="DejaVuSans-Bold-37" d="M 428 4666 
L 3944 4666 
L 3944 3988 
L 2125 0 
L 953 0 
L 2675 3781 
L 428 3781 
L 428 4666 
z
" transform="scale(0.015625)"/>
      <path id="DejaVuSans-Bold-31" d="M 750 831 
L 1813 831 
L 1813 3847 
L 722 3622 
L 722 4441 
L 1806 4666 
L 2950 4666 
L 2950 831 
L 4013 831 
L 4013 0 
L 750 0 
L 750 831 
z
" transform="scale(0.015625)"/>
      <path id="DejaVuSans-Bold-30" d="M 2944 2338 
Q 2944 3213 2780 3570 
Q 2616 3928 2228 3928 
Q 1841 3928 1675 3570 
Q 1509 3213 1509 2338 
Q 1509 1453 1675 1090 
Q 1841 728 2228 728 
Q 2613 728 2778 1090 
Q 2944 1453 2944 2338 
z
M 4147 2328 
Q 4147 1169 3647 539 
Q 3147 -91 2228 -91 
Q 1306 -91 806 539 
Q 306 1169 306 2328 
Q 306 3491 806 4120 
Q 1306 4750 2228 4750 
Q 3147 4750 3647 4120 
Q 4147 3491 4147 2328 
z
" transform="scale(0.015625)"/>
     </defs>
     <use xlink:href="#DejaVuSans-Bold-37"/>
     <use xlink:href="#DejaVuSans-Bold-31" x="69.580078"/>
     <use xlink:href="#DejaVuSans-Bold-2e" x="139.160156"/>
     <use xlink:href="#DejaVuSans-Bold-30" x="177.148438"/>
     <use xlink:href="#DejaVuSans-Bold-4b" x="246.728516"/>
     <use xlink:href="#DejaVuSans-Bold-20" x="324.21875"/>
    </g>
   </g>
   <g id="text_17">
    <!-- 76.7K  -->
    <g style="fill: #ffffff" transform="translate(337.508434 64.342817) rotate(-90) scale(0.12 -0.12)">
     <use xlink:href="#DejaVuSans-Bold-37"/>
     <use xlink:href="#DejaVuSans-Bold-36" x="69.580078"/>
     <use xlink:href="#DejaVuSans-Bold-2e" x="139.160156"/>
     <use xlink:href="#DejaVuSans-Bold-37" x="177.148438"/>
     <use xlink:href="#DejaVuSans-Bold-4b" x="246.728516"/>
     <use xlink:href="#DejaVuSans-Bold-20" x="324.21875"/>
    </g>
   </g>
   <g id="text_18">
    <!-- 76.1K  -->
    <g style="fill: #ffffff" transform="translate(461.357936 66.162359) rotate(-90) scale(0.12 -0.12)">
     <use xlink:href="#DejaVuSans-Bold-37"/>
     <use xlink:href="#DejaVuSans-Bold-36" x="69.580078"/>
     <use xlink:href="#DejaVuSans-Bold-2e" x="139.160156"/>
     <use xlink:href="#DejaVuSans-Bold-31" x="177.148438"/>
     <use xlink:href="#DejaVuSans-Bold-4b" x="246.728516"/>
     <use xlink:href="#DejaVuSans-Bold-20" x="324.21875"/>
    </g>
   </g>
   <g id="text_19">
    <!-- 33.3K  -->
    <g style="fill: #ffffff" transform="translate(112.327522 197.161683) rotate(-90) scale(0.12 -0.12)">
     <use xlink:href="#DejaVuSans-Bold-33"/>
     <use xlink:href="#DejaVuSans-Bold-33" x="69.580078"/>
     <use xlink:href="#DejaVuSans-Bold-2e" x="139.160156"/>
     <use xlink:href="#DejaVuSans-Bold-33" x="177.148438"/>
     <use xlink:href="#DejaVuSans-Bold-4b" x="246.728516"/>
     <use xlink:href="#DejaVuSans-Bold-20" x="324.21875"/>
    </g>
   </g>
   <g id="text_20">
    <!-- 66.2K  -->
    <g style="fill: #ffffff" transform="translate(236.177024 96.299152) rotate(-90) scale(0.12 -0.12)">
     <defs>
      <path id="DejaVuSans-Bold-32" d="M 1844 884 
L 3897 884 
L 3897 0 
L 506 0 
L 506 884 
L 2209 2388 
Q 2438 2594 2547 2791 
Q 2656 2988 2656 3200 
Q 2656 3528 2436 3728 
Q 2216 3928 1850 3928 
Q 1569 3928 1234 3808 
Q 900 3688 519 3450 
L 519 4475 
Q 925 4609 1322 4679 
Q 1719 4750 2100 4750 
Q 2938 4750 3402 4381 
Q 3866 4013 3866 3353 
Q 3866 2972 3669 2642 
Q 3472 2313 2841 1759 
L 1844 884 
z
" transform="scale(0.015625)"/>
     </defs>
     <use xlink:href="#DejaVuSans-Bold-36"/>
     <use xlink:href="#DejaVuSans-Bold-36" x="69.580078"/>
     <use xlink:href="#DejaVuSans-Bold-2e" x="139.160156"/>
     <use xlink:href="#DejaVuSans-Bold-32" x="177.148438"/>
     <use xlink:href="#DejaVuSans-Bold-4b" x="246.728516"/>
     <use xlink:href="#DejaVuSans-Bold-20" x="324.21875"/>
    </g>
   </g>
   <g id="text_21">
    <!-- 68.4K  -->
    <g style="fill: #ffffff" transform="translate(360.026526 89.70459) rotate(-90) scale(0.12 -0.12)">
     <defs>
      <path id="DejaVuSans-Bold-38" d="M 2228 2088 
Q 1891 2088 1709 1903 
Q 1528 1719 1528 1375 
Q 1528 1031 1709 848 
Q 1891 666 2228 666 
Q 2563 666 2741 848 
Q 2919 1031 2919 1375 
Q 2919 1722 2741 1905 
Q 2563 2088 2228 2088 
z
M 1350 2484 
Q 925 2613 709 2878 
Q 494 3144 494 3541 
Q 494 4131 934 4440 
Q 1375 4750 2228 4750 
Q 3075 4750 3515 4442 
Q 3956 4134 3956 3541 
Q 3956 3144 3739 2878 
Q 3522 2613 3097 2484 
Q 3572 2353 3814 2058 
Q 4056 1763 4056 1313 
Q 4056 619 3595 264 
Q 3134 -91 2228 -91 
Q 1319 -91 855 264 
Q 391 619 391 1313 
Q 391 1763 633 2058 
Q 875 2353 1350 2484 
z
M 1631 3419 
Q 1631 3141 1786 2991 
Q 1941 2841 2228 2841 
Q 2509 2841 2662 2991 
Q 2816 3141 2816 3419 
Q 2816 3697 2662 3845 
Q 2509 3994 2228 3994 
Q 1941 3994 1786 3844 
Q 1631 3694 1631 3419 
z
" transform="scale(0.015625)"/>
      <path id="DejaVuSans-Bold-34" d="M 2356 3675 
L 1038 1722 
L 2356 1722 
L 2356 3675 
z
M 2156 4666 
L 3494 4666 
L 3494 1722 
L 4159 1722 
L 4159 850 
L 3494 850 
L 3494 0 
L 2356 0 
L 2356 850 
L 288 850 
L 288 1881 
L 2156 4666 
z
" transform="scale(0.015625)"/>
     </defs>
     <use xlink:href="#DejaVuSans-Bold-36"/>
     <use xlink:href="#DejaVuSans-Bold-38" x="69.580078"/>
     <use xlink:href="#DejaVuSans-Bold-2e" x="139.160156"/>
     <use xlink:href="#DejaVuSans-Bold-34" x="177.148438"/>
     <use xlink:href="#DejaVuSans-Bold-4b" x="246.728516"/>
     <use xlink:href="#DejaVuSans-Bold-20" x="324.21875"/>
    </g>
   </g>
   <g id="text_22">
    <!-- 72.3K  -->
    <g style="fill: #ffffff" transform="translate(483.876027 77.552872) rotate(-90) scale(0.12 -0.12)">
     <use xlink:href="#DejaVuSans-Bold-37"/>
     <use xlink:href="#DejaVuSans-Bold-32" x="69.580078"/>
     <use xlink:href="#DejaVuSans-Bold-2e" x="139.160156"/>
     <use xlink:href="#DejaVuSans-Bold-33" x="177.148438"/>
     <use xlink:href="#DejaVuSans-Bold-4b" x="246.728516"/>
     <use xlink:href="#DejaVuSans-Bold-20" x="324.21875"/>
    </g>
   </g>
   <g id="text_23">
    <!-- 29.7K  -->
    <g style="fill: #ffffff" transform="translate(134.845614 208.294888) rotate(-90) scale(0.12 -0.12)">
     <defs>
      <path id="DejaVuSans-Bold-39" d="M 641 103 
L 641 966 
Q 928 831 1190 764 
Q 1453 697 1709 697 
Q 2247 697 2547 995 
Q 2847 1294 2900 1881 
Q 2688 1725 2447 1647 
Q 2206 1569 1925 1569 
Q 1209 1569 770 1986 
Q 331 2403 331 3084 
Q 331 3838 820 4291 
Q 1309 4744 2131 4744 
Q 3044 4744 3544 4128 
Q 4044 3513 4044 2388 
Q 4044 1231 3459 570 
Q 2875 -91 1856 -91 
Q 1528 -91 1228 -42 
Q 928 6 641 103 
z
M 2125 2350 
Q 2441 2350 2600 2554 
Q 2759 2759 2759 3169 
Q 2759 3575 2600 3781 
Q 2441 3988 2125 3988 
Q 1809 3988 1650 3781 
Q 1491 3575 1491 3169 
Q 1491 2759 1650 2554 
Q 1809 2350 2125 2350 
z
" transform="scale(0.015625)"/>
     </defs>
     <use xlink:href="#DejaVuSans-Bold-32"/>
     <use xlink:href="#DejaVuSans-Bold-39" x="69.580078"/>
     <use xlink:href="#DejaVuSans-Bold-2e" x="139.160156"/>
     <use xlink:href="#DejaVuSans-Bold-37" x="177.148438"/>
     <use xlink:href="#DejaVuSans-Bold-4b" x="246.728516"/>
     <use xlink:href="#DejaVuSans-Bold-20" x="324.21875"/>
    </g>
   </g>
   <g id="text_24">
    <!-- 50.3K  -->
    <g style="fill: #ffffff" transform="translate(258.695115 144.94789) rotate(-90) scale(0.12 -0.12)">
     <use xlink:href="#DejaVuSans-Bold-35"/>
     <use xlink:href="#DejaVuSans-Bold-30" x="69.580078"/>
     <use xlink:href="#DejaVuSans-Bold-2e" x="139.160156"/>
     <use xlink:href="#DejaVuSans-Bold-33" x="177.148438"/>
     <use xlink:href="#DejaVuSans-Bold-4b" x="246.728516"/>
     <use xlink:href="#DejaVuSans-Bold-20" x="324.21875"/>
    </g>
   </g>
   <g id="text_25">
    <!-- 54.7K  -->
    <g style="fill: #ffffff" transform="translate(382.544617 131.4744) rotate(-90) scale(0.12 -0.12)">
     <use xlink:href="#DejaVuSans-Bold-35"/>
     <use xlink:href="#DejaVuSans-Bold-34" x="69.580078"/>
     <use xlink:href="#DejaVuSans-Bold-2e" x="139.160156"/>
     <use xlink:href="#DejaVuSans-Bold-37" x="177.148438"/>
     <use xlink:href="#DejaVuSans-Bold-4b" x="246.728516"/>
     <use xlink:href="#DejaVuSans-Bold-20" x="324.21875"/>
    </g>
   </g>
   <g id="text_26">
    <!-- 56.9K  -->
    <g style="fill: #ffffff" transform="translate(506.394119 124.942124) rotate(-90) scale(0.12 -0.12)">
     <use xlink:href="#DejaVuSans-Bold-35"/>
     <use xlink:href="#DejaVuSans-Bold-36" x="69.580078"/>
     <use xlink:href="#DejaVuSans-Bold-2e" x="139.160156"/>
     <use xlink:href="#DejaVuSans-Bold-39" x="177.148438"/>
     <use xlink:href="#DejaVuSans-Bold-4b" x="246.728516"/>
     <use xlink:href="#DejaVuSans-Bold-20" x="324.21875"/>
    </g>
   </g>
   <g id="text_27">
    <!-- 24.5K  -->
    <g style="fill: #ffffff" transform="translate(157.363705 224.150016) rotate(-90) scale(0.12 -0.12)">
     <use xlink:href="#DejaVuSans-Bold-32"/>
     <use xlink:href="#DejaVuSans-Bold-34" x="69.580078"/>
     <use xlink:href="#DejaVuSans-Bold-2e" x="139.160156"/>
     <use xlink:href="#DejaVuSans-Bold-35" x="177.148438"/>
     <use xlink:href="#DejaVuSans-Bold-4b" x="246.728516"/>
     <use xlink:href="#DejaVuSans-Bold-20" x="324.21875"/>
    </g>
   </g>
   <g id="text_28">
    <!-- 32.1K  -->
    <g style="fill: #ffffff" transform="translate(281.213206 200.923805) rotate(-90) scale(0.12 -0.12)">
     <use xlink:href="#DejaVuSans-Bold-33"/>
     <use xlink:href="#DejaVuSans-Bold-32" x="69.580078"/>
     <use xlink:href="#DejaVuSans-Bold-2e" x="139.160156"/>
     <use xlink:href="#DejaVuSans-Bold-31" x="177.148438"/>
     <use xlink:href="#DejaVuSans-Bold-4b" x="246.728516"/>
     <use xlink:href="#DejaVuSans-Bold-20" x="324.21875"/>
    </g>
   </g>
   <g id="text_29">
    <!-- 39.2K  -->
    <g style="fill: #ffffff" transform="translate(405.062708 179.191414) rotate(-90) scale(0.12 -0.12)">
     <use xlink:href="#DejaVuSans-Bold-33"/>
     <use xlink:href="#DejaVuSans-Bold-39" x="69.580078"/>
     <use xlink:href="#DejaVuSans-Bold-2e" x="139.160156"/>
     <use xlink:href="#DejaVuSans-Bold-32" x="177.148438"/>
     <use xlink:href="#DejaVuSans-Bold-4b" x="246.728516"/>
     <use xlink:href="#DejaVuSans-Bold-20" x="324.21875"/>
    </g>
   </g>
   <g id="text_30">
    <!-- 38.0K  -->
    <g style="fill: #ffffff" transform="translate(528.91221 182.773828) rotate(-90) scale(0.12 -0.12)">
     <use xlink:href="#DejaVuSans-Bold-33"/>
     <use xlink:href="#DejaVuSans-Bold-38" x="69.580078"/>
     <use xlink:href="#DejaVuSans-Bold-2e" x="139.160156"/>
     <use xlink:href="#DejaVuSans-Bold-30" x="177.148438"/>
     <use xlink:href="#DejaVuSans-Bold-4b" x="246.728516"/>
     <use xlink:href="#DejaVuSans-Bold-20" x="324.21875"/>
    </g>
   </g>
   <g id="text_31">
    <!-- 23.6K  -->
    <g style="fill: #ffffff" transform="translate(179.881796 226.79509) rotate(-90) scale(0.12 -0.12)">
     <use xlink:href="#DejaVuSans-Bold-32"/>
     <use xlink:href="#DejaVuSans-Bold-33" x="69.580078"/>
     <use xlink:href="#DejaVuSans-Bold-2e" x="139.160156"/>
     <use xlink:href="#DejaVuSans-Bold-36" x="177.148438"/>
     <use xlink:href="#DejaVuSans-Bold-4b" x="246.728516"/>
     <use xlink:href="#DejaVuSans-Bold-20" x="324.21875"/>
    </g>
   </g>
   <g id="text_32">
    <!-- 32.7K  -->
    <g style="fill: #ffffff" transform="translate(303.731298 198.837765) rotate(-90) scale(0.12 -0.12)">
     <use xlink:href="#DejaVuSans-Bold-33"/>
     <use xlink:href="#DejaVuSans-Bold-32" x="69.580078"/>
     <use xlink:href="#DejaVuSans-Bold-2e" x="139.160156"/>
     <use xlink:href="#DejaVuSans-Bold-37" x="177.148438"/>
     <use xlink:href="#DejaVuSans-Bold-4b" x="246.728516"/>
     <use xlink:href="#DejaVuSans-Bold-20" x="324.21875"/>
    </g>
   </g>
   <g id="text_33">
    <!-- 34.8K  -->
    <g style="fill: #ffffff" transform="translate(427.580799 192.64193) rotate(-90) scale(0.12 -0.12)">
     <use xlink:href="#DejaVuSans-Bold-33"/>
     <use xlink:href="#DejaVuSans-Bold-34" x="69.580078"/>
     <use xlink:href="#DejaVuSans-Bold-2e" x="139.160156"/>
     <use xlink:href="#DejaVuSans-Bold-38" x="177.148438"/>
     <use xlink:href="#DejaVuSans-Bold-4b" x="246.728516"/>
     <use xlink:href="#DejaVuSans-Bold-20" x="324.21875"/>
    </g>
   </g>
   <g id="text_34">
    <!-- 38.2K  -->
    <g style="fill: #ffffff" transform="translate(551.430301 182.150467) rotate(-90) scale(0.12 -0.12)">
     <use xlink:href="#DejaVuSans-Bold-33"/>
     <use xlink:href="#DejaVuSans-Bold-38" x="69.580078"/>
     <use xlink:href="#DejaVuSans-Bold-2e" x="139.160156"/>
     <use xlink:href="#DejaVuSans-Bold-32" x="177.148438"/>
     <use xlink:href="#DejaVuSans-Bold-4b" x="246.728516"/>
     <use xlink:href="#DejaVuSans-Bold-20" x="324.21875"/>
    </g>
   </g>
  </g>
  <g id="axes_2">
   <g id="patch_27">
    <path d="M 634.905045 256.055303 
L 847.926187 256.055303 
L 847.926187 9.521224 
L 634.905045 9.521224 
z
" style="fill: #ffffff"/>
   </g>
   <g id="patch_28">
    <path d="M 644.587824 256.055303 
L 676.863755 256.055303 
L 676.863755 21.260942 
L 644.587824 21.260942 
z
" clip-path="url(#p02cf1fa746)" style="fill: #1f77b4"/>
   </g>
   <g id="patch_29">
    <path d="M 684.932737 256.055303 
L 717.208668 256.055303 
L 717.208668 21.260942 
L 684.932737 21.260942 
z
" clip-path="url(#p02cf1fa746)" style="fill: #ff7f0e"/>
   </g>
   <g id="patch_30">
    <path d="M 725.277651 256.055303 
L 757.553581 256.055303 
L 757.553581 138.658123 
L 725.277651 138.658123 
z
" clip-path="url(#p02cf1fa746)" style="fill: #2ca02c"/>
   </g>
   <g id="patch_31">
    <path d="M 765.622564 256.055303 
L 797.898495 256.055303 
L 797.898495 138.658123 
L 765.622564 138.658123 
z
" clip-path="url(#p02cf1fa746)" style="fill: #d62728"/>
   </g>
   <g id="patch_32">
    <path d="M 805.967478 256.055303 
L 838.243408 256.055303 
L 838.243408 138.658123 
L 805.967478 138.658123 
z
" clip-path="url(#p02cf1fa746)" style="fill: #9467bd"/>
   </g>
   <g id="matplotlib.axis_3"/>
   <g id="matplotlib.axis_4">
    <g id="ytick_10">
     <g id="line2d_14">
      <g>
       <use xlink:href="#m855d1b927b" x="634.905045" y="256.055303" style="stroke: #000000; stroke-width: 0.8"/>
      </g>
     </g>
     <g id="text_35">
      <!-- 0.0 -->
      <g transform="translate(612.00192 259.854522) scale(0.1 -0.1)">
       <defs>
        <path id="DejaVuSans-2e" d="M 684 794 
L 1344 794 
L 1344 0 
L 684 0 
L 684 794 
z
" transform="scale(0.015625)"/>
       </defs>
       <use xlink:href="#DejaVuSans-30"/>
       <use xlink:href="#DejaVuSans-2e" x="63.623047"/>
       <use xlink:href="#DejaVuSans-30" x="95.410156"/>
      </g>
     </g>
    </g>
    <g id="ytick_11">
     <g id="line2d_15">
      <g>
       <use xlink:href="#m855d1b927b" x="634.905045" y="216.92291" style="stroke: #000000; stroke-width: 0.8"/>
      </g>
     </g>
     <g id="text_36">
      <!-- 0.5 -->
      <g transform="translate(612.00192 220.722128) scale(0.1 -0.1)">
       <use xlink:href="#DejaVuSans-30"/>
       <use xlink:href="#DejaVuSans-2e" x="63.623047"/>
       <use xlink:href="#DejaVuSans-35" x="95.410156"/>
      </g>
     </g>
    </g>
    <g id="ytick_12">
     <g id="line2d_16">
      <g>
       <use xlink:href="#m855d1b927b" x="634.905045" y="177.790516" style="stroke: #000000; stroke-width: 0.8"/>
      </g>
     </g>
     <g id="text_37">
      <!-- 1.0 -->
      <g transform="translate(612.00192 181.589735) scale(0.1 -0.1)">
       <use xlink:href="#DejaVuSans-31"/>
       <use xlink:href="#DejaVuSans-2e" x="63.623047"/>
       <use xlink:href="#DejaVuSans-30" x="95.410156"/>
      </g>
     </g>
    </g>
    <g id="ytick_13">
     <g id="line2d_17">
      <g>
       <use xlink:href="#m855d1b927b" x="634.905045" y="138.658123" style="stroke: #000000; stroke-width: 0.8"/>
      </g>
     </g>
     <g id="text_38">
      <!-- 1.5 -->
      <g transform="translate(612.00192 142.457341) scale(0.1 -0.1)">
       <use xlink:href="#DejaVuSans-31"/>
       <use xlink:href="#DejaVuSans-2e" x="63.623047"/>
       <use xlink:href="#DejaVuSans-35" x="95.410156"/>
      </g>
     </g>
    </g>
    <g id="ytick_14">
     <g id="line2d_18">
      <g>
       <use xlink:href="#m855d1b927b" x="634.905045" y="99.525729" style="stroke: #000000; stroke-width: 0.8"/>
      </g>
     </g>
     <g id="text_39">
      <!-- 2.0 -->
      <g transform="translate(612.00192 103.324948) scale(0.1 -0.1)">
       <use xlink:href="#DejaVuSans-32"/>
       <use xlink:href="#DejaVuSans-2e" x="63.623047"/>
       <use xlink:href="#DejaVuSans-30" x="95.410156"/>
      </g>
     </g>
    </g>
    <g id="ytick_15">
     <g id="line2d_19">
      <g>
       <use xlink:href="#m855d1b927b" x="634.905045" y="60.393336" style="stroke: #000000; stroke-width: 0.8"/>
      </g>
     </g>
     <g id="text_40">
      <!-- 2.5 -->
      <g transform="translate(612.00192 64.192554) scale(0.1 -0.1)">
       <use xlink:href="#DejaVuSans-32"/>
       <use xlink:href="#DejaVuSans-2e" x="63.623047"/>
       <use xlink:href="#DejaVuSans-35" x="95.410156"/>
      </g>
     </g>
    </g>
    <g id="ytick_16">
     <g id="line2d_20">
      <g>
       <use xlink:href="#m855d1b927b" x="634.905045" y="21.260942" style="stroke: #000000; stroke-width: 0.8"/>
      </g>
     </g>
     <g id="text_41">
      <!-- 3.0 -->
      <g transform="translate(612.00192 25.060161) scale(0.1 -0.1)">
       <use xlink:href="#DejaVuSans-33"/>
       <use xlink:href="#DejaVuSans-2e" x="63.623047"/>
       <use xlink:href="#DejaVuSans-30" x="95.410156"/>
      </g>
     </g>
    </g>
    <g id="text_42">
     <!-- $C$ -->
     <g transform="translate(605.090357 137.688264) rotate(-90) scale(0.14 -0.14)">
      <defs>
       <path id="DejaVuSans-Oblique-43" d="M 4447 4306 
L 4319 3641 
Q 4019 3944 3683 4091 
Q 3347 4238 2956 4238 
Q 2422 4238 2017 3981 
Q 1613 3725 1319 3200 
Q 1131 2863 1032 2486 
Q 934 2109 934 1728 
Q 934 1091 1264 756 
Q 1594 422 2222 422 
Q 2656 422 3056 561 
Q 3456 700 3834 978 
L 3688 231 
Q 3316 72 2936 -9 
Q 2556 -91 2175 -91 
Q 1278 -91 773 396 
Q 269 884 269 1753 
Q 269 2309 461 2846 
Q 653 3384 1013 3828 
Q 1394 4300 1883 4525 
Q 2372 4750 3022 4750 
Q 3422 4750 3780 4639 
Q 4138 4528 4447 4306 
z
" transform="scale(0.015625)"/>
      </defs>
      <use xlink:href="#DejaVuSans-Oblique-43" transform="translate(0 0.78125)"/>
     </g>
    </g>
   </g>
   <g id="patch_33">
    <path d="M 634.905045 256.055303 
L 634.905045 9.521224 
" style="fill: none; stroke: #000000; stroke-width: 0.8; stroke-linejoin: miter; stroke-linecap: square"/>
   </g>
   <g id="patch_34">
    <path d="M 847.926187 256.055303 
L 847.926187 9.521224 
" style="fill: none; stroke: #000000; stroke-width: 0.8; stroke-linejoin: miter; stroke-linecap: square"/>
   </g>
   <g id="patch_35">
    <path d="M 634.905045 256.055303 
L 847.926187 256.055303 
" style="fill: none; stroke: #000000; stroke-width: 0.8; stroke-linejoin: miter; stroke-linecap: square"/>
   </g>
   <g id="patch_36">
    <path d="M 634.905045 9.521224 
L 847.926187 9.521224 
" style="fill: none; stroke: #000000; stroke-width: 0.8; stroke-linejoin: miter; stroke-linecap: square"/>
   </g>
   <g id="text_43">
    <!-- 3$   -->
    <g style="fill: #ffffff" transform="translate(664.037039 46.314692) rotate(-90) scale(0.12 -0.12)">
     <defs>
      <path id="DejaVuSans-Bold-24" d="M 2484 -941 
L 1978 -941 
L 1975 0 
Q 1584 16 1218 87 
Q 853 159 506 288 
L 506 1106 
Q 866 922 1233 823 
Q 1600 725 1978 713 
L 1978 1684 
L 1875 1703 
Q 1128 1834 814 2115 
Q 500 2397 500 2925 
Q 500 3484 883 3798 
Q 1266 4113 1975 4141 
L 1978 4863 
L 2484 4863 
L 2484 4153 
Q 2797 4128 3109 4075 
Q 3422 4022 3738 3938 
L 3738 3144 
Q 3425 3275 3112 3348 
Q 2800 3422 2484 3438 
L 2484 2541 
L 2584 2522 
Q 3378 2397 3698 2105 
Q 4019 1813 4019 1241 
Q 4019 666 3637 358 
Q 3256 50 2484 6 
L 2484 -941 
z
M 1978 2613 
L 1978 3428 
Q 1756 3416 1623 3308 
Q 1491 3200 1491 3034 
Q 1491 2850 1612 2745 
Q 1734 2641 1978 2613 
z
M 2484 1594 
L 2484 725 
Q 2756 728 2892 831 
Q 3028 934 3028 1141 
Q 3028 1353 2903 1458 
Q 2778 1563 2484 1594 
z
" transform="scale(0.015625)"/>
     </defs>
     <use xlink:href="#DejaVuSans-Bold-33"/>
     <use xlink:href="#DejaVuSans-Bold-24" x="69.580078"/>
     <use xlink:href="#DejaVuSans-Bold-20" x="139.160156"/>
     <use xlink:href="#DejaVuSans-Bold-20" x="173.974609"/>
    </g>
   </g>
   <g id="text_44">
    <!-- 3$   -->
    <g style="fill: #ffffff" transform="translate(704.381953 46.314692) rotate(-90) scale(0.12 -0.12)">
     <use xlink:href="#DejaVuSans-Bold-33"/>
     <use xlink:href="#DejaVuSans-Bold-24" x="69.580078"/>
     <use xlink:href="#DejaVuSans-Bold-20" x="139.160156"/>
     <use xlink:href="#DejaVuSans-Bold-20" x="173.974609"/>
    </g>
   </g>
   <g id="text_45">
    <!-- 2$   -->
    <g style="fill: #ffffff" transform="translate(744.726866 163.711873) rotate(-90) scale(0.12 -0.12)">
     <use xlink:href="#DejaVuSans-Bold-32"/>
     <use xlink:href="#DejaVuSans-Bold-24" x="69.580078"/>
     <use xlink:href="#DejaVuSans-Bold-20" x="139.160156"/>
     <use xlink:href="#DejaVuSans-Bold-20" x="173.974609"/>
    </g>
   </g>
   <g id="text_46">
    <!-- 2$   -->
    <g style="fill: #ffffff" transform="translate(785.071779 163.711873) rotate(-90) scale(0.12 -0.12)">
     <use xlink:href="#DejaVuSans-Bold-32"/>
     <use xlink:href="#DejaVuSans-Bold-24" x="69.580078"/>
     <use xlink:href="#DejaVuSans-Bold-20" x="139.160156"/>
     <use xlink:href="#DejaVuSans-Bold-20" x="173.974609"/>
    </g>
   </g>
   <g id="text_47">
    <!-- 2$   -->
    <g style="fill: #ffffff" transform="translate(825.416693 163.711873) rotate(-90) scale(0.12 -0.12)">
     <use xlink:href="#DejaVuSans-Bold-32"/>
     <use xlink:href="#DejaVuSans-Bold-24" x="69.580078"/>
     <use xlink:href="#DejaVuSans-Bold-20" x="139.160156"/>
     <use xlink:href="#DejaVuSans-Bold-20" x="173.974609"/>
    </g>
   </g>
  </g>
  <g id="legend_1">
   <g id="patch_37">
    <path d="M 20.437594 327.898116 
L 833.014781 327.898116 
Q 835.614781 327.898116 835.614781 325.298116 
L 835.614781 307.435303 
Q 835.614781 304.835303 833.014781 304.835303 
L 20.437594 304.835303 
Q 17.837594 304.835303 17.837594 307.435303 
L 17.837594 325.298116 
Q 17.837594 327.898116 20.437594 327.898116 
z
" style="fill: #ffffff; opacity: 0.8; stroke: #cccccc; stroke-linejoin: miter"/>
   </g>
   <g id="patch_38">
    <path d="M 23.037594 319.994522 
L 49.037594 319.994522 
L 49.037594 310.894522 
L 23.037594 310.894522 
z
" style="fill: #1f77b4"/>
   </g>
   <g id="text_48">
    <!-- (α,β)=(0.0,1.0) -->
    <g transform="translate(59.437594 319.994522) scale(0.13 -0.13)">
     <defs>
      <path id="DejaVuSans-28" d="M 1984 4856 
Q 1566 4138 1362 3434 
Q 1159 2731 1159 2009 
Q 1159 1288 1364 580 
Q 1569 -128 1984 -844 
L 1484 -844 
Q 1016 -109 783 600 
Q 550 1309 550 2009 
Q 550 2706 781 3412 
Q 1013 4119 1484 4856 
L 1984 4856 
z
" transform="scale(0.015625)"/>
      <path id="DejaVuSans-3b1" d="M 2644 1628 
L 2506 2350 
Q 2366 3091 1809 3091 
Q 1391 3091 1200 2747 
Q 959 2316 959 1747 
Q 959 1059 1194 731 
Q 1431 397 1809 397 
Q 2228 397 2453 1063 
L 2644 1628 
z
M 2966 2584 
L 3275 3500 
L 3788 3500 
L 3147 1603 
L 3272 919 
Q 3300 766 3409 638 
Q 3538 488 3638 488 
L 3913 488 
L 3913 0 
L 3569 0 
Q 3275 0 3013 263 
Q 2884 394 2831 669 
Q 2688 322 2394 50 
Q 2256 -78 1809 -78 
Q 1075 -78 719 397 
Q 353 888 353 1747 
Q 353 2666 750 3097 
Q 1191 3578 1809 3578 
Q 2781 3578 2966 2584 
z
" transform="scale(0.015625)"/>
      <path id="DejaVuSans-2c" d="M 750 794 
L 1409 794 
L 1409 256 
L 897 -744 
L 494 -744 
L 750 256 
L 750 794 
z
" transform="scale(0.015625)"/>
      <path id="DejaVuSans-3b2" d="M 1178 216 
L 1178 -1331 
L 600 -1331 
L 600 3478 
Q 600 4903 1931 4903 
Q 3288 4903 3288 3700 
Q 3288 2844 2750 2531 
Q 3625 2250 3625 1416 
Q 3625 -66 2119 -66 
Q 1456 -66 1178 216 
z
M 1178 966 
Q 1525 425 2141 425 
Q 3041 425 3041 1406 
Q 3041 2288 1591 2219 
L 1591 2750 
Q 2725 2750 2725 3750 
Q 2725 4434 1994 4434 
Q 1178 4434 1178 3459 
L 1178 966 
z
" transform="scale(0.015625)"/>
      <path id="DejaVuSans-29" d="M 513 4856 
L 1013 4856 
Q 1481 4119 1714 3412 
Q 1947 2706 1947 2009 
Q 1947 1309 1714 600 
Q 1481 -109 1013 -844 
L 513 -844 
Q 928 -128 1133 580 
Q 1338 1288 1338 2009 
Q 1338 2731 1133 3434 
Q 928 4138 513 4856 
z
" transform="scale(0.015625)"/>
     </defs>
     <use xlink:href="#DejaVuSans-28"/>
     <use xlink:href="#DejaVuSans-3b1" x="39.013672"/>
     <use xlink:href="#DejaVuSans-2c" x="104.931641"/>
     <use xlink:href="#DejaVuSans-3b2" x="136.71875"/>
     <use xlink:href="#DejaVuSans-29" x="200.537109"/>
     <use xlink:href="#DejaVuSans-3d" x="239.550781"/>
     <use xlink:href="#DejaVuSans-28" x="323.339844"/>
     <use xlink:href="#DejaVuSans-30" x="362.353516"/>
     <use xlink:href="#DejaVuSans-2e" x="425.976562"/>
     <use xlink:href="#DejaVuSans-30" x="457.763672"/>
     <use xlink:href="#DejaVuSans-2c" x="521.386719"/>
     <use xlink:href="#DejaVuSans-31" x="553.173828"/>
     <use xlink:href="#DejaVuSans-2e" x="616.796875"/>
     <use xlink:href="#DejaVuSans-30" x="648.583984"/>
     <use xlink:href="#DejaVuSans-29" x="712.207031"/>
    </g>
   </g>
   <g id="patch_39">
    <path d="M 183.096031 319.994522 
L 209.096031 319.994522 
L 209.096031 310.894522 
L 183.096031 310.894522 
z
" style="fill: #ff7f0e"/>
   </g>
   <g id="text_49">
    <!-- (α,β)=(0.25,0.75) -->
    <g transform="translate(219.496031 319.994522) scale(0.13 -0.13)">
     <use xlink:href="#DejaVuSans-28"/>
     <use xlink:href="#DejaVuSans-3b1" x="39.013672"/>
     <use xlink:href="#DejaVuSans-2c" x="104.931641"/>
     <use xlink:href="#DejaVuSans-3b2" x="136.71875"/>
     <use xlink:href="#DejaVuSans-29" x="200.537109"/>
     <use xlink:href="#DejaVuSans-3d" x="239.550781"/>
     <use xlink:href="#DejaVuSans-28" x="323.339844"/>
     <use xlink:href="#DejaVuSans-30" x="362.353516"/>
     <use xlink:href="#DejaVuSans-2e" x="425.976562"/>
     <use xlink:href="#DejaVuSans-32" x="457.763672"/>
     <use xlink:href="#DejaVuSans-35" x="521.386719"/>
     <use xlink:href="#DejaVuSans-2c" x="585.009766"/>
     <use xlink:href="#DejaVuSans-30" x="616.796875"/>
     <use xlink:href="#DejaVuSans-2e" x="680.419922"/>
     <use xlink:href="#DejaVuSans-37" x="712.207031"/>
     <use xlink:href="#DejaVuSans-35" x="775.830078"/>
     <use xlink:href="#DejaVuSans-29" x="839.453125"/>
    </g>
   </g>
   <g id="patch_40">
    <path d="M 359.696969 319.994522 
L 385.696969 319.994522 
L 385.696969 310.894522 
L 359.696969 310.894522 
z
" style="fill: #2ca02c"/>
   </g>
   <g id="text_50">
    <!-- (α,β)=(0.5,0.5) -->
    <g transform="translate(396.096969 319.994522) scale(0.13 -0.13)">
     <use xlink:href="#DejaVuSans-28"/>
     <use xlink:href="#DejaVuSans-3b1" x="39.013672"/>
     <use xlink:href="#DejaVuSans-2c" x="104.931641"/>
     <use xlink:href="#DejaVuSans-3b2" x="136.71875"/>
     <use xlink:href="#DejaVuSans-29" x="200.537109"/>
     <use xlink:href="#DejaVuSans-3d" x="239.550781"/>
     <use xlink:href="#DejaVuSans-28" x="323.339844"/>
     <use xlink:href="#DejaVuSans-30" x="362.353516"/>
     <use xlink:href="#DejaVuSans-2e" x="425.976562"/>
     <use xlink:href="#DejaVuSans-35" x="457.763672"/>
     <use xlink:href="#DejaVuSans-2c" x="521.386719"/>
     <use xlink:href="#DejaVuSans-30" x="553.173828"/>
     <use xlink:href="#DejaVuSans-2e" x="616.796875"/>
     <use xlink:href="#DejaVuSans-35" x="648.583984"/>
     <use xlink:href="#DejaVuSans-29" x="712.207031"/>
    </g>
   </g>
   <g id="patch_41">
    <path d="M 519.755406 319.994522 
L 545.755406 319.994522 
L 545.755406 310.894522 
L 519.755406 310.894522 
z
" style="fill: #d62728"/>
   </g>
   <g id="text_51">
    <!-- (α,β)=(0.75,0.25) -->
    <g transform="translate(556.155406 319.994522) scale(0.13 -0.13)">
     <use xlink:href="#DejaVuSans-28"/>
     <use xlink:href="#DejaVuSans-3b1" x="39.013672"/>
     <use xlink:href="#DejaVuSans-2c" x="104.931641"/>
     <use xlink:href="#DejaVuSans-3b2" x="136.71875"/>
     <use xlink:href="#DejaVuSans-29" x="200.537109"/>
     <use xlink:href="#DejaVuSans-3d" x="239.550781"/>
     <use xlink:href="#DejaVuSans-28" x="323.339844"/>
     <use xlink:href="#DejaVuSans-30" x="362.353516"/>
     <use xlink:href="#DejaVuSans-2e" x="425.976562"/>
     <use xlink:href="#DejaVuSans-37" x="457.763672"/>
     <use xlink:href="#DejaVuSans-35" x="521.386719"/>
     <use xlink:href="#DejaVuSans-2c" x="585.009766"/>
     <use xlink:href="#DejaVuSans-30" x="616.796875"/>
     <use xlink:href="#DejaVuSans-2e" x="680.419922"/>
     <use xlink:href="#DejaVuSans-32" x="712.207031"/>
     <use xlink:href="#DejaVuSans-35" x="775.830078"/>
     <use xlink:href="#DejaVuSans-29" x="839.453125"/>
    </g>
   </g>
   <g id="patch_42">
    <path d="M 696.356344 319.994522 
L 722.356344 319.994522 
L 722.356344 310.894522 
L 696.356344 310.894522 
z
" style="fill: #9467bd"/>
   </g>
   <g id="text_52">
    <!-- (α,β)=(1.0,0.0) -->
    <g transform="translate(732.756344 319.994522) scale(0.13 -0.13)">
     <use xlink:href="#DejaVuSans-28"/>
     <use xlink:href="#DejaVuSans-3b1" x="39.013672"/>
     <use xlink:href="#DejaVuSans-2c" x="104.931641"/>
     <use xlink:href="#DejaVuSans-3b2" x="136.71875"/>
     <use xlink:href="#DejaVuSans-29" x="200.537109"/>
     <use xlink:href="#DejaVuSans-3d" x="239.550781"/>
     <use xlink:href="#DejaVuSans-28" x="323.339844"/>
     <use xlink:href="#DejaVuSans-31" x="362.353516"/>
     <use xlink:href="#DejaVuSans-2e" x="425.976562"/>
     <use xlink:href="#DejaVuSans-30" x="457.763672"/>
     <use xlink:href="#DejaVuSans-2c" x="521.386719"/>
     <use xlink:href="#DejaVuSans-30" x="553.173828"/>
     <use xlink:href="#DejaVuSans-2e" x="616.796875"/>
     <use xlink:href="#DejaVuSans-30" x="648.583984"/>
     <use xlink:href="#DejaVuSans-29" x="712.207031"/>
    </g>
   </g>
  </g>
 </g>
 <defs>
  <clipPath id="pbdeadb9a10">
   <rect x="51.032188" y="9.521224" width="532.552857" height="246.534079"/>
  </clipPath>
  <clipPath id="p02cf1fa746">
   <rect x="634.905045" y="9.521224" width="213.021143" height="246.534079"/>
  </clipPath>
 </defs>
</svg>
