<?xml version="1.0" encoding="utf-8" standalone="no"?>
<!DOCTYPE svg PUBLIC "-//W3C//DTD SVG 1.1//EN"
  "http://www.w3.org/Graphics/SVG/1.1/DTD/svg11.dtd">
<svg xmlns:xlink="http://www.w3.org/1999/xlink" width="440.4195pt" height="339.84968pt" viewBox="0 0 440.4195 339.84968" xmlns="http://www.w3.org/2000/svg" version="1.1">
 <metadata>
  <rdf:RDF xmlns:dc="http://purl.org/dc/elements/1.1/" xmlns:cc="http://creativecommons.org/ns#" xmlns:rdf="http://www.w3.org/1999/02/22-rdf-syntax-ns#">
   <cc:Work>
    <dc:type rdf:resource="http://purl.org/dc/dcmitype/StillImage"/>
    <dc:date>2024-03-15T09:31:11.864233</dc:date>
    <dc:format>image/svg+xml</dc:format>
    <dc:creator>
     <cc:Agent>
      <dc:title>Matplotlib v3.8.2, https://matplotlib.org/</dc:title>
     </cc:Agent>
    </dc:creator>
   </cc:Work>
  </rdf:RDF>
 </metadata>
 <defs>
  <style type="text/css">*{stroke-linejoin: round; stroke-linecap: butt}</style>
 </defs>
 <g id="figure_1">
  <g id="patch_1">
   <path d="M 0 339.84968 
L 440.4195 339.84968 
L 440.4195 0 
L 0 0 
z
" style="fill: #ffffff"/>
  </g>
  <g id="axes_1">
   <g id="patch_2">
    <path d="M 51.032188 264.557878 
L 432.591187 264.557878 
L 432.591187 9.469943 
L 51.032188 9.469943 
z
" style="fill: #ffffff"/>
   </g>
   <g id="patch_3">
    <path d="M 68.375778 264.557878 
L 82.533812 264.557878 
L 82.533812 151.841545 
L 68.375778 151.841545 
z
" clip-path="url(#p0d4b8df64b)" style="fill: #1f77b4"/>
   </g>
   <g id="patch_4">
    <path d="M 160.402995 264.557878 
L 174.561029 264.557878 
L 174.561029 39.599579 
L 160.402995 39.599579 
z
" clip-path="url(#p0d4b8df64b)" style="fill: #1f77b4"/>
   </g>
   <g id="patch_5">
    <path d="M 252.430213 264.557878 
L 266.588246 264.557878 
L 266.588246 21.616988 
L 252.430213 21.616988 
z
" clip-path="url(#p0d4b8df64b)" style="fill: #1f77b4"/>
   </g>
   <g id="patch_6">
    <path d="M 344.45743 264.557878 
L 358.615463 264.557878 
L 358.615463 23.499661 
L 344.45743 23.499661 
z
" clip-path="url(#p0d4b8df64b)" style="fill: #1f77b4"/>
   </g>
   <g id="patch_7">
    <path d="M 82.533812 264.557878 
L 96.691845 264.557878 
L 96.691845 159.044196 
L 82.533812 159.044196 
z
" clip-path="url(#p0d4b8df64b)" style="fill: #ff7f0e"/>
   </g>
   <g id="patch_8">
    <path d="M 174.561029 264.557878 
L 188.719062 264.557878 
L 188.719062 54.682093 
L 174.561029 54.682093 
z
" clip-path="url(#p0d4b8df64b)" style="fill: #ff7f0e"/>
   </g>
   <g id="patch_9">
    <path d="M 266.588246 264.557878 
L 280.746279 264.557878 
L 280.746279 47.858724 
L 266.588246 47.858724 
z
" clip-path="url(#p0d4b8df64b)" style="fill: #ff7f0e"/>
   </g>
   <g id="patch_10">
    <path d="M 358.615463 264.557878 
L 372.773496 264.557878 
L 372.773496 35.285384 
L 358.615463 35.285384 
z
" clip-path="url(#p0d4b8df64b)" style="fill: #ff7f0e"/>
   </g>
   <g id="patch_11">
    <path d="M 96.691845 264.557878 
L 110.849879 264.557878 
L 110.849879 170.563683 
L 96.691845 170.563683 
z
" clip-path="url(#p0d4b8df64b)" style="fill: #2ca02c"/>
   </g>
   <g id="patch_12">
    <path d="M 188.719062 264.557878 
L 202.877096 264.557878 
L 202.877096 105.018769 
L 188.719062 105.018769 
z
" clip-path="url(#p0d4b8df64b)" style="fill: #2ca02c"/>
   </g>
   <g id="patch_13">
    <path d="M 280.746279 264.557878 
L 294.904313 264.557878 
L 294.904313 91.077797 
L 280.746279 91.077797 
z
" clip-path="url(#p0d4b8df64b)" style="fill: #2ca02c"/>
   </g>
   <g id="patch_14">
    <path d="M 372.773496 264.557878 
L 386.93153 264.557878 
L 386.93153 84.318874 
L 372.773496 84.318874 
z
" clip-path="url(#p0d4b8df64b)" style="fill: #2ca02c"/>
   </g>
   <g id="patch_15">
    <path d="M 110.849879 264.557878 
L 125.007912 264.557878 
L 125.007912 186.968928 
L 110.849879 186.968928 
z
" clip-path="url(#p0d4b8df64b)" style="fill: #d62728"/>
   </g>
   <g id="patch_16">
    <path d="M 202.877096 264.557878 
L 217.035129 264.557878 
L 217.035129 162.93685 
L 202.877096 162.93685 
z
" clip-path="url(#p0d4b8df64b)" style="fill: #d62728"/>
   </g>
   <g id="patch_17">
    <path d="M 294.904313 264.557878 
L 309.062346 264.557878 
L 309.062346 140.450423 
L 294.904313 140.450423 
z
" clip-path="url(#p0d4b8df64b)" style="fill: #d62728"/>
   </g>
   <g id="patch_18">
    <path d="M 386.93153 264.557878 
L 401.089563 264.557878 
L 401.089563 144.157133 
L 386.93153 144.157133 
z
" clip-path="url(#p0d4b8df64b)" style="fill: #d62728"/>
   </g>
   <g id="patch_19">
    <path d="M 125.007912 264.557878 
L 139.165945 264.557878 
L 139.165945 189.705777 
L 125.007912 189.705777 
z
" clip-path="url(#p0d4b8df64b)" style="fill: #9467bd"/>
   </g>
   <g id="patch_20">
    <path d="M 217.035129 264.557878 
L 231.193162 264.557878 
L 231.193162 160.778432 
L 217.035129 160.778432 
z
" clip-path="url(#p0d4b8df64b)" style="fill: #9467bd"/>
   </g>
   <g id="patch_21">
    <path d="M 309.062346 264.557878 
L 323.22038 264.557878 
L 323.22038 154.367623 
L 309.062346 154.367623 
z
" clip-path="url(#p0d4b8df64b)" style="fill: #9467bd"/>
   </g>
   <g id="patch_22">
    <path d="M 401.089563 264.557878 
L 415.247597 264.557878 
L 415.247597 143.512143 
L 401.089563 143.512143 
z
" clip-path="url(#p0d4b8df64b)" style="fill: #9467bd"/>
   </g>
   <g id="matplotlib.axis_1">
    <g id="xtick_1">
     <g id="line2d_1">
      <defs>
       <path id="m098345949f" d="M 0 0 
L 0 3.5 
" style="stroke: #000000; stroke-width: 0.8"/>
      </defs>
      <g>
       <use xlink:href="#m098345949f" x="103.770862" y="264.557878" style="stroke: #000000; stroke-width: 0.8"/>
      </g>
     </g>
     <g id="text_1">
      <!-- N=50 -->
      <g transform="translate(89.477893 279.156315) scale(0.1 -0.1)">
       <defs>
        <path id="DejaVuSans-4e" d="M 628 4666 
L 1478 4666 
L 3547 763 
L 3547 4666 
L 4159 4666 
L 4159 0 
L 3309 0 
L 1241 3903 
L 1241 0 
L 628 0 
L 628 4666 
z
" transform="scale(0.015625)"/>
        <path id="DejaVuSans-3d" d="M 678 2906 
L 4684 2906 
L 4684 2381 
L 678 2381 
L 678 2906 
z
M 678 1631 
L 4684 1631 
L 4684 1100 
L 678 1100 
L 678 1631 
z
" transform="scale(0.015625)"/>
        <path id="DejaVuSans-35" d="M 691 4666 
L 3169 4666 
L 3169 4134 
L 1269 4134 
L 1269 2991 
Q 1406 3038 1543 3061 
Q 1681 3084 1819 3084 
Q 2600 3084 3056 2656 
Q 3513 2228 3513 1497 
Q 3513 744 3044 326 
Q 2575 -91 1722 -91 
Q 1428 -91 1123 -41 
Q 819 9 494 109 
L 494 744 
Q 775 591 1075 516 
Q 1375 441 1709 441 
Q 2250 441 2565 725 
Q 2881 1009 2881 1497 
Q 2881 1984 2565 2268 
Q 2250 2553 1709 2553 
Q 1456 2553 1204 2497 
Q 953 2441 691 2322 
L 691 4666 
z
" transform="scale(0.015625)"/>
        <path id="DejaVuSans-30" d="M 2034 4250 
Q 1547 4250 1301 3770 
Q 1056 3291 1056 2328 
Q 1056 1369 1301 889 
Q 1547 409 2034 409 
Q 2525 409 2770 889 
Q 3016 1369 3016 2328 
Q 3016 3291 2770 3770 
Q 2525 4250 2034 4250 
z
M 2034 4750 
Q 2819 4750 3233 4129 
Q 3647 3509 3647 2328 
Q 3647 1150 3233 529 
Q 2819 -91 2034 -91 
Q 1250 -91 836 529 
Q 422 1150 422 2328 
Q 422 3509 836 4129 
Q 1250 4750 2034 4750 
z
" transform="scale(0.015625)"/>
       </defs>
       <use xlink:href="#DejaVuSans-4e"/>
       <use xlink:href="#DejaVuSans-3d" x="74.804688"/>
       <use xlink:href="#DejaVuSans-35" x="158.59375"/>
       <use xlink:href="#DejaVuSans-30" x="222.216797"/>
      </g>
     </g>
    </g>
    <g id="xtick_2">
     <g id="line2d_2">
      <g>
       <use xlink:href="#m098345949f" x="195.798079" y="264.557878" style="stroke: #000000; stroke-width: 0.8"/>
      </g>
     </g>
     <g id="text_2">
      <!-- N=500 -->
      <g transform="translate(178.32386 279.156315) scale(0.1 -0.1)">
       <use xlink:href="#DejaVuSans-4e"/>
       <use xlink:href="#DejaVuSans-3d" x="74.804688"/>
       <use xlink:href="#DejaVuSans-35" x="158.59375"/>
       <use xlink:href="#DejaVuSans-30" x="222.216797"/>
       <use xlink:href="#DejaVuSans-30" x="285.839844"/>
      </g>
     </g>
    </g>
    <g id="xtick_3">
     <g id="line2d_3">
      <g>
       <use xlink:href="#m098345949f" x="287.825296" y="264.557878" style="stroke: #000000; stroke-width: 0.8"/>
      </g>
     </g>
     <g id="text_3">
      <!-- N=1000 -->
      <g transform="translate(267.169827 279.156315) scale(0.1 -0.1)">
       <defs>
        <path id="DejaVuSans-31" d="M 794 531 
L 1825 531 
L 1825 4091 
L 703 3866 
L 703 4441 
L 1819 4666 
L 2450 4666 
L 2450 531 
L 3481 531 
L 3481 0 
L 794 0 
L 794 531 
z
" transform="scale(0.015625)"/>
       </defs>
       <use xlink:href="#DejaVuSans-4e"/>
       <use xlink:href="#DejaVuSans-3d" x="74.804688"/>
       <use xlink:href="#DejaVuSans-31" x="158.59375"/>
       <use xlink:href="#DejaVuSans-30" x="222.216797"/>
       <use xlink:href="#DejaVuSans-30" x="285.839844"/>
       <use xlink:href="#DejaVuSans-30" x="349.462891"/>
      </g>
     </g>
    </g>
    <g id="xtick_4">
     <g id="line2d_4">
      <g>
       <use xlink:href="#m098345949f" x="379.852513" y="264.557878" style="stroke: #000000; stroke-width: 0.8"/>
      </g>
     </g>
     <g id="text_4">
      <!-- N=2000 -->
      <g transform="translate(359.197044 279.156315) scale(0.1 -0.1)">
       <defs>
        <path id="DejaVuSans-32" d="M 1228 531 
L 3431 531 
L 3431 0 
L 469 0 
L 469 531 
Q 828 903 1448 1529 
Q 2069 2156 2228 2338 
Q 2531 2678 2651 2914 
Q 2772 3150 2772 3378 
Q 2772 3750 2511 3984 
Q 2250 4219 1831 4219 
Q 1534 4219 1204 4116 
Q 875 4013 500 3803 
L 500 4441 
Q 881 4594 1212 4672 
Q 1544 4750 1819 4750 
Q 2544 4750 2975 4387 
Q 3406 4025 3406 3419 
Q 3406 3131 3298 2873 
Q 3191 2616 2906 2266 
Q 2828 2175 2409 1742 
Q 1991 1309 1228 531 
z
" transform="scale(0.015625)"/>
       </defs>
       <use xlink:href="#DejaVuSans-4e"/>
       <use xlink:href="#DejaVuSans-3d" x="74.804688"/>
       <use xlink:href="#DejaVuSans-32" x="158.59375"/>
       <use xlink:href="#DejaVuSans-30" x="222.216797"/>
       <use xlink:href="#DejaVuSans-30" x="285.839844"/>
       <use xlink:href="#DejaVuSans-30" x="349.462891"/>
      </g>
     </g>
    </g>
   </g>
   <g id="matplotlib.axis_2">
    <g id="ytick_1">
     <g id="line2d_5">
      <defs>
       <path id="m3330db202f" d="M 0 0 
L -3.5 0 
" style="stroke: #000000; stroke-width: 0.8"/>
      </defs>
      <g>
       <use xlink:href="#m3330db202f" x="51.032188" y="264.557878" style="stroke: #000000; stroke-width: 0.8"/>
      </g>
     </g>
     <g id="text_5">
      <!-- 0K -->
      <g transform="translate(31.111875 268.357096) scale(0.1 -0.1)">
       <defs>
        <path id="DejaVuSans-4b" d="M 628 4666 
L 1259 4666 
L 1259 2694 
L 3353 4666 
L 4166 4666 
L 1850 2491 
L 4331 0 
L 3500 0 
L 1259 2247 
L 1259 0 
L 628 0 
L 628 4666 
z
" transform="scale(0.015625)"/>
       </defs>
       <use xlink:href="#DejaVuSans-30"/>
       <use xlink:href="#DejaVuSans-4b" x="63.623047"/>
      </g>
     </g>
    </g>
    <g id="ytick_2">
     <g id="line2d_6">
      <g>
       <use xlink:href="#m3330db202f" x="51.032188" y="232.863045" style="stroke: #000000; stroke-width: 0.8"/>
      </g>
     </g>
     <g id="text_6">
      <!-- 10K -->
      <g transform="translate(24.749375 236.662264) scale(0.1 -0.1)">
       <use xlink:href="#DejaVuSans-31"/>
       <use xlink:href="#DejaVuSans-30" x="63.623047"/>
       <use xlink:href="#DejaVuSans-4b" x="127.246094"/>
      </g>
     </g>
    </g>
    <g id="ytick_3">
     <g id="line2d_7">
      <g>
       <use xlink:href="#m3330db202f" x="51.032188" y="201.168213" style="stroke: #000000; stroke-width: 0.8"/>
      </g>
     </g>
     <g id="text_7">
      <!-- 20K -->
      <g transform="translate(24.749375 204.967432) scale(0.1 -0.1)">
       <use xlink:href="#DejaVuSans-32"/>
       <use xlink:href="#DejaVuSans-30" x="63.623047"/>
       <use xlink:href="#DejaVuSans-4b" x="127.246094"/>
      </g>
     </g>
    </g>
    <g id="ytick_4">
     <g id="line2d_8">
      <g>
       <use xlink:href="#m3330db202f" x="51.032188" y="169.473381" style="stroke: #000000; stroke-width: 0.8"/>
      </g>
     </g>
     <g id="text_8">
      <!-- 30K -->
      <g transform="translate(24.749375 173.272599) scale(0.1 -0.1)">
       <defs>
        <path id="DejaVuSans-33" d="M 2597 2516 
Q 3050 2419 3304 2112 
Q 3559 1806 3559 1356 
Q 3559 666 3084 287 
Q 2609 -91 1734 -91 
Q 1441 -91 1130 -33 
Q 819 25 488 141 
L 488 750 
Q 750 597 1062 519 
Q 1375 441 1716 441 
Q 2309 441 2620 675 
Q 2931 909 2931 1356 
Q 2931 1769 2642 2001 
Q 2353 2234 1838 2234 
L 1294 2234 
L 1294 2753 
L 1863 2753 
Q 2328 2753 2575 2939 
Q 2822 3125 2822 3475 
Q 2822 3834 2567 4026 
Q 2313 4219 1838 4219 
Q 1578 4219 1281 4162 
Q 984 4106 628 3988 
L 628 4550 
Q 988 4650 1302 4700 
Q 1616 4750 1894 4750 
Q 2613 4750 3031 4423 
Q 3450 4097 3450 3541 
Q 3450 3153 3228 2886 
Q 3006 2619 2597 2516 
z
" transform="scale(0.015625)"/>
       </defs>
       <use xlink:href="#DejaVuSans-33"/>
       <use xlink:href="#DejaVuSans-30" x="63.623047"/>
       <use xlink:href="#DejaVuSans-4b" x="127.246094"/>
      </g>
     </g>
    </g>
    <g id="ytick_5">
     <g id="line2d_9">
      <g>
       <use xlink:href="#m3330db202f" x="51.032188" y="137.778548" style="stroke: #000000; stroke-width: 0.8"/>
      </g>
     </g>
     <g id="text_9">
      <!-- 40K -->
      <g transform="translate(24.749375 141.577767) scale(0.1 -0.1)">
       <defs>
        <path id="DejaVuSans-34" d="M 2419 4116 
L 825 1625 
L 2419 1625 
L 2419 4116 
z
M 2253 4666 
L 3047 4666 
L 3047 1625 
L 3713 1625 
L 3713 1100 
L 3047 1100 
L 3047 0 
L 2419 0 
L 2419 1100 
L 313 1100 
L 313 1709 
L 2253 4666 
z
" transform="scale(0.015625)"/>
       </defs>
       <use xlink:href="#DejaVuSans-34"/>
       <use xlink:href="#DejaVuSans-30" x="63.623047"/>
       <use xlink:href="#DejaVuSans-4b" x="127.246094"/>
      </g>
     </g>
    </g>
    <g id="ytick_6">
     <g id="line2d_10">
      <g>
       <use xlink:href="#m3330db202f" x="51.032188" y="106.083716" style="stroke: #000000; stroke-width: 0.8"/>
      </g>
     </g>
     <g id="text_10">
      <!-- 50K -->
      <g transform="translate(24.749375 109.882935) scale(0.1 -0.1)">
       <use xlink:href="#DejaVuSans-35"/>
       <use xlink:href="#DejaVuSans-30" x="63.623047"/>
       <use xlink:href="#DejaVuSans-4b" x="127.246094"/>
      </g>
     </g>
    </g>
    <g id="ytick_7">
     <g id="line2d_11">
      <g>
       <use xlink:href="#m3330db202f" x="51.032188" y="74.388883" style="stroke: #000000; stroke-width: 0.8"/>
      </g>
     </g>
     <g id="text_11">
      <!-- 60K -->
      <g transform="translate(24.749375 78.188102) scale(0.1 -0.1)">
       <defs>
        <path id="DejaVuSans-36" d="M 2113 2584 
Q 1688 2584 1439 2293 
Q 1191 2003 1191 1497 
Q 1191 994 1439 701 
Q 1688 409 2113 409 
Q 2538 409 2786 701 
Q 3034 994 3034 1497 
Q 3034 2003 2786 2293 
Q 2538 2584 2113 2584 
z
M 3366 4563 
L 3366 3988 
Q 3128 4100 2886 4159 
Q 2644 4219 2406 4219 
Q 1781 4219 1451 3797 
Q 1122 3375 1075 2522 
Q 1259 2794 1537 2939 
Q 1816 3084 2150 3084 
Q 2853 3084 3261 2657 
Q 3669 2231 3669 1497 
Q 3669 778 3244 343 
Q 2819 -91 2113 -91 
Q 1303 -91 875 529 
Q 447 1150 447 2328 
Q 447 3434 972 4092 
Q 1497 4750 2381 4750 
Q 2619 4750 2861 4703 
Q 3103 4656 3366 4563 
z
" transform="scale(0.015625)"/>
       </defs>
       <use xlink:href="#DejaVuSans-36"/>
       <use xlink:href="#DejaVuSans-30" x="63.623047"/>
       <use xlink:href="#DejaVuSans-4b" x="127.246094"/>
      </g>
     </g>
    </g>
    <g id="ytick_8">
     <g id="line2d_12">
      <g>
       <use xlink:href="#m3330db202f" x="51.032188" y="42.694051" style="stroke: #000000; stroke-width: 0.8"/>
      </g>
     </g>
     <g id="text_12">
      <!-- 70K -->
      <g transform="translate(24.749375 46.49327) scale(0.1 -0.1)">
       <defs>
        <path id="DejaVuSans-37" d="M 525 4666 
L 3525 4666 
L 3525 4397 
L 1831 0 
L 1172 0 
L 2766 4134 
L 525 4134 
L 525 4666 
z
" transform="scale(0.015625)"/>
       </defs>
       <use xlink:href="#DejaVuSans-37"/>
       <use xlink:href="#DejaVuSans-30" x="63.623047"/>
       <use xlink:href="#DejaVuSans-4b" x="127.246094"/>
      </g>
     </g>
    </g>
    <g id="ytick_9">
     <g id="line2d_13">
      <g>
       <use xlink:href="#m3330db202f" x="51.032188" y="10.999219" style="stroke: #000000; stroke-width: 0.8"/>
      </g>
     </g>
     <g id="text_13">
      <!-- 80K -->
      <g transform="translate(24.749375 14.798438) scale(0.1 -0.1)">
       <defs>
        <path id="DejaVuSans-38" d="M 2034 2216 
Q 1584 2216 1326 1975 
Q 1069 1734 1069 1313 
Q 1069 891 1326 650 
Q 1584 409 2034 409 
Q 2484 409 2743 651 
Q 3003 894 3003 1313 
Q 3003 1734 2745 1975 
Q 2488 2216 2034 2216 
z
M 1403 2484 
Q 997 2584 770 2862 
Q 544 3141 544 3541 
Q 544 4100 942 4425 
Q 1341 4750 2034 4750 
Q 2731 4750 3128 4425 
Q 3525 4100 3525 3541 
Q 3525 3141 3298 2862 
Q 3072 2584 2669 2484 
Q 3125 2378 3379 2068 
Q 3634 1759 3634 1313 
Q 3634 634 3220 271 
Q 2806 -91 2034 -91 
Q 1263 -91 848 271 
Q 434 634 434 1313 
Q 434 1759 690 2068 
Q 947 2378 1403 2484 
z
M 1172 3481 
Q 1172 3119 1398 2916 
Q 1625 2713 2034 2713 
Q 2441 2713 2670 2916 
Q 2900 3119 2900 3481 
Q 2900 3844 2670 4047 
Q 2441 4250 2034 4250 
Q 1625 4250 1398 4047 
Q 1172 3844 1172 3481 
z
" transform="scale(0.015625)"/>
       </defs>
       <use xlink:href="#DejaVuSans-38"/>
       <use xlink:href="#DejaVuSans-30" x="63.623047"/>
       <use xlink:href="#DejaVuSans-4b" x="127.246094"/>
      </g>
     </g>
    </g>
    <g id="text_14">
     <!-- $R_t$ -->
     <g transform="translate(17.837813 144.01391) rotate(-90) scale(0.14 -0.14)">
      <defs>
       <path id="DejaVuSans-Oblique-52" d="M 1613 4147 
L 1294 2491 
L 2106 2491 
Q 2584 2491 2879 2755 
Q 3175 3019 3175 3444 
Q 3175 3784 2976 3965 
Q 2778 4147 2406 4147 
L 1613 4147 
z
M 2772 2241 
Q 2972 2194 3105 2009 
Q 3238 1825 3413 1275 
L 3809 0 
L 3144 0 
L 2778 1197 
Q 2638 1659 2453 1815 
Q 2269 1972 1888 1972 
L 1191 1972 
L 806 0 
L 172 0 
L 1081 4666 
L 2503 4666 
Q 3150 4666 3495 4373 
Q 3841 4081 3841 3531 
Q 3841 3044 3547 2687 
Q 3253 2331 2772 2241 
z
" transform="scale(0.015625)"/>
       <path id="DejaVuSans-Oblique-74" d="M 2706 3500 
L 2619 3053 
L 1472 3053 
L 1100 1153 
Q 1081 1047 1072 975 
Q 1063 903 1063 863 
Q 1063 663 1183 572 
Q 1303 481 1569 481 
L 2150 481 
L 2053 0 
L 1503 0 
Q 991 0 739 200 
Q 488 400 488 806 
Q 488 878 497 964 
Q 506 1050 525 1153 
L 897 3053 
L 409 3053 
L 500 3500 
L 978 3500 
L 1172 4494 
L 1747 4494 
L 1556 3500 
L 2706 3500 
z
" transform="scale(0.015625)"/>
      </defs>
      <use xlink:href="#DejaVuSans-Oblique-52" transform="translate(0 0.09375)"/>
      <use xlink:href="#DejaVuSans-Oblique-74" transform="translate(69.482422 -16.3125) scale(0.7)"/>
     </g>
    </g>
   </g>
   <g id="patch_23">
    <path d="M 51.032188 264.557878 
L 51.032188 9.469943 
" style="fill: none; stroke: #000000; stroke-width: 0.8; stroke-linejoin: miter; stroke-linecap: square"/>
   </g>
   <g id="patch_24">
    <path d="M 432.591187 264.557878 
L 432.591187 9.469943 
" style="fill: none; stroke: #000000; stroke-width: 0.8; stroke-linejoin: miter; stroke-linecap: square"/>
   </g>
   <g id="patch_25">
    <path d="M 51.032188 264.557878 
L 432.591188 264.557878 
" style="fill: none; stroke: #000000; stroke-width: 0.8; stroke-linejoin: miter; stroke-linecap: square"/>
   </g>
   <g id="patch_26">
    <path d="M 51.032188 9.469943 
L 432.591188 9.469943 
" style="fill: none; stroke: #000000; stroke-width: 0.8; stroke-linejoin: miter; stroke-linecap: square"/>
   </g>
   <g id="text_15">
    <!-- 35.6K  -->
    <g style="fill: #ffffff; opacity: 0.8" transform="translate(77.662295 180.562795) rotate(-90) scale(0.08 -0.08)">
     <defs>
      <path id="DejaVuSans-Bold-33" d="M 2981 2516 
Q 3453 2394 3698 2092 
Q 3944 1791 3944 1325 
Q 3944 631 3412 270 
Q 2881 -91 1863 -91 
Q 1503 -91 1142 -33 
Q 781 25 428 141 
L 428 1069 
Q 766 900 1098 814 
Q 1431 728 1753 728 
Q 2231 728 2486 893 
Q 2741 1059 2741 1369 
Q 2741 1688 2480 1852 
Q 2219 2016 1709 2016 
L 1228 2016 
L 1228 2791 
L 1734 2791 
Q 2188 2791 2409 2933 
Q 2631 3075 2631 3366 
Q 2631 3634 2415 3781 
Q 2200 3928 1806 3928 
Q 1516 3928 1219 3862 
Q 922 3797 628 3669 
L 628 4550 
Q 984 4650 1334 4700 
Q 1684 4750 2022 4750 
Q 2931 4750 3382 4451 
Q 3834 4153 3834 3553 
Q 3834 3144 3618 2883 
Q 3403 2622 2981 2516 
z
" transform="scale(0.015625)"/>
      <path id="DejaVuSans-Bold-35" d="M 678 4666 
L 3669 4666 
L 3669 3781 
L 1638 3781 
L 1638 3059 
Q 1775 3097 1914 3117 
Q 2053 3138 2203 3138 
Q 3056 3138 3531 2711 
Q 4006 2284 4006 1522 
Q 4006 766 3489 337 
Q 2972 -91 2053 -91 
Q 1656 -91 1267 -14 
Q 878 63 494 219 
L 494 1166 
Q 875 947 1217 837 
Q 1559 728 1863 728 
Q 2300 728 2551 942 
Q 2803 1156 2803 1522 
Q 2803 1891 2551 2103 
Q 2300 2316 1863 2316 
Q 1603 2316 1309 2248 
Q 1016 2181 678 2041 
L 678 4666 
z
" transform="scale(0.015625)"/>
      <path id="DejaVuSans-Bold-2e" d="M 653 1209 
L 1778 1209 
L 1778 0 
L 653 0 
L 653 1209 
z
" transform="scale(0.015625)"/>
      <path id="DejaVuSans-Bold-36" d="M 2316 2303 
Q 2000 2303 1842 2098 
Q 1684 1894 1684 1484 
Q 1684 1075 1842 870 
Q 2000 666 2316 666 
Q 2634 666 2792 870 
Q 2950 1075 2950 1484 
Q 2950 1894 2792 2098 
Q 2634 2303 2316 2303 
z
M 3803 4544 
L 3803 3681 
Q 3506 3822 3243 3889 
Q 2981 3956 2731 3956 
Q 2194 3956 1894 3657 
Q 1594 3359 1544 2772 
Q 1750 2925 1990 3001 
Q 2231 3078 2516 3078 
Q 3231 3078 3670 2659 
Q 4109 2241 4109 1563 
Q 4109 813 3618 361 
Q 3128 -91 2303 -91 
Q 1394 -91 895 523 
Q 397 1138 397 2266 
Q 397 3422 980 4083 
Q 1563 4744 2578 4744 
Q 2900 4744 3203 4694 
Q 3506 4644 3803 4544 
z
" transform="scale(0.015625)"/>
      <path id="DejaVuSans-Bold-4b" d="M 588 4666 
L 1791 4666 
L 1791 2963 
L 3525 4666 
L 4922 4666 
L 2675 2456 
L 5153 0 
L 3647 0 
L 1791 1838 
L 1791 0 
L 588 0 
L 588 4666 
z
" transform="scale(0.015625)"/>
      <path id="DejaVuSans-Bold-20" transform="scale(0.015625)"/>
     </defs>
     <use xlink:href="#DejaVuSans-Bold-33"/>
     <use xlink:href="#DejaVuSans-Bold-35" x="69.580078"/>
     <use xlink:href="#DejaVuSans-Bold-2e" x="139.160156"/>
     <use xlink:href="#DejaVuSans-Bold-36" x="177.148438"/>
     <use xlink:href="#DejaVuSans-Bold-4b" x="246.728516"/>
     <use xlink:href="#DejaVuSans-Bold-20" x="324.21875"/>
    </g>
   </g>
   <g id="text_16">
    <!-- 71.0K  -->
    <g style="fill: #ffffff; opacity: 0.8" transform="translate(169.689512 68.320829) rotate(-90) scale(0.08 -0.08)">
     <defs>
      <path id="DejaVuSans-Bold-37" d="M 428 4666 
L 3944 4666 
L 3944 3988 
L 2125 0 
L 953 0 
L 2675 3781 
L 428 3781 
L 428 4666 
z
" transform="scale(0.015625)"/>
      <path id="DejaVuSans-Bold-31" d="M 750 831 
L 1813 831 
L 1813 3847 
L 722 3622 
L 722 4441 
L 1806 4666 
L 2950 4666 
L 2950 831 
L 4013 831 
L 4013 0 
L 750 0 
L 750 831 
z
" transform="scale(0.015625)"/>
      <path id="DejaVuSans-Bold-30" d="M 2944 2338 
Q 2944 3213 2780 3570 
Q 2616 3928 2228 3928 
Q 1841 3928 1675 3570 
Q 1509 3213 1509 2338 
Q 1509 1453 1675 1090 
Q 1841 728 2228 728 
Q 2613 728 2778 1090 
Q 2944 1453 2944 2338 
z
M 4147 2328 
Q 4147 1169 3647 539 
Q 3147 -91 2228 -91 
Q 1306 -91 806 539 
Q 306 1169 306 2328 
Q 306 3491 806 4120 
Q 1306 4750 2228 4750 
Q 3147 4750 3647 4120 
Q 4147 3491 4147 2328 
z
" transform="scale(0.015625)"/>
     </defs>
     <use xlink:href="#DejaVuSans-Bold-37"/>
     <use xlink:href="#DejaVuSans-Bold-31" x="69.580078"/>
     <use xlink:href="#DejaVuSans-Bold-2e" x="139.160156"/>
     <use xlink:href="#DejaVuSans-Bold-30" x="177.148438"/>
     <use xlink:href="#DejaVuSans-Bold-4b" x="246.728516"/>
     <use xlink:href="#DejaVuSans-Bold-20" x="324.21875"/>
    </g>
   </g>
   <g id="text_17">
    <!-- 76.7K  -->
    <g style="fill: #ffffff; opacity: 0.8" transform="translate(261.716729 50.338238) rotate(-90) scale(0.08 -0.08)">
     <use xlink:href="#DejaVuSans-Bold-37"/>
     <use xlink:href="#DejaVuSans-Bold-36" x="69.580078"/>
     <use xlink:href="#DejaVuSans-Bold-2e" x="139.160156"/>
     <use xlink:href="#DejaVuSans-Bold-37" x="177.148438"/>
     <use xlink:href="#DejaVuSans-Bold-4b" x="246.728516"/>
     <use xlink:href="#DejaVuSans-Bold-20" x="324.21875"/>
    </g>
   </g>
   <g id="text_18">
    <!-- 76.1K  -->
    <g style="fill: #ffffff; opacity: 0.8" transform="translate(353.743946 52.220911) rotate(-90) scale(0.08 -0.08)">
     <use xlink:href="#DejaVuSans-Bold-37"/>
     <use xlink:href="#DejaVuSans-Bold-36" x="69.580078"/>
     <use xlink:href="#DejaVuSans-Bold-2e" x="139.160156"/>
     <use xlink:href="#DejaVuSans-Bold-31" x="177.148438"/>
     <use xlink:href="#DejaVuSans-Bold-4b" x="246.728516"/>
     <use xlink:href="#DejaVuSans-Bold-20" x="324.21875"/>
    </g>
   </g>
   <g id="text_19">
    <!-- 33.3K  -->
    <g style="fill: #ffffff; opacity: 0.8" transform="translate(91.820329 187.765446) rotate(-90) scale(0.08 -0.08)">
     <use xlink:href="#DejaVuSans-Bold-33"/>
     <use xlink:href="#DejaVuSans-Bold-33" x="69.580078"/>
     <use xlink:href="#DejaVuSans-Bold-2e" x="139.160156"/>
     <use xlink:href="#DejaVuSans-Bold-33" x="177.148438"/>
     <use xlink:href="#DejaVuSans-Bold-4b" x="246.728516"/>
     <use xlink:href="#DejaVuSans-Bold-20" x="324.21875"/>
    </g>
   </g>
   <g id="text_20">
    <!-- 66.2K  -->
    <g style="fill: #ffffff; opacity: 0.8" transform="translate(183.847546 83.403343) rotate(-90) scale(0.08 -0.08)">
     <defs>
      <path id="DejaVuSans-Bold-32" d="M 1844 884 
L 3897 884 
L 3897 0 
L 506 0 
L 506 884 
L 2209 2388 
Q 2438 2594 2547 2791 
Q 2656 2988 2656 3200 
Q 2656 3528 2436 3728 
Q 2216 3928 1850 3928 
Q 1569 3928 1234 3808 
Q 900 3688 519 3450 
L 519 4475 
Q 925 4609 1322 4679 
Q 1719 4750 2100 4750 
Q 2938 4750 3402 4381 
Q 3866 4013 3866 3353 
Q 3866 2972 3669 2642 
Q 3472 2313 2841 1759 
L 1844 884 
z
" transform="scale(0.015625)"/>
     </defs>
     <use xlink:href="#DejaVuSans-Bold-36"/>
     <use xlink:href="#DejaVuSans-Bold-36" x="69.580078"/>
     <use xlink:href="#DejaVuSans-Bold-2e" x="139.160156"/>
     <use xlink:href="#DejaVuSans-Bold-32" x="177.148438"/>
     <use xlink:href="#DejaVuSans-Bold-4b" x="246.728516"/>
     <use xlink:href="#DejaVuSans-Bold-20" x="324.21875"/>
    </g>
   </g>
   <g id="text_21">
    <!-- 68.4K  -->
    <g style="fill: #ffffff; opacity: 0.8" transform="translate(275.874763 76.579974) rotate(-90) scale(0.08 -0.08)">
     <defs>
      <path id="DejaVuSans-Bold-38" d="M 2228 2088 
Q 1891 2088 1709 1903 
Q 1528 1719 1528 1375 
Q 1528 1031 1709 848 
Q 1891 666 2228 666 
Q 2563 666 2741 848 
Q 2919 1031 2919 1375 
Q 2919 1722 2741 1905 
Q 2563 2088 2228 2088 
z
M 1350 2484 
Q 925 2613 709 2878 
Q 494 3144 494 3541 
Q 494 4131 934 4440 
Q 1375 4750 2228 4750 
Q 3075 4750 3515 4442 
Q 3956 4134 3956 3541 
Q 3956 3144 3739 2878 
Q 3522 2613 3097 2484 
Q 3572 2353 3814 2058 
Q 4056 1763 4056 1313 
Q 4056 619 3595 264 
Q 3134 -91 2228 -91 
Q 1319 -91 855 264 
Q 391 619 391 1313 
Q 391 1763 633 2058 
Q 875 2353 1350 2484 
z
M 1631 3419 
Q 1631 3141 1786 2991 
Q 1941 2841 2228 2841 
Q 2509 2841 2662 2991 
Q 2816 3141 2816 3419 
Q 2816 3697 2662 3845 
Q 2509 3994 2228 3994 
Q 1941 3994 1786 3844 
Q 1631 3694 1631 3419 
z
" transform="scale(0.015625)"/>
      <path id="DejaVuSans-Bold-34" d="M 2356 3675 
L 1038 1722 
L 2356 1722 
L 2356 3675 
z
M 2156 4666 
L 3494 4666 
L 3494 1722 
L 4159 1722 
L 4159 850 
L 3494 850 
L 3494 0 
L 2356 0 
L 2356 850 
L 288 850 
L 288 1881 
L 2156 4666 
z
" transform="scale(0.015625)"/>
     </defs>
     <use xlink:href="#DejaVuSans-Bold-36"/>
     <use xlink:href="#DejaVuSans-Bold-38" x="69.580078"/>
     <use xlink:href="#DejaVuSans-Bold-2e" x="139.160156"/>
     <use xlink:href="#DejaVuSans-Bold-34" x="177.148438"/>
     <use xlink:href="#DejaVuSans-Bold-4b" x="246.728516"/>
     <use xlink:href="#DejaVuSans-Bold-20" x="324.21875"/>
    </g>
   </g>
   <g id="text_22">
    <!-- 72.3K  -->
    <g style="fill: #ffffff; opacity: 0.8" transform="translate(367.90198 64.006634) rotate(-90) scale(0.08 -0.08)">
     <use xlink:href="#DejaVuSans-Bold-37"/>
     <use xlink:href="#DejaVuSans-Bold-32" x="69.580078"/>
     <use xlink:href="#DejaVuSans-Bold-2e" x="139.160156"/>
     <use xlink:href="#DejaVuSans-Bold-33" x="177.148438"/>
     <use xlink:href="#DejaVuSans-Bold-4b" x="246.728516"/>
     <use xlink:href="#DejaVuSans-Bold-20" x="324.21875"/>
    </g>
   </g>
   <g id="text_23">
    <!-- 29.7K  -->
    <g style="fill: #ffffff; opacity: 0.8" transform="translate(105.978362 199.284933) rotate(-90) scale(0.08 -0.08)">
     <defs>
      <path id="DejaVuSans-Bold-39" d="M 641 103 
L 641 966 
Q 928 831 1190 764 
Q 1453 697 1709 697 
Q 2247 697 2547 995 
Q 2847 1294 2900 1881 
Q 2688 1725 2447 1647 
Q 2206 1569 1925 1569 
Q 1209 1569 770 1986 
Q 331 2403 331 3084 
Q 331 3838 820 4291 
Q 1309 4744 2131 4744 
Q 3044 4744 3544 4128 
Q 4044 3513 4044 2388 
Q 4044 1231 3459 570 
Q 2875 -91 1856 -91 
Q 1528 -91 1228 -42 
Q 928 6 641 103 
z
M 2125 2350 
Q 2441 2350 2600 2554 
Q 2759 2759 2759 3169 
Q 2759 3575 2600 3781 
Q 2441 3988 2125 3988 
Q 1809 3988 1650 3781 
Q 1491 3575 1491 3169 
Q 1491 2759 1650 2554 
Q 1809 2350 2125 2350 
z
" transform="scale(0.015625)"/>
     </defs>
     <use xlink:href="#DejaVuSans-Bold-32"/>
     <use xlink:href="#DejaVuSans-Bold-39" x="69.580078"/>
     <use xlink:href="#DejaVuSans-Bold-2e" x="139.160156"/>
     <use xlink:href="#DejaVuSans-Bold-37" x="177.148438"/>
     <use xlink:href="#DejaVuSans-Bold-4b" x="246.728516"/>
     <use xlink:href="#DejaVuSans-Bold-20" x="324.21875"/>
    </g>
   </g>
   <g id="text_24">
    <!-- 50.3K  -->
    <g style="fill: #ffffff; opacity: 0.8" transform="translate(198.005579 133.740019) rotate(-90) scale(0.08 -0.08)">
     <use xlink:href="#DejaVuSans-Bold-35"/>
     <use xlink:href="#DejaVuSans-Bold-30" x="69.580078"/>
     <use xlink:href="#DejaVuSans-Bold-2e" x="139.160156"/>
     <use xlink:href="#DejaVuSans-Bold-33" x="177.148438"/>
     <use xlink:href="#DejaVuSans-Bold-4b" x="246.728516"/>
     <use xlink:href="#DejaVuSans-Bold-20" x="324.21875"/>
    </g>
   </g>
   <g id="text_25">
    <!-- 54.7K  -->
    <g style="fill: #ffffff; opacity: 0.8" transform="translate(290.032796 119.799047) rotate(-90) scale(0.08 -0.08)">
     <use xlink:href="#DejaVuSans-Bold-35"/>
     <use xlink:href="#DejaVuSans-Bold-34" x="69.580078"/>
     <use xlink:href="#DejaVuSans-Bold-2e" x="139.160156"/>
     <use xlink:href="#DejaVuSans-Bold-37" x="177.148438"/>
     <use xlink:href="#DejaVuSans-Bold-4b" x="246.728516"/>
     <use xlink:href="#DejaVuSans-Bold-20" x="324.21875"/>
    </g>
   </g>
   <g id="text_26">
    <!-- 56.9K  -->
    <g style="fill: #ffffff; opacity: 0.8" transform="translate(382.060013 113.040124) rotate(-90) scale(0.08 -0.08)">
     <use xlink:href="#DejaVuSans-Bold-35"/>
     <use xlink:href="#DejaVuSans-Bold-36" x="69.580078"/>
     <use xlink:href="#DejaVuSans-Bold-2e" x="139.160156"/>
     <use xlink:href="#DejaVuSans-Bold-39" x="177.148438"/>
     <use xlink:href="#DejaVuSans-Bold-4b" x="246.728516"/>
     <use xlink:href="#DejaVuSans-Bold-20" x="324.21875"/>
    </g>
   </g>
   <g id="text_27">
    <!-- 24.5K  -->
    <g style="fill: #ffffff; opacity: 0.8" transform="translate(120.136395 215.690178) rotate(-90) scale(0.08 -0.08)">
     <use xlink:href="#DejaVuSans-Bold-32"/>
     <use xlink:href="#DejaVuSans-Bold-34" x="69.580078"/>
     <use xlink:href="#DejaVuSans-Bold-2e" x="139.160156"/>
     <use xlink:href="#DejaVuSans-Bold-35" x="177.148438"/>
     <use xlink:href="#DejaVuSans-Bold-4b" x="246.728516"/>
     <use xlink:href="#DejaVuSans-Bold-20" x="324.21875"/>
    </g>
   </g>
   <g id="text_28">
    <!-- 32.1K  -->
    <g style="fill: #ffffff; opacity: 0.8" transform="translate(212.163612 191.6581) rotate(-90) scale(0.08 -0.08)">
     <use xlink:href="#DejaVuSans-Bold-33"/>
     <use xlink:href="#DejaVuSans-Bold-32" x="69.580078"/>
     <use xlink:href="#DejaVuSans-Bold-2e" x="139.160156"/>
     <use xlink:href="#DejaVuSans-Bold-31" x="177.148438"/>
     <use xlink:href="#DejaVuSans-Bold-4b" x="246.728516"/>
     <use xlink:href="#DejaVuSans-Bold-20" x="324.21875"/>
    </g>
   </g>
   <g id="text_29">
    <!-- 39.2K  -->
    <g style="fill: #ffffff; opacity: 0.8" transform="translate(304.190829 169.171673) rotate(-90) scale(0.08 -0.08)">
     <use xlink:href="#DejaVuSans-Bold-33"/>
     <use xlink:href="#DejaVuSans-Bold-39" x="69.580078"/>
     <use xlink:href="#DejaVuSans-Bold-2e" x="139.160156"/>
     <use xlink:href="#DejaVuSans-Bold-32" x="177.148438"/>
     <use xlink:href="#DejaVuSans-Bold-4b" x="246.728516"/>
     <use xlink:href="#DejaVuSans-Bold-20" x="324.21875"/>
    </g>
   </g>
   <g id="text_30">
    <!-- 38.0K  -->
    <g style="fill: #ffffff; opacity: 0.8" transform="translate(396.218046 172.878383) rotate(-90) scale(0.08 -0.08)">
     <use xlink:href="#DejaVuSans-Bold-33"/>
     <use xlink:href="#DejaVuSans-Bold-38" x="69.580078"/>
     <use xlink:href="#DejaVuSans-Bold-2e" x="139.160156"/>
     <use xlink:href="#DejaVuSans-Bold-30" x="177.148438"/>
     <use xlink:href="#DejaVuSans-Bold-4b" x="246.728516"/>
     <use xlink:href="#DejaVuSans-Bold-20" x="324.21875"/>
    </g>
   </g>
   <g id="text_31">
    <!-- 23.6K  -->
    <g style="fill: #ffffff; opacity: 0.8" transform="translate(134.294429 218.427027) rotate(-90) scale(0.08 -0.08)">
     <use xlink:href="#DejaVuSans-Bold-32"/>
     <use xlink:href="#DejaVuSans-Bold-33" x="69.580078"/>
     <use xlink:href="#DejaVuSans-Bold-2e" x="139.160156"/>
     <use xlink:href="#DejaVuSans-Bold-36" x="177.148438"/>
     <use xlink:href="#DejaVuSans-Bold-4b" x="246.728516"/>
     <use xlink:href="#DejaVuSans-Bold-20" x="324.21875"/>
    </g>
   </g>
   <g id="text_32">
    <!-- 32.7K  -->
    <g style="fill: #ffffff; opacity: 0.8" transform="translate(226.321646 189.499682) rotate(-90) scale(0.08 -0.08)">
     <use xlink:href="#DejaVuSans-Bold-33"/>
     <use xlink:href="#DejaVuSans-Bold-32" x="69.580078"/>
     <use xlink:href="#DejaVuSans-Bold-2e" x="139.160156"/>
     <use xlink:href="#DejaVuSans-Bold-37" x="177.148438"/>
     <use xlink:href="#DejaVuSans-Bold-4b" x="246.728516"/>
     <use xlink:href="#DejaVuSans-Bold-20" x="324.21875"/>
    </g>
   </g>
   <g id="text_33">
    <!-- 34.8K  -->
    <g style="fill: #ffffff; opacity: 0.8" transform="translate(318.348863 183.088873) rotate(-90) scale(0.08 -0.08)">
     <use xlink:href="#DejaVuSans-Bold-33"/>
     <use xlink:href="#DejaVuSans-Bold-34" x="69.580078"/>
     <use xlink:href="#DejaVuSans-Bold-2e" x="139.160156"/>
     <use xlink:href="#DejaVuSans-Bold-38" x="177.148438"/>
     <use xlink:href="#DejaVuSans-Bold-4b" x="246.728516"/>
     <use xlink:href="#DejaVuSans-Bold-20" x="324.21875"/>
    </g>
   </g>
   <g id="text_34">
    <!-- 38.2K  -->
    <g style="fill: #ffffff; opacity: 0.8" transform="translate(410.37608 172.233393) rotate(-90) scale(0.08 -0.08)">
     <use xlink:href="#DejaVuSans-Bold-33"/>
     <use xlink:href="#DejaVuSans-Bold-38" x="69.580078"/>
     <use xlink:href="#DejaVuSans-Bold-2e" x="139.160156"/>
     <use xlink:href="#DejaVuSans-Bold-32" x="177.148438"/>
     <use xlink:href="#DejaVuSans-Bold-4b" x="246.728516"/>
     <use xlink:href="#DejaVuSans-Bold-20" x="324.21875"/>
    </g>
   </g>
   <g id="legend_1">
    <g id="patch_27">
     <path d="M 52.403875 332.64968 
L 431.2195 332.64968 
Q 433.2195 332.64968 433.2195 330.64968 
L 433.2195 302.16843 
Q 433.2195 300.16843 431.2195 300.16843 
L 52.403875 300.16843 
Q 50.403875 300.16843 50.403875 302.16843 
L 50.403875 330.64968 
Q 50.403875 332.64968 52.403875 332.64968 
z
" style="fill: #ffffff; opacity: 0.8; stroke: #cccccc; stroke-linejoin: miter"/>
    </g>
    <g id="patch_28">
     <path d="M 54.403875 311.829367 
L 74.403875 311.829367 
L 74.403875 304.829367 
L 54.403875 304.829367 
z
" style="fill: #1f77b4"/>
    </g>
    <g id="text_35">
     <!-- (α,β)=(0.0,1.0) -->
     <g transform="translate(82.403875 311.829367) scale(0.1 -0.1)">
      <defs>
       <path id="DejaVuSans-28" d="M 1984 4856 
Q 1566 4138 1362 3434 
Q 1159 2731 1159 2009 
Q 1159 1288 1364 580 
Q 1569 -128 1984 -844 
L 1484 -844 
Q 1016 -109 783 600 
Q 550 1309 550 2009 
Q 550 2706 781 3412 
Q 1013 4119 1484 4856 
L 1984 4856 
z
" transform="scale(0.015625)"/>
       <path id="DejaVuSans-3b1" d="M 2644 1628 
L 2506 2350 
Q 2366 3091 1809 3091 
Q 1391 3091 1200 2747 
Q 959 2316 959 1747 
Q 959 1059 1194 731 
Q 1431 397 1809 397 
Q 2228 397 2453 1063 
L 2644 1628 
z
M 2966 2584 
L 3275 3500 
L 3788 3500 
L 3147 1603 
L 3272 919 
Q 3300 766 3409 638 
Q 3538 488 3638 488 
L 3913 488 
L 3913 0 
L 3569 0 
Q 3275 0 3013 263 
Q 2884 394 2831 669 
Q 2688 322 2394 50 
Q 2256 -78 1809 -78 
Q 1075 -78 719 397 
Q 353 888 353 1747 
Q 353 2666 750 3097 
Q 1191 3578 1809 3578 
Q 2781 3578 2966 2584 
z
" transform="scale(0.015625)"/>
       <path id="DejaVuSans-2c" d="M 750 794 
L 1409 794 
L 1409 256 
L 897 -744 
L 494 -744 
L 750 256 
L 750 794 
z
" transform="scale(0.015625)"/>
       <path id="DejaVuSans-3b2" d="M 1178 216 
L 1178 -1331 
L 600 -1331 
L 600 3478 
Q 600 4903 1931 4903 
Q 3288 4903 3288 3700 
Q 3288 2844 2750 2531 
Q 3625 2250 3625 1416 
Q 3625 -66 2119 -66 
Q 1456 -66 1178 216 
z
M 1178 966 
Q 1525 425 2141 425 
Q 3041 425 3041 1406 
Q 3041 2288 1591 2219 
L 1591 2750 
Q 2725 2750 2725 3750 
Q 2725 4434 1994 4434 
Q 1178 4434 1178 3459 
L 1178 966 
z
" transform="scale(0.015625)"/>
       <path id="DejaVuSans-29" d="M 513 4856 
L 1013 4856 
Q 1481 4119 1714 3412 
Q 1947 2706 1947 2009 
Q 1947 1309 1714 600 
Q 1481 -109 1013 -844 
L 513 -844 
Q 928 -128 1133 580 
Q 1338 1288 1338 2009 
Q 1338 2731 1133 3434 
Q 928 4138 513 4856 
z
" transform="scale(0.015625)"/>
       <path id="DejaVuSans-2e" d="M 684 794 
L 1344 794 
L 1344 0 
L 684 0 
L 684 794 
z
" transform="scale(0.015625)"/>
      </defs>
      <use xlink:href="#DejaVuSans-28"/>
      <use xlink:href="#DejaVuSans-3b1" x="39.013672"/>
      <use xlink:href="#DejaVuSans-2c" x="104.931641"/>
      <use xlink:href="#DejaVuSans-3b2" x="136.71875"/>
      <use xlink:href="#DejaVuSans-29" x="200.537109"/>
      <use xlink:href="#DejaVuSans-3d" x="239.550781"/>
      <use xlink:href="#DejaVuSans-28" x="323.339844"/>
      <use xlink:href="#DejaVuSans-30" x="362.353516"/>
      <use xlink:href="#DejaVuSans-2e" x="425.976562"/>
      <use xlink:href="#DejaVuSans-30" x="457.763672"/>
      <use xlink:href="#DejaVuSans-2c" x="521.386719"/>
      <use xlink:href="#DejaVuSans-31" x="553.173828"/>
      <use xlink:href="#DejaVuSans-2e" x="616.796875"/>
      <use xlink:href="#DejaVuSans-30" x="648.583984"/>
      <use xlink:href="#DejaVuSans-29" x="712.207031"/>
     </g>
    </g>
    <g id="patch_29">
     <path d="M 54.403875 326.569992 
L 74.403875 326.569992 
L 74.403875 319.569992 
L 54.403875 319.569992 
z
" style="fill: #ff7f0e"/>
    </g>
    <g id="text_36">
     <!-- (α,β)=(0.25,0.75) -->
     <g transform="translate(82.403875 326.569992) scale(0.1 -0.1)">
      <use xlink:href="#DejaVuSans-28"/>
      <use xlink:href="#DejaVuSans-3b1" x="39.013672"/>
      <use xlink:href="#DejaVuSans-2c" x="104.931641"/>
      <use xlink:href="#DejaVuSans-3b2" x="136.71875"/>
      <use xlink:href="#DejaVuSans-29" x="200.537109"/>
      <use xlink:href="#DejaVuSans-3d" x="239.550781"/>
      <use xlink:href="#DejaVuSans-28" x="323.339844"/>
      <use xlink:href="#DejaVuSans-30" x="362.353516"/>
      <use xlink:href="#DejaVuSans-2e" x="425.976562"/>
      <use xlink:href="#DejaVuSans-32" x="457.763672"/>
      <use xlink:href="#DejaVuSans-35" x="521.386719"/>
      <use xlink:href="#DejaVuSans-2c" x="585.009766"/>
      <use xlink:href="#DejaVuSans-30" x="616.796875"/>
      <use xlink:href="#DejaVuSans-2e" x="680.419922"/>
      <use xlink:href="#DejaVuSans-37" x="712.207031"/>
      <use xlink:href="#DejaVuSans-35" x="775.830078"/>
      <use xlink:href="#DejaVuSans-29" x="839.453125"/>
     </g>
    </g>
    <g id="patch_30">
     <path d="M 190.25075 311.829367 
L 210.25075 311.829367 
L 210.25075 304.829367 
L 190.25075 304.829367 
z
" style="fill: #2ca02c"/>
    </g>
    <g id="text_37">
     <!-- (α,β)=(0.5,0.5) -->
     <g transform="translate(218.25075 311.829367) scale(0.1 -0.1)">
      <use xlink:href="#DejaVuSans-28"/>
      <use xlink:href="#DejaVuSans-3b1" x="39.013672"/>
      <use xlink:href="#DejaVuSans-2c" x="104.931641"/>
      <use xlink:href="#DejaVuSans-3b2" x="136.71875"/>
      <use xlink:href="#DejaVuSans-29" x="200.537109"/>
      <use xlink:href="#DejaVuSans-3d" x="239.550781"/>
      <use xlink:href="#DejaVuSans-28" x="323.339844"/>
      <use xlink:href="#DejaVuSans-30" x="362.353516"/>
      <use xlink:href="#DejaVuSans-2e" x="425.976562"/>
      <use xlink:href="#DejaVuSans-35" x="457.763672"/>
      <use xlink:href="#DejaVuSans-2c" x="521.386719"/>
      <use xlink:href="#DejaVuSans-30" x="553.173828"/>
      <use xlink:href="#DejaVuSans-2e" x="616.796875"/>
      <use xlink:href="#DejaVuSans-35" x="648.583984"/>
      <use xlink:href="#DejaVuSans-29" x="712.207031"/>
     </g>
    </g>
    <g id="patch_31">
     <path d="M 190.25075 326.569992 
L 210.25075 326.569992 
L 210.25075 319.569992 
L 190.25075 319.569992 
z
" style="fill: #d62728"/>
    </g>
    <g id="text_38">
     <!-- (α,β)=(0.75,0.25) -->
     <g transform="translate(218.25075 326.569992) scale(0.1 -0.1)">
      <use xlink:href="#DejaVuSans-28"/>
      <use xlink:href="#DejaVuSans-3b1" x="39.013672"/>
      <use xlink:href="#DejaVuSans-2c" x="104.931641"/>
      <use xlink:href="#DejaVuSans-3b2" x="136.71875"/>
      <use xlink:href="#DejaVuSans-29" x="200.537109"/>
      <use xlink:href="#DejaVuSans-3d" x="239.550781"/>
      <use xlink:href="#DejaVuSans-28" x="323.339844"/>
      <use xlink:href="#DejaVuSans-30" x="362.353516"/>
      <use xlink:href="#DejaVuSans-2e" x="425.976562"/>
      <use xlink:href="#DejaVuSans-37" x="457.763672"/>
      <use xlink:href="#DejaVuSans-35" x="521.386719"/>
      <use xlink:href="#DejaVuSans-2c" x="585.009766"/>
      <use xlink:href="#DejaVuSans-30" x="616.796875"/>
      <use xlink:href="#DejaVuSans-2e" x="680.419922"/>
      <use xlink:href="#DejaVuSans-32" x="712.207031"/>
      <use xlink:href="#DejaVuSans-35" x="775.830078"/>
      <use xlink:href="#DejaVuSans-29" x="839.453125"/>
     </g>
    </g>
    <g id="patch_32">
     <path d="M 326.097625 311.829367 
L 346.097625 311.829367 
L 346.097625 304.829367 
L 326.097625 304.829367 
z
" style="fill: #9467bd"/>
    </g>
    <g id="text_39">
     <!-- (α,β)=(1.0,0.0) -->
     <g transform="translate(354.097625 311.829367) scale(0.1 -0.1)">
      <use xlink:href="#DejaVuSans-28"/>
      <use xlink:href="#DejaVuSans-3b1" x="39.013672"/>
      <use xlink:href="#DejaVuSans-2c" x="104.931641"/>
      <use xlink:href="#DejaVuSans-3b2" x="136.71875"/>
      <use xlink:href="#DejaVuSans-29" x="200.537109"/>
      <use xlink:href="#DejaVuSans-3d" x="239.550781"/>
      <use xlink:href="#DejaVuSans-28" x="323.339844"/>
      <use xlink:href="#DejaVuSans-31" x="362.353516"/>
      <use xlink:href="#DejaVuSans-2e" x="425.976562"/>
      <use xlink:href="#DejaVuSans-30" x="457.763672"/>
      <use xlink:href="#DejaVuSans-2c" x="521.386719"/>
      <use xlink:href="#DejaVuSans-30" x="553.173828"/>
      <use xlink:href="#DejaVuSans-2e" x="616.796875"/>
      <use xlink:href="#DejaVuSans-30" x="648.583984"/>
      <use xlink:href="#DejaVuSans-29" x="712.207031"/>
     </g>
    </g>
   </g>
  </g>
 </g>
 <defs>
  <clipPath id="p0d4b8df64b">
   <rect x="51.032188" y="9.469943" width="381.559" height="255.087935"/>
  </clipPath>
 </defs>
</svg>
